<svg version="1.1" id="Layer_1" xmlns="http://www.w3.org/2000/svg" xmlns:xlink="http://www.w3.org/1999/xlink" x="0px" y="0px"
	 width="100%" viewBox="0 0 427 263" enable-background="new 0 0 427 263" xml:space="preserve">
<path fill="#010101" opacity="1.000000" stroke="none" 
	d="
M424.000000,264.000000 
	C283.054932,264.000000 142.109879,264.000000 1.082408,264.000000 
	C1.082408,176.422501 1.082408,88.844894 1.082408,1.000000 
	C141.689194,1.000000 282.378571,1.000000 423.536194,1.468653 
	C424.009094,67.956741 424.013702,133.976166 424.011322,200.464676 
	C424.022766,217.967514 424.041199,235.001266 424.046204,252.491974 
	C424.021881,256.632599 424.010956,260.316315 424.000000,264.000000 
M132.556335,132.801376 
	C132.504028,133.196060 132.451736,133.590744 131.895309,134.393036 
	C131.857178,135.001160 131.819046,135.609299 131.481705,136.782761 
	C131.415039,137.200821 131.348358,137.618896 130.851791,138.393738 
	C130.863052,139.268570 130.874313,140.143387 130.651520,141.767273 
	C130.546768,143.860077 130.442001,145.952896 129.906174,148.289902 
	C130.087082,149.025330 130.267990,149.760742 130.648788,151.194275 
	C131.799149,153.463547 132.949509,155.732819 133.985153,158.578522 
	C134.330948,159.049301 134.676743,159.520096 135.071320,160.695450 
	C138.028381,164.429565 141.832672,165.859238 146.639099,166.160797 
	C154.178192,166.633835 158.712601,162.133957 163.485092,157.578400 
	C164.765411,156.356277 166.498688,155.608719 168.016235,155.372681 
	C174.291611,164.224380 182.984024,165.973801 193.654510,163.903763 
	C194.495697,163.295380 195.336899,162.686981 196.889587,162.104584 
	C198.249588,161.296265 199.609573,160.487930 201.552505,159.639954 
	C202.113007,159.127197 202.673492,158.614441 203.945786,157.903137 
	C205.010681,156.892838 206.075592,155.882538 207.072266,154.855103 
	C207.072266,154.855103 207.191788,154.944519 207.954819,154.979370 
	C210.295502,152.635040 212.636185,150.290710 215.508148,147.778214 
	C215.882385,147.164886 216.256622,146.551559 217.156891,145.531021 
	C217.847076,144.172119 218.537247,142.813202 219.774673,141.033356 
	C220.615005,138.667023 221.455353,136.300705 222.767776,133.487915 
	C222.893417,133.078613 223.019058,132.669327 223.747787,131.878769 
	C224.234665,128.892700 224.721542,125.906639 225.485107,122.224426 
	C226.902542,115.682930 227.579819,109.183769 224.628159,102.385101 
	C224.393112,101.934914 224.158066,101.484734 223.690750,100.328392 
	C222.995331,98.676079 222.353577,96.998589 221.593018,95.376823 
	C220.128799,92.254646 219.691147,88.268059 215.121002,87.062492 
	C214.704239,86.726273 214.287476,86.390060 213.489960,85.487572 
	C208.362869,77.980011 200.614136,73.926735 192.345261,69.296143 
	C190.194550,68.669815 188.043823,68.043488 185.527649,67.009773 
	C184.993149,66.983711 184.458649,66.957649 183.424255,66.611832 
	C181.711273,66.028053 179.998276,65.444283 178.007126,64.370224 
	C176.813477,64.486061 175.619812,64.601898 173.613113,64.583809 
	C171.410522,64.715790 169.207947,64.847763 166.418427,64.842133 
	C165.075378,65.124008 163.732315,65.405876 161.661911,65.681808 
	C159.783188,66.174507 157.904480,66.667206 155.294403,67.230415 
	C153.389587,68.092583 151.484756,68.954750 148.681915,70.446793 
	C148.288528,73.062737 149.475754,72.926414 151.557465,72.475922 
	C159.360718,70.787270 167.217056,69.343880 175.356003,68.103043 
	C175.906372,68.075394 176.456726,68.047745 177.725525,68.366684 
	C179.294968,68.767067 180.850952,69.234024 182.436584,69.554276 
	C185.964661,70.266838 189.507584,70.905991 193.794800,71.543381 
	C194.600449,72.081665 195.543930,72.490547 196.189987,73.178665 
	C201.467865,78.800179 206.690216,84.473808 211.663055,90.837265 
	C211.572876,92.212692 211.482681,93.588112 211.779251,95.584564 
	C212.644821,99.498764 214.596939,103.559967 214.092438,107.288795 
	C213.502823,111.646515 215.362427,115.144913 215.320374,119.608971 
	C215.313461,120.100838 215.306549,120.592705 214.820206,121.674988 
	C213.984772,125.459869 213.149338,129.244751 211.910126,133.344788 
	C211.832458,133.667892 211.754791,133.990982 211.094574,134.719940 
	C209.806549,137.487549 208.518524,140.255173 206.855179,143.220810 
	C206.855179,143.220810 206.849060,143.645142 206.309036,143.888748 
	C206.025879,144.606995 205.742706,145.325226 204.998627,146.239944 
	C204.959747,146.402390 204.920868,146.564819 204.268982,146.946167 
	C203.628128,148.308716 202.987274,149.671265 201.788284,151.349167 
	C201.537933,151.690720 201.287598,152.032272 200.411514,152.430206 
	C199.625961,153.293396 198.840408,154.156570 197.833282,155.519684 
	C197.584885,155.785278 197.336487,156.050888 196.469147,156.699982 
	C195.968857,157.795593 195.468567,158.891190 194.134216,160.128891 
	C190.836136,161.136093 187.512680,163.496109 184.152588,160.599762 
	C182.718857,159.363907 181.750031,157.588699 180.605667,155.175659 
	C180.629395,154.025558 180.484512,152.842224 180.703720,151.730682 
	C182.333740,143.465317 184.036011,135.214218 186.087799,126.693153 
	C186.087799,126.693153 186.111984,126.236603 186.712219,125.917908 
	C187.271652,123.917664 187.831085,121.917419 188.881332,119.607796 
	C188.927490,119.419983 188.973633,119.232178 189.648666,118.723755 
	C191.029755,114.156624 192.493210,109.612038 193.753220,105.011749 
	C194.290604,103.049850 195.321793,100.284378 194.459961,99.132301 
	C193.528839,97.887558 190.662338,97.884331 188.613449,97.752289 
	C187.175919,97.659645 185.533966,97.950638 184.263596,98.610184 
	C181.255432,100.171959 178.628143,99.846428 175.748001,97.210213 
	C174.814148,96.815063 173.880310,96.419914 172.361160,95.750359 
	C169.540970,94.345100 166.697739,92.231461 163.525970,95.929077 
	C163.351273,95.952339 163.176590,95.975609 162.712357,95.706314 
	C159.036499,95.171432 156.306610,96.637100 153.935883,99.765907 
	C153.684937,99.904991 153.545364,100.117256 153.528915,100.561455 
	C153.528915,100.561455 153.438049,100.430740 152.921600,100.536758 
	C152.570297,100.914589 152.218994,101.292419 151.158508,101.802620 
	C149.398987,103.887054 147.639465,105.971497 145.928879,108.092735 
	C145.928879,108.092735 145.799515,108.000488 145.017334,108.208527 
	C144.484695,109.098053 143.952057,109.987572 143.116669,111.182304 
	C143.019211,111.453697 142.980148,111.733215 142.532318,112.303253 
	C142.312195,112.789177 142.092087,113.275108 141.316925,113.981384 
	C141.013199,114.681023 140.709473,115.380653 139.868378,116.570168 
	C138.454269,119.589424 137.040161,122.608681 135.094513,125.955017 
	C134.960648,126.715569 134.826767,127.476112 134.360275,128.740952 
	C134.195236,129.106964 134.030197,129.472977 133.283081,130.040771 
	C133.122131,130.778122 132.961197,131.515472 132.556335,132.801376 
M113.073425,120.560760 
	C113.070641,119.995277 113.067856,119.429794 113.403763,118.187943 
	C113.736259,116.974808 114.068756,115.761673 114.902992,114.110634 
	C114.970177,113.027023 115.037354,111.943413 115.513641,110.259209 
	C115.813568,109.356506 116.113495,108.453812 116.877640,107.174438 
	C117.050850,106.406151 117.224060,105.637856 117.911385,104.365379 
	C118.584076,102.837883 119.256767,101.310387 120.491585,99.632141 
	C120.794075,98.742950 121.096565,97.853760 121.900131,96.480659 
	C121.909164,96.248642 121.918198,96.016617 122.217674,95.475304 
	C122.361923,95.149010 122.506172,94.822723 122.650429,94.496437 
	C122.498444,94.461876 122.346458,94.427322 122.923561,94.067535 
	C129.088104,83.298698 140.924316,79.522079 149.952667,71.781052 
	C147.258713,71.490906 144.538574,71.567261 142.643463,72.856430 
	C137.558823,76.315292 132.782440,80.236946 127.964172,84.075882 
	C115.531189,93.981842 108.558189,107.128532 104.940689,122.770943 
	C104.924202,123.520020 104.907715,124.269104 104.733246,125.849144 
	C104.563736,132.613602 104.140190,139.386017 104.352058,146.138504 
	C104.434654,148.770981 105.947800,151.358566 106.556465,154.477005 
	C106.801971,154.951828 107.047478,155.426636 107.251617,156.620102 
	C107.399963,157.068283 107.548302,157.516479 107.534912,158.624619 
	C108.124405,160.048706 108.713890,161.472794 109.227432,163.691818 
	C109.560242,165.524078 108.520737,168.262573 112.319092,168.583893 
	C112.832047,169.529388 113.345001,170.474869 113.963135,171.935944 
	C114.235962,172.141922 114.508789,172.347900 114.792236,173.191208 
	C115.810822,174.480072 116.829407,175.768921 118.209854,177.613510 
	C119.845924,179.291626 121.481987,180.969757 123.398445,183.221527 
	C124.621246,184.030777 125.844048,184.840027 127.566864,186.344513 
	C128.505325,186.307144 129.443771,186.269775 130.634979,186.748962 
	C131.760712,187.147781 132.886459,187.546600 133.977478,188.708023 
	C134.458008,189.504272 134.775284,190.800659 135.444443,191.019104 
	C141.852844,193.111176 148.211258,195.602066 154.797943,196.843124 
	C163.995071,198.576019 173.383636,199.206116 182.517624,196.013107 
	C187.773514,194.175812 193.736542,193.615845 197.553680,187.592941 
	C207.779922,184.904709 213.635864,176.757187 219.772827,169.229492 
	C222.611755,165.747192 224.251785,161.244064 226.146454,157.072556 
	C226.519150,156.251999 225.565979,154.829239 225.224274,153.684219 
	C224.327332,154.414734 223.161285,154.976242 222.578522,155.904083 
	C219.531342,160.755600 217.177277,166.155029 213.549438,170.502014 
	C208.530884,176.515350 202.592117,181.760727 196.431168,186.888199 
	C193.679810,188.246536 190.956619,189.665863 188.172012,190.952240 
	C178.229935,195.545120 167.431732,197.334534 157.250381,194.210571 
	C148.208649,191.436249 140.118362,185.561066 131.300583,180.509293 
	C129.719070,178.687119 128.137543,176.864960 126.595451,174.540222 
	C125.718292,173.717438 124.841141,172.894653 123.799789,171.516800 
	C123.655273,171.388962 123.510757,171.261124 123.503029,170.615707 
	C122.982307,170.142273 122.461586,169.668839 121.617744,168.814285 
	C121.617744,168.814285 121.135704,168.682739 121.249901,168.061203 
	C121.072868,167.707428 120.895836,167.353638 121.004044,166.573441 
	C119.450890,162.542877 117.897728,158.512299 116.328873,153.757370 
	C115.944481,152.881134 115.560097,152.004913 115.281784,150.363892 
	C114.624237,147.749695 113.966698,145.135513 113.357323,141.984665 
	C113.228142,141.654312 113.098969,141.323975 113.209389,140.455185 
	C112.866638,138.622559 112.523888,136.789932 112.479897,134.339813 
	C112.386284,133.666687 112.292671,132.993576 112.655922,132.147079 
	C112.809189,131.422089 112.962448,130.697098 113.274567,129.434189 
	C113.149231,129.295471 113.023895,129.156738 112.776924,128.167923 
	C112.580711,126.489067 112.384506,124.810219 112.582047,122.480171 
	C112.608940,121.977753 112.635826,121.475342 113.073425,120.560760 
M236.749756,165.374237 
	C237.127182,165.980255 237.504608,166.586273 238.114426,167.860718 
	C238.866196,169.598251 239.617950,171.335770 239.901367,173.445267 
	C240.201523,174.404541 240.501663,175.363831 241.110504,176.715668 
	C241.110504,176.715668 241.588943,176.858856 241.782547,177.480850 
	C242.193100,178.307175 242.603668,179.133514 243.553604,180.388794 
	C245.541473,182.555588 247.529343,184.722366 249.682617,187.491852 
	C252.138580,189.262024 254.594543,191.032181 257.578156,193.334824 
	C266.533752,200.032074 289.121094,194.032578 298.585083,183.777252 
	C299.018738,182.838730 299.452362,181.900192 300.273590,180.629211 
	C300.502777,180.378387 300.731995,180.127563 301.521271,179.567459 
	C302.405121,176.996811 303.288971,174.426178 304.659729,171.374893 
	C304.865723,170.730698 305.071747,170.086517 305.742310,169.216873 
	C305.587189,168.328766 305.432098,167.440659 305.356842,165.924957 
	C305.314880,165.299728 305.272949,164.674484 305.599884,163.604858 
	C305.115173,162.651276 304.630432,161.697708 303.623291,160.160400 
	C299.406372,159.686081 298.045776,161.270798 298.354218,165.666962 
	C298.635376,169.674484 298.533630,173.708878 298.032318,178.260406 
	C295.012848,183.657806 290.812164,187.683105 284.351807,189.420944 
	C281.362762,190.134598 278.373688,190.848251 275.141174,191.403610 
	C274.931580,191.350327 274.753143,191.402771 274.087463,191.112640 
	C272.022858,190.159897 269.958282,189.207169 267.665222,187.747833 
	C267.217346,187.436401 266.769440,187.124954 266.110779,186.110901 
	C263.943115,181.716003 261.775452,177.321106 260.214447,172.423721 
	C260.144684,171.948715 260.074921,171.473694 259.945160,170.370758 
	C259.378510,169.762894 258.811890,169.155029 258.394684,168.135986 
	C258.405975,167.833664 258.327820,167.556564 258.727570,167.009811 
	C258.399261,164.696289 258.070953,162.382751 257.710815,159.366486 
	C257.627960,158.907654 257.545074,158.448807 257.913879,157.490677 
	C258.143127,156.621078 258.372406,155.751465 259.483368,154.846741 
	C267.337250,154.755142 275.191132,154.663544 283.871216,154.952026 
	C289.906128,154.560028 295.941071,154.168030 302.683960,153.693405 
	C305.985352,145.379349 304.358643,137.360718 301.323792,128.762817 
	C300.169220,126.858528 299.014648,124.954239 297.738922,122.378250 
	C296.812439,121.040794 295.885986,119.703339 294.677948,117.973190 
	C294.677948,117.973190 294.198608,117.912094 293.966675,117.383568 
	C293.299072,117.033028 292.631439,116.682480 291.660187,115.804596 
	C291.138184,115.523010 290.616211,115.241432 289.874695,114.430771 
	C289.237244,114.073006 288.599823,113.715248 287.609772,112.934753 
	C287.255981,112.877594 286.902222,112.820435 286.290802,112.325966 
	C285.511444,112.171036 284.732086,112.016106 283.344940,111.537170 
	C281.804382,111.229439 280.263794,110.921715 278.315735,110.187508 
	C277.177856,109.684906 276.040009,109.182304 274.106720,108.332520 
	C272.403931,108.556984 270.701111,108.781448 268.566620,108.773781 
	C267.841919,109.091766 267.117218,109.409752 265.667786,109.723991 
	C264.795654,110.112595 263.923523,110.501198 262.515106,110.746391 
	C261.914795,111.121658 261.314514,111.496925 260.007812,111.935654 
	C254.088379,115.508171 247.834747,118.699768 244.200470,125.865845 
	C243.691498,127.275192 243.182541,128.684540 242.105255,130.365234 
	C241.694214,130.824341 241.283157,131.283463 240.203766,132.002640 
	C240.060760,133.366226 239.917755,134.729797 239.349518,136.792648 
	C239.301895,137.878128 239.254272,138.963623 238.774887,140.528030 
	C238.605789,141.352859 238.436707,142.177673 237.800293,143.640289 
	C237.659637,145.452866 237.518982,147.265457 236.880524,149.689301 
	C236.679230,151.813370 236.477936,153.937454 235.767349,156.587540 
	C236.261368,159.403366 236.755402,162.219208 236.749756,165.374237 
z"/>
<path fill="#121315" opacity="1.000000" stroke="none" 
	d="
M424.018311,199.995605 
	C424.013702,133.976166 424.009094,67.956741 424.002258,1.468653 
	C425.330444,1.000000 426.660919,1.000000 427.995667,1.000000 
	C428.000000,67.020897 428.000000,133.041794 427.601532,199.531342 
	C426.141479,199.998550 425.079895,199.997086 424.018311,199.995605 
z"/>
<path fill="#0F1012" opacity="1.000000" stroke="none" 
	d="
M424.011322,200.464691 
	C425.079895,199.997086 426.141479,199.998550 427.601532,200.000000 
	C428.000000,217.020889 428.000000,234.041794 427.604919,251.532562 
	C426.159790,252.013306 425.109680,252.024170 424.059601,252.035034 
	C424.041199,235.001266 424.022766,217.967514 424.011322,200.464691 
z"/>
<path fill="#1B1B1B" opacity="1.000000" stroke="none" 
	d="
M424.046204,252.491974 
	C425.109680,252.024170 426.159790,252.013306 427.604919,252.001221 
	C428.000000,255.166672 427.648712,258.384186 428.097595,261.485870 
	C428.557404,264.663330 426.654388,263.951935 424.500000,264.000000 
	C424.010956,260.316315 424.021881,256.632599 424.046204,252.491974 
z"/>
<path fill="#EAEAEA" opacity="1.000000" stroke="none" 
	d="
M297.860077,123.049942 
	C299.014648,124.954239 300.169220,126.858528 301.190826,129.536316 
	C301.041412,133.542053 301.024963,136.774261 300.882690,140.053085 
	C300.835785,140.063644 300.914734,140.027588 301.361633,140.059113 
	C302.143188,140.945862 302.943542,141.783966 302.904510,142.580948 
	C302.721405,146.318848 302.307465,150.045410 301.975952,153.776031 
	C295.941071,154.168030 289.906128,154.560028 283.464417,154.425766 
	C283.024200,153.227921 282.990784,152.556335 283.304138,151.703278 
	C284.417084,148.831848 285.707581,146.158264 285.792206,143.447052 
	C285.866852,141.054657 284.595917,138.620270 283.942810,135.781067 
	C283.953522,134.510147 283.940552,133.662613 283.949493,132.445938 
	C283.356110,128.663864 282.515961,125.273026 282.177948,121.832855 
	C281.663513,116.597244 278.618195,113.671417 273.380249,113.864418 
	C269.841705,113.994812 265.315521,118.667580 263.684601,122.972740 
	C262.485840,126.137054 260.451263,128.984726 258.429077,131.964203 
	C257.108978,131.962891 256.148987,131.970886 255.032623,131.643845 
	C253.837265,130.546310 252.798325,129.783798 252.134796,128.892288 
	C253.502701,128.615585 254.495178,128.467896 255.487671,128.320190 
	C255.326324,127.562851 255.164978,126.805511 254.845551,125.773804 
	C253.807861,125.562202 252.928253,125.624954 251.726807,125.818329 
	C250.673492,126.509445 249.942062,127.069946 249.210617,127.630447 
	C249.818787,128.097900 250.426956,128.565353 250.815750,129.318085 
	C248.342239,131.944244 245.918976,134.143570 243.735870,136.534698 
	C239.773941,140.874130 241.038361,144.644623 241.961304,149.086716 
	C241.907379,149.202408 241.995987,149.441833 241.803955,149.685364 
	C241.743179,150.397797 241.874435,150.866684 241.964371,151.605469 
	C241.942932,152.237106 241.962799,152.598877 241.899811,153.210815 
	C241.523788,153.635757 241.230637,153.810562 240.782043,154.008362 
	C240.626602,154.031372 240.312378,154.035522 240.203613,153.848999 
	C239.883224,153.656876 239.671585,153.651260 239.459961,153.645645 
	C239.652222,153.835419 239.844482,154.025208 239.840363,154.405838 
	C239.121643,154.738022 238.599319,154.879364 238.058685,154.631561 
	C237.819702,152.520966 237.599014,150.799500 237.378326,149.078033 
	C237.518982,147.265457 237.659637,145.452866 238.293945,143.208862 
	C238.927292,141.867996 239.066971,140.958542 239.206650,140.049103 
	C239.254272,138.963623 239.301895,137.878128 239.858078,136.279297 
	C240.535126,134.424835 240.703629,133.083694 240.872116,131.742569 
	C241.283157,131.283463 241.694214,130.824341 242.702789,130.104645 
	C243.753754,128.363098 244.207169,126.882133 244.660583,125.401176 
	C247.834747,118.699768 254.088379,115.508171 260.638184,111.952866 
	C261.862823,111.609985 262.457092,111.249901 263.051392,110.889816 
	C263.923523,110.501198 264.795654,110.112595 266.389893,109.803894 
	C267.740784,109.591171 268.369537,109.298546 268.998322,109.005913 
	C270.701111,108.781448 272.403931,108.556984 274.671875,108.871506 
	C276.399078,109.811661 277.561157,110.212830 278.723236,110.613991 
	C280.263794,110.921715 281.804382,111.229439 283.887573,111.982994 
	C285.136292,112.540298 285.842346,112.651787 286.548431,112.763275 
	C286.902222,112.820435 287.255981,112.877594 287.848022,113.442352 
	C288.755554,114.286583 289.424896,114.623207 290.094208,114.959839 
	C290.616211,115.241432 291.138184,115.523010 291.874329,116.375580 
	C292.791870,117.268410 293.495239,117.590248 294.198608,117.912094 
	C294.198608,117.912094 294.677948,117.973190 294.866638,118.498276 
	C295.990265,120.365562 296.925171,121.707748 297.860077,123.049942 
M291.923950,138.892090 
	C291.924561,139.226837 291.925171,139.561584 292.117950,140.509995 
	C292.897400,140.293930 293.676819,140.077866 294.456268,139.861801 
	C293.974213,139.551483 293.492126,139.241165 292.968903,138.327591 
	C292.935364,138.128372 292.901794,137.929153 292.917694,137.350998 
	C292.917694,137.350998 293.074463,137.002487 293.011902,136.979797 
	C293.011902,136.979797 293.004700,137.045746 293.722198,136.952087 
	C295.196960,136.017136 296.788452,135.210068 298.058533,134.050873 
	C298.349945,133.784912 297.535950,132.307785 297.271393,130.912323 
	C297.162170,130.612946 297.063995,130.309982 297.444946,129.646866 
	C297.629364,129.098923 297.813812,128.550995 297.933075,127.425446 
	C297.286041,127.294769 296.639008,127.164101 295.409058,127.089287 
	C294.936951,127.392418 294.464844,127.695549 293.675049,128.180206 
	C293.614899,128.284943 293.478149,128.441513 293.507904,128.485458 
	C293.636780,128.675934 293.814240,128.833511 293.991882,129.543488 
	C293.991486,129.723740 293.991058,129.903976 293.977844,130.267227 
	C293.977844,130.267227 294.022827,130.445068 293.496490,130.869614 
	C293.318390,131.253952 293.140289,131.638290 293.018372,132.018463 
	C293.018372,132.018463 293.015656,131.962189 292.274475,131.758728 
	C291.177643,132.825424 290.080811,133.892105 288.992584,134.991150 
	C288.992584,134.991150 288.962982,134.975555 288.433472,134.576080 
	C288.509094,135.312805 288.584717,136.049530 289.394135,136.900360 
	C289.888000,136.923492 290.381866,136.946640 290.845306,137.675995 
	C291.219177,137.913879 291.593048,138.151779 291.923950,138.892090 
M291.670807,125.684998 
	C292.818298,124.930458 293.965759,124.175926 294.990448,123.502144 
	C292.700073,121.887932 291.114075,120.770172 289.498718,119.631714 
	C288.206909,121.134941 286.808716,122.761963 285.321381,124.492722 
	C285.930511,125.883850 286.538818,127.273064 287.423798,129.294159 
	C288.121460,127.912437 288.597961,126.968697 289.723663,126.003822 
	C290.157562,125.996040 290.591461,125.988258 291.670807,125.684998 
M288.973511,142.081589 
	C289.396515,142.534103 289.819489,142.986618 290.242493,143.439133 
	C290.458313,143.067688 290.674133,142.696228 290.889954,142.324783 
	C290.404755,142.151978 289.919586,141.979172 288.973511,142.081589 
M250.423645,124.535995 
	C250.169022,124.393745 249.923050,124.227692 249.652466,124.129379 
	C249.598480,124.109772 249.450470,124.348976 249.345810,124.468826 
	C249.595657,124.606064 249.845505,124.743301 250.423645,124.535995 
M298.475433,139.349014 
	C298.525787,139.153915 298.576141,138.958817 298.626495,138.763718 
	C298.502716,138.888992 298.378967,139.014267 298.475433,139.349014 
z"/>
<path fill="#F2F2F2" opacity="1.000000" stroke="none" 
	d="
M206.849060,143.645142 
	C206.849060,143.645142 206.855179,143.220810 207.378433,143.061279 
	C209.160172,140.039185 210.418655,137.176636 211.677124,134.314087 
	C211.754791,133.990982 211.832458,133.667892 212.417297,133.127441 
	C213.624451,131.933945 214.324448,130.957764 215.267899,130.182159 
	C218.110641,132.427475 217.011322,134.596939 215.819839,136.860947 
	C214.960358,138.494095 214.311874,140.238297 213.316986,142.160065 
	C212.710678,143.915222 212.356674,145.443268 211.658264,147.022339 
	C210.151871,148.022964 208.989883,148.972565 207.519043,149.977753 
	C206.508881,150.728958 205.807571,151.424561 204.976044,152.349640 
	C204.583298,153.032288 204.320786,153.485458 204.348755,154.254974 
	C205.473007,154.671616 206.306747,154.771912 207.140488,154.872223 
	C206.075592,155.882538 205.010681,156.892838 203.271744,157.980103 
	C202.054993,158.597916 201.512283,159.138763 200.969574,159.679611 
	C199.609573,160.487930 198.249588,161.296265 196.178528,162.079346 
	C194.640808,162.659698 193.814148,163.265274 192.987473,163.870850 
	C182.984024,165.973801 174.291611,164.224380 167.765884,154.782562 
	C165.954391,154.441833 164.393265,154.691208 162.868530,154.567505 
	C164.794907,148.830719 166.684906,143.467041 168.823364,138.050735 
	C169.119141,137.345673 169.166473,136.693222 169.193359,135.701294 
	C169.342041,134.945908 169.511154,134.529999 169.921478,134.058151 
	C170.173721,133.347061 170.184753,132.691940 170.199020,131.664917 
	C170.623322,129.870895 171.044373,128.448746 171.768768,127.098976 
	C173.497299,126.408066 176.241730,125.326553 176.146103,124.930138 
	C175.041138,120.349503 178.614990,119.723564 181.306854,118.416763 
	C183.742661,117.234276 186.268250,116.236717 189.019791,115.042343 
	C189.019791,116.449577 189.019791,117.746971 189.019791,119.044365 
	C188.973633,119.232178 188.927490,119.419983 188.293976,119.844620 
	C187.175079,122.133163 186.643539,124.184883 186.112000,126.236603 
	C186.111984,126.236603 186.087799,126.693153 185.557037,126.911942 
	C183.023315,135.707336 180.954910,144.269943 179.113342,152.881058 
	C178.917969,153.794617 180.052414,154.992569 180.569946,156.058578 
	C181.750031,157.588699 182.718857,159.363907 184.152588,160.599762 
	C187.512680,163.496109 190.836136,161.136093 194.913864,160.070007 
	C196.158371,158.779587 196.623230,157.548035 197.088104,156.316483 
	C197.336487,156.050888 197.584885,155.785278 198.256149,155.226608 
	C199.465103,154.080307 200.251190,153.227066 201.037262,152.373825 
	C201.287598,152.032272 201.537933,151.690720 202.394257,151.118027 
	C203.627487,149.500336 204.254745,148.113785 204.882004,146.727234 
	C204.920868,146.564819 204.959747,146.402390 205.536835,146.058411 
	C206.333054,145.132980 206.591049,144.389053 206.849060,143.645142 
M176.537399,148.124146 
	C176.581253,147.887314 176.625107,147.650497 176.668945,147.413666 
	C176.442322,147.605484 176.215698,147.797318 175.490036,148.006302 
	C175.324402,147.987595 175.158752,147.968887 175.106781,147.276428 
	C178.500854,143.264130 178.500854,143.264130 176.267029,140.534821 
	C176.277496,145.358429 169.197922,144.565430 170.467972,150.836609 
	C170.815796,152.554092 170.645828,154.347656 172.239304,154.694412 
	C173.930099,155.062363 175.883545,154.223373 177.722290,153.911484 
	C176.911041,152.596268 176.088226,151.287933 175.298065,149.960159 
	C175.134964,149.686127 175.093628,149.339630 175.542252,148.912430 
	C175.700195,148.613831 175.858124,148.315231 176.537399,148.124146 
M175.095703,139.218506 
	C175.169449,139.266129 175.243210,139.313751 175.316956,139.361374 
	C175.203583,139.231125 175.090210,139.100891 174.941360,138.362671 
	C175.452774,137.398651 175.964172,136.434631 176.475571,135.470612 
	C176.256012,135.148575 176.036438,134.826553 175.816879,134.504517 
	C174.093552,135.380249 172.370224,136.255966 170.646896,137.131683 
	C170.838898,137.653152 171.030884,138.174606 171.222885,138.696075 
	C172.471970,138.789734 173.721054,138.883392 175.095703,139.218506 
z"/>
<path fill="#E7E7E7" opacity="1.000000" stroke="none" 
	d="
M114.401245,114.548538 
	C114.068756,115.761673 113.736259,116.974808 113.006355,118.652664 
	C112.313553,119.743462 112.018158,120.369545 111.443100,121.034012 
	C111.123825,122.062241 111.084206,123.052086 111.042259,124.406601 
	C111.659477,126.186852 112.279022,127.602440 112.898560,129.018021 
	C113.023895,129.156738 113.149231,129.295471 112.913971,129.904785 
	C112.435265,131.023743 112.317162,131.672089 112.199059,132.320450 
	C112.292671,132.993576 112.386284,133.666687 112.045425,134.839600 
	C112.063911,137.224121 112.516853,139.108871 112.969795,140.993622 
	C113.098969,141.323975 113.228142,141.654312 113.229424,142.662262 
	C113.792923,145.936127 114.484314,148.532410 115.175713,151.128677 
	C115.560097,152.004913 115.944481,152.881134 116.218170,154.521179 
	C116.304840,157.214371 116.502197,159.143753 116.738480,161.453613 
	C115.190208,160.729218 113.902832,160.126877 112.287880,159.371277 
	C112.917030,162.294479 113.425346,164.656219 113.733795,167.123230 
	C113.283516,167.408661 113.088104,167.636093 112.724747,167.919891 
	C112.501793,167.929016 112.058266,167.978516 112.058266,167.978516 
	C108.520737,168.262573 109.560242,165.524078 109.456291,163.077713 
	C109.022316,160.963959 108.359482,159.464310 107.696640,157.964661 
	C107.548302,157.516479 107.399963,157.068283 107.447784,156.123199 
	C107.365753,155.073059 107.087555,154.519821 106.809341,153.966599 
	C105.947800,151.358566 104.434654,148.770981 104.352058,146.138504 
	C104.140190,139.386017 104.563736,132.613602 105.100037,125.203476 
	C105.430222,123.865982 105.393623,123.174171 105.357025,122.482353 
	C108.558189,107.128532 115.531189,93.981842 127.964172,84.075882 
	C132.782440,80.236946 137.558823,76.315292 142.643463,72.856430 
	C144.538574,71.567261 147.258713,71.490906 149.952667,71.781052 
	C140.924316,79.522079 129.088104,83.298698 122.456490,94.377380 
	C121.968689,95.053017 121.947960,95.418808 121.927231,95.784599 
	C121.918198,96.016617 121.909164,96.248642 121.373909,96.814651 
	C120.541611,98.026726 120.235542,98.904816 119.929459,99.782898 
	C119.256767,101.310387 118.584076,102.837883 117.342407,104.740387 
	C116.653427,105.927307 116.533432,106.739204 116.413437,107.551109 
	C116.113495,108.453812 115.813568,109.356506 115.038551,110.764114 
	C114.509392,112.362190 114.455322,113.455360 114.401245,114.548538 
M107.968155,150.415543 
	C109.064377,150.623718 110.160591,150.831879 111.256813,151.040054 
	C111.444862,149.791214 111.888741,148.501770 111.699974,147.312759 
	C111.620087,146.809555 109.590118,146.074875 109.501778,146.198639 
	C108.710236,147.307571 108.154045,148.584488 107.968155,150.415543 
M110.045250,141.618546 
	C109.091133,141.869934 108.137016,142.121323 107.182907,142.372711 
	C107.248955,142.892456 107.315010,143.412201 107.381058,143.931946 
	C108.630898,144.010910 109.880737,144.089890 111.130577,144.168854 
	C110.836662,143.506271 110.542740,142.843689 110.045250,141.618546 
M109.537575,125.862465 
	C108.992630,127.260002 108.447693,128.657547 107.902748,130.055099 
	C108.489334,130.179840 109.075920,130.304581 109.662506,130.429321 
	C109.743515,129.092789 109.824516,127.756256 109.537575,125.862465 
M113.647224,156.175461 
	C113.240250,155.517014 112.833282,154.858582 112.426308,154.200134 
	C112.016296,154.601242 111.606293,155.002350 111.196289,155.403458 
	C111.849022,155.822678 112.501762,156.241898 113.647224,156.175461 
z"/>
<path fill="#E7E7E7" opacity="1.000000" stroke="none" 
	d="
M162.832123,154.940598 
	C164.393265,154.691208 165.954391,154.441833 167.769775,154.417877 
	C166.498688,155.608719 164.765411,156.356277 163.485092,157.578400 
	C158.712601,162.133957 154.178192,166.633835 146.639099,166.160797 
	C141.832672,165.859238 138.028381,164.429565 135.259735,160.171600 
	C134.998718,159.099182 134.549301,158.550644 134.099869,158.002090 
	C132.949509,155.732819 131.799149,153.463547 130.715515,150.553146 
	C130.633896,149.289917 130.485580,148.667801 130.337250,148.045700 
	C130.442001,145.952896 130.546768,143.860077 131.029236,141.249847 
	C131.365189,139.833939 131.323441,138.935455 131.281693,138.036957 
	C131.348358,137.618896 131.415039,137.200821 131.894257,136.393768 
	C132.614105,135.318649 132.921417,134.632538 133.507950,133.906204 
	C133.799835,133.214340 133.812515,132.562729 133.881546,131.666473 
	C134.015045,131.273361 134.092194,131.124863 134.535248,130.981705 
	C136.234863,129.939880 137.568573,128.892685 139.176056,127.630554 
	C140.428223,127.401138 143.626343,127.413429 143.805161,126.684776 
	C144.915283,122.161018 148.270096,123.145760 151.251648,123.412506 
	C148.821823,133.534561 146.391739,143.267792 143.585724,153.001724 
	C142.457550,153.008072 141.705307,153.013718 140.595108,153.160400 
	C140.487717,154.714981 140.738297,156.128525 140.743469,157.704773 
	C141.138321,161.355698 143.309540,161.892441 146.616547,161.034119 
	C149.392944,161.344040 152.251755,162.359833 154.197525,161.441376 
	C157.387756,159.935471 159.984879,157.173080 162.832123,154.940598 
M143.544617,141.725616 
	C142.888824,141.678360 142.233017,141.631104 141.577225,141.583847 
	C141.575211,141.864349 141.573212,142.144852 141.571213,142.425354 
	C142.229233,142.396790 142.887238,142.368225 143.544617,141.725616 
M137.282654,146.464371 
	C137.011917,146.721207 136.741180,146.978043 136.470444,147.234863 
	C136.577423,147.346252 136.770859,147.560852 136.778915,147.554108 
	C137.064575,147.314911 137.332825,147.054932 137.282654,146.464371 
M139.538223,150.281876 
	C139.280319,150.010651 139.022415,149.739441 138.764511,149.468216 
	C138.652466,149.575333 138.436951,149.769424 138.443344,149.777023 
	C138.683746,150.063019 138.944565,150.331863 139.538223,150.281876 
M133.481232,142.097458 
	C133.287277,142.270477 133.093323,142.443497 132.899368,142.616516 
	C133.192429,142.690918 133.485504,142.765320 133.778564,142.839706 
	C133.819244,142.615601 133.859940,142.391495 133.481232,142.097458 
M134.426086,153.484268 
	C134.426086,153.484268 134.520355,153.431274 134.426086,153.484268 
z"/>
<path fill="#D7D7D7" opacity="1.000000" stroke="none" 
	d="
M189.334229,118.884064 
	C189.019791,117.746971 189.019791,116.449577 189.019791,115.042343 
	C186.268250,116.236717 183.742661,117.234276 181.306854,118.416763 
	C178.614990,119.723564 175.041138,120.349503 176.146103,124.930138 
	C176.241730,125.326553 173.497299,126.408066 171.686127,126.718826 
	C172.507278,121.611221 174.177200,117.015526 174.784439,112.283455 
	C175.332748,108.010750 174.718872,103.588905 174.913055,99.040466 
	C175.502808,98.485527 175.797012,98.122955 176.091217,97.760376 
	C178.628143,99.846428 181.255432,100.171959 184.263596,98.610184 
	C185.533966,97.950638 187.175919,97.659645 188.613449,97.752289 
	C190.662338,97.884331 193.528839,97.887558 194.459961,99.132301 
	C195.321793,100.284378 194.290604,103.049850 193.753220,105.011749 
	C192.493210,109.612038 191.029755,114.156624 189.334229,118.884064 
z"/>
<path fill="#F2F2F2" opacity="1.000000" stroke="none" 
	d="
M175.919617,97.485298 
	C175.797012,98.122955 175.502808,98.485527 174.529129,98.965942 
	C168.682327,99.359940 163.825012,100.029594 160.972061,105.348061 
	C159.511429,108.070961 157.366776,110.426949 155.204590,113.070976 
	C154.729248,114.039513 154.580627,114.885834 154.385010,116.062210 
	C153.309128,118.602737 152.280243,120.813210 151.251358,123.023682 
	C148.270096,123.145760 144.915283,122.161018 143.805161,126.684776 
	C143.626343,127.413429 140.428223,127.401138 139.176056,127.630554 
	C137.568573,128.892685 136.234863,129.939880 134.497971,130.686981 
	C134.018265,130.204285 133.941727,130.021652 133.865173,129.839005 
	C134.030197,129.472977 134.195236,129.106964 134.818695,128.357452 
	C135.393417,127.191940 135.509750,126.409943 135.626068,125.627945 
	C137.040161,122.608681 138.454269,119.589424 140.449387,116.261200 
	C141.310928,115.221840 141.591461,114.491440 141.871979,113.761047 
	C142.092087,113.275108 142.312195,112.789177 143.243561,112.434258 
	C144.670731,112.690086 145.386673,112.814919 146.444275,112.890564 
	C147.925217,111.823303 149.206833,110.923126 150.170563,109.759636 
	C151.637695,107.988419 152.884644,106.034805 154.527893,103.995468 
	C157.554443,101.221146 160.278168,98.610008 163.001907,95.998871 
	C163.176590,95.975609 163.351273,95.952339 164.085892,96.063507 
	C167.412689,96.140205 170.179581,96.082489 172.946457,96.024765 
	C173.880310,96.419914 174.814148,96.815063 175.919617,97.485298 
M149.487335,119.984627 
	C149.220749,120.118843 148.954163,120.253059 148.687561,120.387283 
	C149.138748,120.269073 149.589920,120.150864 150.309174,119.905075 
	C150.194839,119.922684 150.080505,119.940285 149.487335,119.984627 
M147.431839,116.997131 
	C146.943954,117.092354 146.456055,117.187576 145.968170,117.282799 
	C146.052795,117.506058 146.137421,117.729324 146.222046,117.952591 
	C146.812744,117.633583 147.403442,117.314575 148.256668,116.890465 
	C148.172714,116.929024 148.088760,116.967590 147.431839,116.997131 
z"/>
<path fill="#E5E5E5" opacity="1.000000" stroke="none" 
	d="
M197.139435,188.261948 
	C193.736542,193.615845 187.773514,194.175812 182.517624,196.013107 
	C173.383636,199.206116 163.995071,198.576019 154.797943,196.843124 
	C148.211258,195.602066 141.852844,193.111176 135.444443,191.019104 
	C134.775284,190.800659 134.458008,189.504272 133.870209,188.058655 
	C132.636032,187.016968 131.509140,186.624680 130.382233,186.232391 
	C129.443771,186.269775 128.505325,186.307144 127.562744,185.839203 
	C127.713020,185.215317 127.867424,185.096725 128.388870,184.974060 
	C129.502518,183.981415 130.249115,182.992844 131.160919,181.774658 
	C131.420105,181.381577 131.514099,181.218094 131.608109,181.054611 
	C140.118362,185.561066 148.208649,191.436249 157.250381,194.210571 
	C167.431732,197.334534 178.229935,195.545120 188.172012,190.952240 
	C190.956619,189.665863 193.679810,188.246536 196.707428,187.348785 
	C196.983704,187.809357 197.139435,188.261948 197.139435,188.261948 
z"/>
<path fill="#F2F2F2" opacity="1.000000" stroke="none" 
	d="
M211.392487,94.963531 
	C211.482681,93.588112 211.572876,92.212692 211.849243,90.154770 
	C212.647202,88.332802 213.258957,87.193321 213.870712,86.053841 
	C214.287476,86.390060 214.704239,86.726273 215.127777,87.695465 
	C214.949783,89.437057 214.765030,90.545670 214.494080,92.171478 
	C215.970016,91.567047 217.034409,91.131149 219.236420,90.229385 
	C218.977173,93.432159 218.778915,95.881416 218.620819,97.834717 
	C220.101517,98.728310 222.012268,99.881432 223.923019,101.034554 
	C224.158066,101.484734 224.393112,101.934914 224.192413,102.727951 
	C222.437805,104.191414 221.118942,105.312027 219.800079,106.432648 
	C220.018158,106.732368 220.236221,107.032089 220.454285,107.331818 
	C221.782578,106.953545 223.110870,106.575272 225.309219,105.949226 
	C222.503403,110.149162 220.243576,113.531822 217.983749,116.914482 
	C219.716446,117.383339 220.576385,116.999702 221.475327,116.766548 
	C224.668365,115.938370 226.518875,116.457130 225.060120,120.360229 
	C224.783554,121.100204 224.895142,121.985252 224.720001,123.165955 
	C224.078690,125.379692 223.545013,127.230843 222.985092,128.776978 
	C222.299744,128.299515 221.640640,128.127060 220.674393,128.024399 
	C218.577194,128.358398 216.787155,128.622620 215.059631,128.516998 
	C215.181320,125.792984 215.240479,123.438774 215.299637,121.084572 
	C215.306549,120.592705 215.313461,120.100838 215.860214,119.188141 
	C216.062500,113.120865 216.074371,107.421196 215.225922,101.852592 
	C214.854980,99.418076 212.724136,97.251686 211.392487,94.963531 
z"/>
<path fill="#EAEAEA" opacity="1.000000" stroke="none" 
	d="
M257.462219,157.989975 
	C257.545074,158.448807 257.627960,158.907654 257.507324,160.002914 
	C257.589264,162.861130 257.874756,165.082901 258.160248,167.304688 
	C258.327820,167.556564 258.405975,167.833664 258.228516,168.699539 
	C258.709961,169.841614 259.357574,170.420151 260.005157,170.998688 
	C260.074921,171.473694 260.144684,171.948715 259.591431,172.748962 
	C255.396500,173.932510 251.824631,174.790802 248.025101,175.703812 
	C246.638916,179.626907 249.876938,180.370865 252.681366,181.580658 
	C252.117813,183.058670 251.774078,184.237778 251.260193,185.684082 
	C250.565765,186.263916 250.041489,186.576538 249.517212,186.889160 
	C247.529343,184.722366 245.541473,182.555588 243.306946,179.852676 
	C242.569824,178.497330 242.079376,177.678101 241.588943,176.858856 
	C241.588943,176.858856 241.110504,176.715668 241.017166,176.180664 
	C240.739120,174.788193 240.554428,173.930740 240.369720,173.073288 
	C239.617950,171.335770 238.866196,169.598251 238.089172,167.225281 
	C238.104858,166.384094 238.145782,166.178345 238.611755,165.984894 
	C239.887054,166.013687 240.737289,166.030182 241.745972,166.321442 
	C241.892914,167.228882 241.881409,167.861572 242.020508,168.775757 
	C243.450500,170.041138 244.729889,171.025024 246.009262,172.008896 
	C246.460037,171.777313 246.910812,171.545731 247.361572,171.314148 
	C246.953674,169.799423 246.545761,168.284698 246.340897,166.454849 
	C249.203186,163.436844 251.862442,160.733948 254.802216,158.052338 
	C255.644318,158.071747 256.205902,158.069885 256.948547,158.114502 
	C257.129669,158.160950 257.462219,157.989975 257.462219,157.989975 
M246.530823,173.387650 
	C246.530823,173.387650 246.431580,173.549179 246.431580,173.549179 
	C246.431580,173.549179 246.635376,173.529938 246.530823,173.387650 
z"/>
<path fill="#CBCBCB" opacity="1.000000" stroke="none" 
	d="
M197.346558,187.927444 
	C197.139435,188.261948 196.983704,187.809357 197.015564,187.572174 
	C202.592117,181.760727 208.530884,176.515350 213.549438,170.502014 
	C217.177277,166.155029 219.531342,160.755600 222.578522,155.904083 
	C223.161285,154.976242 224.327332,154.414734 225.224274,153.684219 
	C225.565979,154.829239 226.519150,156.251999 226.146454,157.072556 
	C224.251785,161.244064 222.611755,165.747192 219.772827,169.229492 
	C213.635864,176.757187 207.779922,184.904709 197.346558,187.927444 
z"/>
<path fill="#D7D7D7" opacity="1.000000" stroke="none" 
	d="
M256.767456,158.068024 
	C256.205902,158.069885 255.644318,158.071747 254.762222,157.646179 
	C255.001587,152.988342 250.638260,153.907089 249.271484,151.912781 
	C250.078033,151.555466 250.593094,151.281998 251.442535,150.947052 
	C255.842529,147.489365 252.333771,144.788940 251.246277,141.689911 
	C256.196533,139.636703 253.004013,134.776321 255.189011,131.978882 
	C256.148987,131.970886 257.108978,131.962891 258.431702,132.390076 
	C258.103394,136.338760 257.748108,139.961792 256.645721,143.341125 
	C254.808472,148.973251 256.234894,151.071838 262.146057,151.145996 
	C269.085175,151.233032 276.020447,151.625031 282.957397,151.884766 
	C282.990784,152.556335 283.024200,153.227921 283.051300,154.235718 
	C275.191132,154.663544 267.337250,154.755142 258.728333,154.966064 
	C257.571350,156.079590 257.169403,157.073807 256.767456,158.068024 
z"/>
<path fill="#F2F2F2" opacity="1.000000" stroke="none" 
	d="
M297.980011,183.953659 
	C289.121094,194.032578 266.533752,200.032074 257.316895,192.694519 
	C257.046997,191.307556 257.038330,190.560913 257.443481,189.899078 
	C259.936493,189.983902 262.015686,189.983902 264.308838,189.983902 
	C263.592834,188.862778 263.031799,187.984344 262.952820,187.072037 
	C264.397095,186.963287 265.359314,186.888397 266.321564,186.813507 
	C266.769440,187.124954 267.217346,187.436401 267.769714,188.336899 
	C267.874207,190.054367 267.874207,191.182755 267.874207,192.079666 
	C270.097839,191.908325 272.351868,191.734650 274.605865,191.560974 
	C274.753143,191.402771 274.931580,191.350327 275.661560,191.635147 
	C279.062531,191.121719 281.943115,190.376755 284.823669,189.631775 
	C290.812164,187.683105 295.012848,183.657806 298.398865,178.511383 
	C298.825684,179.454788 298.885956,180.147217 298.801666,181.149231 
	C298.431427,182.290436 298.205719,183.122055 297.980011,183.953659 
z"/>
<path fill="#E7E7E7" opacity="1.000000" stroke="none" 
	d="
M167.005356,64.979736 
	C169.207947,64.847763 171.410522,64.715790 174.497223,64.742004 
	C176.349304,64.886963 177.317307,64.873734 178.285294,64.860512 
	C179.998276,65.444283 181.711273,66.028053 183.761993,66.970306 
	C184.697510,67.358238 185.295319,67.387703 185.893112,67.417160 
	C188.043823,68.043488 190.194550,68.669815 192.583206,69.790298 
	C192.895584,70.714661 192.970016,71.144867 193.044449,71.575066 
	C189.507584,70.905991 185.964661,70.266838 182.436584,69.554276 
	C180.850952,69.234024 179.294968,68.767067 177.233292,67.978775 
	C176.178543,67.663437 175.616013,67.736000 175.053497,67.808563 
	C167.217056,69.343880 159.360718,70.787270 151.557465,72.475922 
	C149.475754,72.926414 148.288528,73.062737 149.529205,70.175552 
	C152.259567,68.989510 154.142670,68.074715 156.025757,67.159912 
	C157.904480,66.667206 159.783188,66.174507 162.433075,65.792419 
	C164.471283,65.595268 165.738312,65.287498 167.005356,64.979736 
z"/>
<path fill="#CBCBCB" opacity="1.000000" stroke="none" 
	d="
M193.419617,71.559219 
	C192.970016,71.144867 192.895584,70.714661 192.852692,70.066559 
	C200.614136,73.926735 208.362869,77.980011 213.680328,85.770706 
	C213.258957,87.193321 212.647202,88.332802 211.982452,89.801941 
	C206.690216,84.473808 201.467865,78.800179 196.189987,73.178665 
	C195.543930,72.490547 194.600449,72.081665 193.419617,71.559219 
z"/>
<path fill="#C7C7C7" opacity="1.000000" stroke="none" 
	d="
M266.216187,186.462204 
	C265.359314,186.888397 264.397095,186.963287 262.732178,187.046478 
	C261.737366,186.886673 261.610901,186.635269 261.926697,186.105911 
	C261.491791,184.936935 260.780212,183.962585 259.794434,182.783813 
	C258.483276,181.234848 257.446350,179.890305 256.390961,178.521881 
	C254.892487,179.706955 253.896851,180.494370 252.901184,181.281769 
	C249.876938,180.370865 246.638916,179.626907 248.025101,175.703812 
	C251.824631,174.790802 255.396500,173.932510 259.288086,173.000214 
	C261.775452,177.321106 263.943115,181.716003 266.216187,186.462204 
z"/>
<path fill="#E5E5E5" opacity="1.000000" stroke="none" 
	d="
M298.946228,180.839630 
	C298.885956,180.147217 298.825684,179.454788 298.683014,178.246902 
	C298.533630,173.708878 298.635376,169.674484 298.354218,165.666962 
	C298.045776,161.270798 299.406372,159.686081 303.852051,160.826263 
	C304.464203,162.344498 304.847595,163.196884 305.231018,164.049255 
	C305.272949,164.674484 305.314880,165.299728 305.221558,166.717590 
	C305.150116,168.154251 305.213928,168.798294 305.277740,169.442322 
	C305.071747,170.086517 304.865723,170.730698 304.123047,171.762817 
	C302.711304,174.726089 301.836273,177.301422 300.961243,179.876740 
	C300.731995,180.127563 300.502777,180.378387 299.848083,180.740112 
	C299.422577,180.850998 298.946259,180.839630 298.946228,180.839630 
z"/>
<path fill="#CBCBCB" opacity="1.000000" stroke="none" 
	d="
M224.827637,122.803360 
	C224.895142,121.985252 224.783554,121.100204 225.060120,120.360229 
	C226.518875,116.457130 224.668365,115.938370 221.475327,116.766548 
	C220.576385,116.999702 219.716446,117.383339 217.983749,116.914482 
	C220.243576,113.531822 222.503403,110.149162 225.309219,105.949226 
	C223.110870,106.575272 221.782578,106.953545 220.454285,107.331818 
	C220.236221,107.032089 220.018158,106.732368 219.800079,106.432648 
	C221.118942,105.312027 222.437805,104.191414 224.068481,102.988556 
	C227.579819,109.183769 226.902542,115.682930 225.248764,122.552322 
	C225.012421,122.880211 224.827652,122.803360 224.827637,122.803360 
z"/>
<path fill="#B8B8B8" opacity="1.000000" stroke="none" 
	d="
M113.933662,167.017975 
	C113.425346,164.656219 112.917030,162.294479 112.287880,159.371277 
	C113.902832,160.126877 115.190208,160.729218 116.738480,161.453613 
	C116.502197,159.143753 116.304840,157.214371 116.226021,154.883362 
	C117.897728,158.512299 119.450890,162.542877 120.630417,166.938248 
	C120.200302,168.526749 120.143822,169.750458 120.024651,171.311554 
	C118.635406,171.436905 117.308853,171.224838 115.992104,170.661163 
	C115.312492,169.212357 114.623077,168.115173 113.933662,167.017975 
z"/>
<path fill="#E0E0E0" opacity="1.000000" stroke="none" 
	d="
M205.106262,152.120163 
	C205.807571,151.424561 206.508881,150.728958 207.595306,150.247925 
	C209.321182,149.298782 210.661926,148.135056 212.002670,146.971329 
	C212.356674,145.443268 212.710678,143.915222 213.454956,142.507339 
	C215.217377,140.986862 216.611374,139.363831 217.954559,137.699783 
	C218.961777,136.451935 219.903641,135.151306 220.929718,133.929260 
	C220.984818,133.984329 221.095230,134.094254 221.022141,134.463913 
	C220.375183,137.040482 219.801300,139.247391 219.227432,141.454300 
	C218.537247,142.813202 217.847076,144.172119 216.599915,145.776840 
	C215.687592,146.663895 215.332214,147.305130 214.976837,147.946381 
	C212.636185,150.290710 210.295502,152.635040 207.523102,154.680389 
	C207.013138,154.209137 206.934906,154.036865 206.845184,153.574738 
	C206.257874,152.896637 205.682068,152.508392 205.106262,152.120163 
z"/>
<path fill="#D7D7D7" opacity="1.000000" stroke="none" 
	d="
M180.587799,155.617126 
	C180.052414,154.992569 178.917969,153.794617 179.113342,152.881058 
	C180.954910,144.269943 183.023315,135.707336 185.370941,127.044693 
	C184.036011,135.214218 182.333740,143.465317 180.703720,151.730682 
	C180.484512,152.842224 180.629395,154.025558 180.587799,155.617126 
z"/>
<path fill="#D7D7D7" opacity="1.000000" stroke="none" 
	d="
M302.329956,153.734711 
	C302.307465,150.045410 302.721405,146.318848 302.904510,142.580948 
	C302.943542,141.783966 302.143188,140.945862 301.364746,140.063354 
	C301.000000,140.000000 301.008514,140.006485 301.008545,140.006485 
	C301.024963,136.774261 301.041412,133.542053 301.143707,129.871002 
	C304.358643,137.360718 305.985352,145.379349 302.329956,153.734711 
z"/>
<path fill="#E0E0E0" opacity="1.000000" stroke="none" 
	d="
M211.585876,95.274048 
	C212.724136,97.251686 214.854980,99.418076 215.225922,101.852592 
	C216.074371,107.421196 216.062500,113.120865 216.115173,118.912117 
	C215.362427,115.144913 213.502823,111.646515 214.092438,107.288795 
	C214.596939,103.559967 212.644821,99.498764 211.585876,95.274048 
z"/>
<path fill="#F2F2F2" opacity="1.000000" stroke="none" 
	d="
M241.587540,166.046677 
	C240.737289,166.030182 239.887054,166.013687 238.499268,165.779694 
	C237.839417,165.230881 237.601990,165.055145 237.249435,165.035034 
	C236.755402,162.219208 236.261368,159.403366 236.302155,156.328339 
	C237.250290,155.719666 237.663620,155.370163 238.076965,155.020691 
	C238.599319,154.879364 239.121643,154.738022 239.896820,154.341858 
	C240.149673,154.087021 240.312378,154.035522 240.312378,154.035522 
	C240.312378,154.035522 240.626602,154.031372 240.906113,154.309265 
	C241.007156,156.686829 240.828690,158.786469 240.395096,160.921631 
	C240.312225,161.675751 240.484497,162.394363 240.836914,163.457794 
	C241.207214,164.550644 241.397385,165.298660 241.587540,166.046677 
z"/>
<path fill="#CBCBCB" opacity="1.000000" stroke="none" 
	d="
M162.857132,95.852592 
	C160.278168,98.610008 157.554443,101.221146 154.449234,103.938995 
	C154.067764,104.045700 153.918076,103.922813 153.918808,103.479080 
	C153.759048,102.167152 153.598541,101.298943 153.438049,100.430740 
	C153.438049,100.430740 153.528915,100.561455 153.802139,100.618546 
	C154.360764,100.647232 154.646149,100.618828 154.931549,100.590416 
	C154.727676,100.285156 154.523804,99.979889 154.319946,99.674622 
	C156.306610,96.637100 159.036499,95.171432 162.857132,95.852592 
z"/>
<path fill="#CBCBCB" opacity="1.000000" stroke="none" 
	d="
M154.146423,104.102173 
	C152.884644,106.034805 151.637695,107.988419 150.170563,109.759636 
	C149.206833,110.923126 147.925217,111.823303 146.507019,112.587387 
	C145.291870,111.847961 144.355652,111.362526 143.419418,110.877090 
	C143.952057,109.987572 144.484695,109.098053 145.476303,108.420959 
	C146.274841,108.789833 146.614410,108.946289 146.953979,109.102737 
	C147.018845,108.834976 147.083694,108.567207 147.148560,108.299446 
	C146.725693,108.218277 146.302826,108.137108 145.879959,108.055939 
	C147.639465,105.971497 149.398987,103.887054 151.454422,102.054199 
	C151.208664,103.207626 150.666977,104.109482 149.777481,105.590431 
	C151.631592,104.843689 152.774841,104.383255 153.918076,103.922821 
	C153.918076,103.922813 154.067764,104.045700 154.146423,104.102173 
z"/>
<path fill="#E5E5E5" opacity="1.000000" stroke="none" 
	d="
M115.982300,171.012772 
	C117.308853,171.224838 118.635406,171.436905 120.262131,171.090958 
	C120.753441,169.916214 120.944580,169.299469 121.135712,168.682739 
	C121.135704,168.682739 121.617744,168.814285 121.738876,169.292511 
	C122.362083,170.224930 122.864159,170.679108 123.366234,171.133286 
	C123.510757,171.261124 123.655273,171.388962 123.865433,172.104675 
	C124.327339,173.413528 124.723610,174.134491 125.089760,174.891754 
	C125.059639,174.928040 124.999397,175.000595 124.616882,175.012909 
	C122.105576,175.702759 119.976784,176.380280 117.847992,177.057800 
	C116.829407,175.768921 115.810822,174.480072 114.925720,172.570129 
	C115.366905,171.636948 115.674599,171.324860 115.982300,171.012772 
z"/>
<path fill="#CBCBCB" opacity="1.000000" stroke="none" 
	d="
M223.806885,100.681473 
	C222.012268,99.881432 220.101517,98.728310 218.620819,97.834717 
	C218.778915,95.881416 218.977173,93.432159 219.236420,90.229385 
	C217.034409,91.131149 215.970016,91.567047 214.494080,92.171478 
	C214.765030,90.545670 214.949783,89.437057 215.181702,87.958130 
	C219.691147,88.268059 220.128799,92.254646 221.593018,95.376823 
	C222.353577,96.998589 222.995331,98.676079 223.806885,100.681473 
z"/>
<path fill="#E0E0E0" opacity="1.000000" stroke="none" 
	d="
M118.028923,177.335663 
	C119.976784,176.380280 122.105576,175.702759 124.624771,175.404602 
	C125.633926,178.417725 126.771965,181.195023 123.118057,182.647873 
	C121.481987,180.969757 119.845924,179.291626 118.028923,177.335663 
z"/>
<path fill="#E5E5E5" opacity="1.000000" stroke="none" 
	d="
M123.258255,182.934692 
	C126.771965,181.195023 125.633926,178.417725 125.007286,175.392273 
	C124.999397,175.000595 125.059639,174.928040 125.443481,174.976761 
	C126.070229,175.031250 126.313133,175.037018 126.556030,175.042786 
	C128.137543,176.864960 129.719070,178.687119 131.454346,180.781952 
	C131.514099,181.218094 131.420105,181.381577 130.793243,181.781403 
	C129.514206,183.004547 128.768005,183.991348 128.021820,184.978149 
	C127.867424,185.096725 127.713020,185.215317 127.312737,185.491577 
	C125.844048,184.840027 124.621246,184.030777 123.258255,182.934692 
z"/>
<path fill="#C7C7C7" opacity="1.000000" stroke="none" 
	d="
M257.029694,189.814255 
	C257.038330,190.560913 257.046997,191.307556 257.053101,192.428284 
	C254.594543,191.032181 252.138580,189.262024 249.599915,187.190506 
	C250.041489,186.576538 250.565765,186.263916 251.618744,185.733795 
	C253.774841,186.948929 255.402267,188.381592 257.029694,189.814255 
z"/>
<path fill="#D7D7D7" opacity="1.000000" stroke="none" 
	d="
M172.653809,95.887558 
	C170.179581,96.082489 167.412689,96.140205 164.346222,96.109451 
	C166.697739,92.231461 169.540970,94.345100 172.653809,95.887558 
z"/>
<path fill="#E0E0E0" opacity="1.000000" stroke="none" 
	d="
M215.059921,121.379776 
	C215.240479,123.438774 215.181320,125.792984 215.061050,128.791412 
	C215.008102,129.617630 215.016281,129.799606 215.024445,129.981598 
	C214.324448,130.957764 213.624451,131.933945 212.619171,132.969879 
	C213.149338,129.244751 213.984772,125.459869 215.059921,121.379776 
z"/>
<path fill="#C7C7C7" opacity="1.000000" stroke="none" 
	d="
M274.346680,191.336807 
	C272.351868,191.734650 270.097839,191.908325 267.874207,192.079666 
	C267.874207,191.182755 267.874207,190.054367 267.883942,188.590195 
	C269.958282,189.207169 272.022858,190.159897 274.346680,191.336807 
z"/>
<path fill="#C7C7C7" opacity="1.000000" stroke="none" 
	d="
M284.587738,189.526367 
	C281.943115,190.376755 279.062531,191.121719 275.783325,191.714294 
	C278.373688,190.848251 281.362762,190.134598 284.587738,189.526367 
z"/>
<path fill="#B8B8B8" opacity="1.000000" stroke="none" 
	d="
M301.241272,179.722107 
	C301.836273,177.301422 302.711304,174.726089 303.879608,172.003143 
	C303.288971,174.426178 302.405121,176.996811 301.241272,179.722107 
z"/>
<path fill="#E0E0E0" opacity="1.000000" stroke="none" 
	d="
M211.385864,134.517014 
	C210.418655,137.176636 209.160172,140.039185 207.566101,142.962250 
	C208.518524,140.255173 209.806549,137.487549 211.385864,134.517014 
z"/>
<path fill="#C3C3C3" opacity="1.000000" stroke="none" 
	d="
M224.720016,123.165955 
	C224.827652,122.803360 225.012421,122.880211 225.110413,122.900391 
	C224.721542,125.906639 224.234665,128.892700 223.384232,131.674927 
	C223.017563,130.674713 223.014450,129.878342 223.011322,129.081985 
	C223.545013,127.230843 224.078690,125.379692 224.720016,123.165955 
z"/>
<path fill="#B8B8B8" opacity="1.000000" stroke="none" 
	d="
M115.228745,150.746277 
	C114.484314,148.532410 113.792923,145.936127 113.205338,142.930588 
	C113.966698,145.135513 114.624237,147.749695 115.228745,150.746277 
z"/>
<path fill="#C7C7C7" opacity="1.000000" stroke="none" 
	d="
M258.443909,167.157257 
	C257.874756,165.082901 257.589264,162.861130 257.523224,160.354279 
	C258.070953,162.382751 258.399261,164.696289 258.443909,167.157257 
z"/>
<path fill="#CBCBCB" opacity="1.000000" stroke="none" 
	d="
M238.058685,154.631561 
	C237.663620,155.370163 237.250290,155.719666 236.556793,156.065338 
	C236.477936,153.937454 236.679230,151.813370 237.129425,149.383667 
	C237.599014,150.799500 237.819702,152.520966 238.058685,154.631561 
z"/>
<path fill="#C3C3C3" opacity="1.000000" stroke="none" 
	d="
M219.501053,141.243835 
	C219.801300,139.247391 220.375183,137.040482 221.218964,134.411041 
	C221.488876,133.988525 221.887726,133.893707 221.887726,133.893707 
	C221.887726,133.893707 222.295700,133.934372 222.295700,133.934372 
	C221.455353,136.300705 220.615005,138.667023 219.501053,141.243835 
z"/>
<path fill="#D7D7D7" opacity="1.000000" stroke="none" 
	d="
M186.412109,126.077255 
	C186.643539,124.184883 187.175079,122.133163 188.048553,119.999306 
	C187.831085,121.917419 187.271652,123.917664 186.412109,126.077255 
z"/>
<path fill="#B8B8B8" opacity="1.000000" stroke="none" 
	d="
M113.089592,140.724396 
	C112.516853,139.108871 112.063911,137.224121 111.896049,135.148346 
	C112.523888,136.789932 112.866638,138.622559 113.089592,140.724396 
z"/>
<path fill="#CBCBCB" opacity="1.000000" stroke="none" 
	d="
M155.660080,67.195160 
	C154.142670,68.074715 152.259567,68.989510 149.978210,69.860611 
	C151.484756,68.954750 153.389587,68.092583 155.660080,67.195160 
z"/>
<path fill="#E0E0E0" opacity="1.000000" stroke="none" 
	d="
M130.508606,186.490677 
	C131.509140,186.624680 132.636032,187.016968 133.887573,187.677353 
	C132.886459,187.546600 131.760712,187.147781 130.508606,186.490677 
z"/>
<path fill="#E0E0E0" opacity="1.000000" stroke="none" 
	d="
M222.531738,133.711151 
	C222.295700,133.934372 221.887726,133.893707 221.887726,133.893707 
	C221.887726,133.893707 221.488876,133.988525 221.292053,134.041382 
	C221.095230,134.094254 220.984818,133.984329 220.999710,133.582672 
	C221.003586,131.438889 220.992569,129.696747 220.981537,127.954605 
	C221.640640,128.127060 222.299744,128.299515 222.985077,128.776978 
	C223.014450,129.878342 223.017563,130.674713 223.082703,131.865540 
	C223.019058,132.669327 222.893417,133.078613 222.531738,133.711151 
z"/>
<path fill="#D7D7D7" opacity="1.000000" stroke="none" 
	d="
M297.799500,122.714096 
	C296.925171,121.707748 295.990265,120.365562 295.007446,118.694626 
	C295.885986,119.703339 296.812439,121.040794 297.799500,122.714096 
z"/>
<path fill="#E7E7E7" opacity="1.000000" stroke="none" 
	d="
M153.918808,103.479088 
	C152.774841,104.383255 151.631592,104.843689 149.777481,105.590431 
	C150.666977,104.109482 151.208664,103.207626 151.809021,101.988007 
	C152.218994,101.292419 152.570297,100.914589 153.179825,100.483749 
	C153.598541,101.298943 153.759048,102.167152 153.918808,103.479088 
z"/>
<path fill="#DBDBDB" opacity="1.000000" stroke="none" 
	d="
M107.615784,158.294647 
	C108.359482,159.464310 109.022316,160.963959 109.494263,162.680237 
	C108.713890,161.472794 108.124405,160.048706 107.615784,158.294647 
z"/>
<path fill="#E0E0E0" opacity="1.000000" stroke="none" 
	d="
M115.992096,170.661163 
	C115.674599,171.324860 115.366905,171.636948 114.920410,172.251465 
	C114.508789,172.347900 114.235962,172.141922 113.936874,171.309509 
	C113.589645,169.758972 113.268669,168.834885 112.947701,167.910782 
	C113.088104,167.636093 113.283516,167.408661 113.733795,167.123230 
	C114.623077,168.115173 115.312492,169.212357 115.992096,170.661163 
z"/>
<path fill="#B8B8B8" opacity="1.000000" stroke="none" 
	d="
M112.837738,128.592972 
	C112.279022,127.602440 111.659477,126.186852 111.202560,124.316223 
	C111.639565,123.617897 111.913925,123.374626 112.188293,123.131363 
	C112.384506,124.810219 112.580711,126.489067 112.837738,128.592972 
z"/>
<path fill="#E0E0E0" opacity="1.000000" stroke="none" 
	d="
M196.778625,156.508240 
	C196.623230,157.548035 196.158371,158.779587 195.330902,159.998962 
	C195.468567,158.891190 195.968857,157.795593 196.778625,156.508240 
z"/>
<path fill="#CBCBCB" opacity="1.000000" stroke="none" 
	d="
M240.537933,131.872604 
	C240.703629,133.083694 240.535126,134.424835 240.070709,135.929672 
	C239.917755,134.729797 240.060760,133.366226 240.537933,131.872604 
z"/>
<path fill="#CBCBCB" opacity="1.000000" stroke="none" 
	d="
M244.430527,125.633514 
	C244.207169,126.882133 243.753754,128.363098 242.986969,129.968964 
	C243.182541,128.684540 243.691498,127.275192 244.430527,125.633514 
z"/>
<path fill="#E0E0E0" opacity="1.000000" stroke="none" 
	d="
M204.575500,146.836700 
	C204.254745,148.113785 203.627487,149.500336 202.673340,150.960358 
	C202.987274,149.671265 203.628128,148.308716 204.575500,146.836700 
z"/>
<path fill="#DBDBDB" opacity="1.000000" stroke="none" 
	d="
M112.385170,122.805763 
	C111.913925,123.374626 111.639565,123.617897 111.204895,123.951553 
	C111.084206,123.052086 111.123825,122.062241 111.679855,121.074623 
	C112.196274,121.076851 112.662720,120.972923 112.662720,120.972923 
	C112.635826,121.475342 112.608940,121.977753 112.385170,122.805763 
z"/>
<path fill="#CBCBCB" opacity="1.000000" stroke="none" 
	d="
M166.711884,64.910934 
	C165.738312,65.287498 164.471283,65.595268 162.796753,65.795395 
	C163.732315,65.405876 165.075378,65.124008 166.711884,64.910934 
z"/>
<path fill="#D7D7D7" opacity="1.000000" stroke="none" 
	d="
M278.519470,110.400749 
	C277.561157,110.212830 276.399078,109.811661 275.069580,109.045105 
	C276.040009,109.182304 277.177856,109.684906 278.519470,110.400749 
z"/>
<path fill="#B8B8B8" opacity="1.000000" stroke="none" 
	d="
M126.575745,174.791504 
	C126.313133,175.037018 126.070229,175.031250 125.473602,174.940475 
	C124.723610,174.134491 124.327339,173.413528 123.947525,172.382202 
	C124.841141,172.894653 125.718292,173.717438 126.575745,174.791504 
z"/>
<path fill="#E0E0E0" opacity="1.000000" stroke="none" 
	d="
M200.724396,152.402008 
	C200.251190,153.227066 199.465103,154.080307 198.366943,154.976654 
	C198.840408,154.156570 199.625961,153.293396 200.724396,152.402008 
z"/>
<path fill="#CBCBCB" opacity="1.000000" stroke="none" 
	d="
M178.146210,64.615372 
	C177.317307,64.873734 176.349304,64.886963 174.903748,64.808960 
	C175.619812,64.601898 176.813477,64.486061 178.146210,64.615372 
z"/>
<path fill="#B8B8B8" opacity="1.000000" stroke="none" 
	d="
M305.415436,163.827057 
	C304.847595,163.196884 304.464203,162.344498 304.113251,161.118134 
	C304.630432,161.697708 305.115173,162.651276 305.415436,163.827057 
z"/>
<path fill="#C7C7C7" opacity="1.000000" stroke="none" 
	d="
M256.948547,158.114487 
	C257.169403,157.073807 257.571350,156.079590 258.287476,154.983612 
	C258.372406,155.751465 258.143127,156.621078 257.688049,157.740326 
	C257.462219,157.989975 257.129669,158.160950 256.948547,158.114487 
z"/>
<path fill="#E0E0E0" opacity="1.000000" stroke="none" 
	d="
M193.320984,163.887299 
	C193.814148,163.265274 194.640808,162.659698 195.822784,162.066345 
	C195.336899,162.686981 194.495697,163.295380 193.320984,163.887299 
z"/>
<path fill="#E0E0E0" opacity="1.000000" stroke="none" 
	d="
M121.192810,168.371979 
	C120.944580,169.299469 120.753441,169.916214 120.324829,170.753540 
	C120.143822,169.750458 120.200302,168.526749 120.487793,167.151459 
	C120.895836,167.353638 121.072868,167.707428 121.192810,168.371979 
z"/>
<path fill="#A0A0A0" opacity="1.000000" stroke="none" 
	d="
M131.066742,138.215347 
	C131.323441,138.935455 131.365189,139.833939 131.146255,140.875336 
	C130.874313,140.143387 130.863052,139.268570 131.066742,138.215347 
z"/>
<path fill="#B8B8B8" opacity="1.000000" stroke="none" 
	d="
M241.685745,177.169861 
	C242.079376,177.678101 242.569824,178.497330 243.037247,179.638199 
	C242.603668,179.133514 242.193100,178.307175 241.685745,177.169861 
z"/>
<path fill="#B8B8B8" opacity="1.000000" stroke="none" 
	d="
M240.135559,173.259277 
	C240.554428,173.930740 240.739120,174.788193 240.862823,175.984375 
	C240.501663,175.363831 240.201523,174.404541 240.135559,173.259277 
z"/>
<path fill="#F2F2F2" opacity="1.000000" stroke="none" 
	d="
M133.825195,131.911102 
	C133.812515,132.562729 133.799835,133.214340 133.295639,133.813019 
	C132.804123,133.760086 132.399429,133.985428 132.399429,133.985428 
	C132.451736,133.590744 132.504028,133.196060 132.867432,132.549057 
	C133.368881,132.125900 133.584427,131.997360 133.825195,131.911102 
z"/>
<path fill="#B8B8B8" opacity="1.000000" stroke="none" 
	d="
M114.652122,114.329590 
	C114.455322,113.455360 114.509392,112.362190 114.834000,111.064407 
	C115.037354,111.943413 114.970177,113.027023 114.652122,114.329590 
z"/>
<path fill="#CBCBCB" opacity="1.000000" stroke="none" 
	d="
M238.990768,140.288574 
	C239.066971,140.958542 238.927292,141.867996 238.527603,142.889969 
	C238.436707,142.177673 238.605789,141.352859 238.990768,140.288574 
z"/>
<path fill="#B8B8B8" opacity="1.000000" stroke="none" 
	d="
M298.801697,181.149231 
	C298.946259,180.839630 299.422577,180.850998 299.654297,180.906342 
	C299.452362,181.900192 299.018738,182.838730 298.282532,183.865448 
	C298.205719,183.122055 298.431427,182.290436 298.801697,181.149231 
z"/>
<path fill="#DBDBDB" opacity="1.000000" stroke="none" 
	d="
M120.210526,99.707520 
	C120.235542,98.904816 120.541611,98.026726 121.123375,97.056610 
	C121.096565,97.853760 120.794075,98.742950 120.210526,99.707520 
z"/>
<path fill="#E7E7E7" opacity="1.000000" stroke="none" 
	d="
M143.268036,111.029694 
	C144.355652,111.362526 145.291870,111.847961 146.165359,112.636574 
	C145.386673,112.814919 144.670731,112.690086 143.477142,112.293068 
	C142.980148,111.733215 143.019211,111.453697 143.268036,111.029694 
z"/>
<path fill="#DBDBDB" opacity="1.000000" stroke="none" 
	d="
M112.724747,167.919891 
	C113.268669,168.834885 113.589645,169.758972 113.884285,171.051727 
	C113.345001,170.474869 112.832047,169.529388 112.188675,168.281204 
	C112.058266,167.978516 112.501793,167.929016 112.724747,167.919891 
z"/>
<path fill="#C7C7C7" opacity="1.000000" stroke="none" 
	d="
M259.975159,170.684723 
	C259.357574,170.420151 258.709961,169.841614 258.153809,168.905121 
	C258.811890,169.155029 259.378510,169.762894 259.975159,170.684723 
z"/>
<path fill="#B8B8B8" opacity="1.000000" stroke="none" 
	d="
M123.434631,170.874496 
	C122.864159,170.679108 122.362083,170.224930 121.900436,169.483063 
	C122.461586,169.668839 122.982307,170.142273 123.434631,170.874496 
z"/>
<path fill="#EAEAEA" opacity="1.000000" stroke="none" 
	d="
M134.042511,158.290314 
	C134.549301,158.550644 134.998718,159.099182 135.235352,159.819305 
	C134.676743,159.520096 134.330948,159.049301 134.042511,158.290314 
z"/>
<path fill="#E0E0E0" opacity="1.000000" stroke="none" 
	d="
M201.261047,159.659790 
	C201.512283,159.138763 202.054993,158.597916 202.915833,158.079376 
	C202.673492,158.614441 202.113007,159.127197 201.261047,159.659790 
z"/>
<path fill="#B8B8B8" opacity="1.000000" stroke="none" 
	d="
M305.510010,169.329590 
	C305.213928,168.798294 305.150116,168.154251 305.181641,167.031387 
	C305.432098,167.440659 305.587189,168.328766 305.510010,169.329590 
z"/>
<path fill="#DBDBDB" opacity="1.000000" stroke="none" 
	d="
M175.204742,67.955803 
	C175.616013,67.736000 176.178543,67.663437 176.874084,67.805481 
	C176.456726,68.047745 175.906372,68.075394 175.204742,67.955803 
z"/>
<path fill="#B8B8B8" opacity="1.000000" stroke="none" 
	d="
M236.999603,165.204636 
	C237.601990,165.055145 237.839417,165.230881 238.074219,165.767410 
	C238.145782,166.178345 238.104858,166.384094 237.972992,166.891052 
	C237.504608,166.586273 237.127182,165.980255 236.999603,165.204636 
z"/>
<path fill="#DBDBDB" opacity="1.000000" stroke="none" 
	d="
M122.072449,95.629951 
	C121.947960,95.418808 121.968689,95.053017 122.091949,94.539993 
	C122.346458,94.427322 122.498444,94.461876 122.650429,94.496437 
	C122.506172,94.822723 122.361923,95.149010 122.072449,95.629951 
z"/>
<path fill="#CBCBCB" opacity="1.000000" stroke="none" 
	d="
M185.710388,67.213470 
	C185.295319,67.387703 184.697510,67.358238 184.011932,67.130188 
	C184.458649,66.957649 184.993149,66.983711 185.710388,67.213470 
z"/>
<path fill="#DBDBDB" opacity="1.000000" stroke="none" 
	d="
M106.682907,154.221802 
	C107.087555,154.519821 107.365753,155.073059 107.468468,155.763870 
	C107.047478,155.426636 106.801971,154.951828 106.682907,154.221802 
z"/>
<path fill="#D7D7D7" opacity="1.000000" stroke="none" 
	d="
M262.783264,110.818100 
	C262.457092,111.249901 261.862823,111.609985 260.991364,111.921135 
	C261.314514,111.496925 261.914795,111.121658 262.783264,110.818100 
z"/>
<path fill="#A0A0A0" opacity="1.000000" stroke="none" 
	d="
M132.147369,134.189240 
	C132.399429,133.985428 132.804123,133.760086 133.016434,133.853271 
	C132.921417,134.632538 132.614105,135.318649 132.043854,136.111084 
	C131.819046,135.609299 131.857178,135.001160 132.147369,134.189240 
z"/>
<path fill="#D7D7D7" opacity="1.000000" stroke="none" 
	d="
M286.419617,112.544617 
	C285.842346,112.651787 285.136292,112.540298 284.191467,112.144989 
	C284.732086,112.016106 285.511444,112.171036 286.419617,112.544617 
z"/>
<path fill="#A0A0A0" opacity="1.000000" stroke="none" 
	d="
M133.881546,131.666473 
	C133.584427,131.997360 133.368881,132.125900 132.989380,132.274780 
	C132.961197,131.515472 133.122131,130.778122 133.574127,129.939880 
	C133.941727,130.021652 134.018265,130.204285 134.132080,130.681625 
	C134.092194,131.124863 134.015045,131.273361 133.881546,131.666473 
z"/>
<path fill="#B8B8B8" opacity="1.000000" stroke="none" 
	d="
M112.427490,132.233765 
	C112.317162,131.672089 112.435265,131.023743 112.834541,130.173737 
	C112.962448,130.697098 112.809189,131.422089 112.427490,132.233765 
z"/>
<path fill="#D7D7D7" opacity="1.000000" stroke="none" 
	d="
M289.984436,114.695305 
	C289.424896,114.623207 288.755554,114.286583 288.024292,113.653717 
	C288.599823,113.715248 289.237244,114.073006 289.984436,114.695305 
z"/>
<path fill="#CBCBCB" opacity="1.000000" stroke="none" 
	d="
M141.594452,113.871216 
	C141.591461,114.491440 141.310928,115.221840 140.718079,116.016266 
	C140.709473,115.380653 141.013199,114.681023 141.594452,113.871216 
z"/>
<path fill="#A0A0A0" opacity="1.000000" stroke="none" 
	d="
M135.360291,125.791481 
	C135.509750,126.409943 135.393417,127.191940 134.984985,128.105301 
	C134.826767,127.476112 134.960648,126.715569 135.360291,125.791481 
z"/>
<path fill="#A0A0A0" opacity="1.000000" stroke="none" 
	d="
M105.148857,122.626648 
	C105.393623,123.174171 105.430222,123.865982 105.179024,124.787994 
	C104.907715,124.269104 104.924202,123.520020 105.148857,122.626648 
z"/>
<path fill="#B8B8B8" opacity="1.000000" stroke="none" 
	d="
M112.868073,120.766846 
	C112.662720,120.972923 112.196274,121.076851 111.959518,121.036240 
	C112.018158,120.369545 112.313553,119.743462 112.837006,118.990845 
	C113.067856,119.429794 113.070641,119.995277 112.868073,120.766846 
z"/>
<path fill="#D7D7D7" opacity="1.000000" stroke="none" 
	d="
M294.082642,117.647827 
	C293.495239,117.590248 292.791870,117.268410 292.026184,116.639252 
	C292.631439,116.682480 293.299072,117.033028 294.082642,117.647827 
z"/>
<path fill="#B8B8B8" opacity="1.000000" stroke="none" 
	d="
M116.645538,107.362778 
	C116.533432,106.739204 116.653427,105.927307 117.085350,104.992485 
	C117.224060,105.637856 117.050850,106.406151 116.645538,107.362778 
z"/>
<path fill="#A0A0A0" opacity="1.000000" stroke="none" 
	d="
M130.121704,148.167801 
	C130.485580,148.667801 130.633896,149.289917 130.615570,150.204102 
	C130.267990,149.760742 130.087082,149.025330 130.121704,148.167801 
z"/>
<path fill="#C3C3C3" opacity="1.000000" stroke="none" 
	d="
M215.242493,147.862305 
	C215.332214,147.305130 215.687592,146.663895 216.336914,145.980438 
	C216.256622,146.551559 215.882385,147.164886 215.242493,147.862305 
z"/>
<path fill="#E0E0E0" opacity="1.000000" stroke="none" 
	d="
M206.579041,143.766937 
	C206.591049,144.389053 206.333054,145.132980 205.767303,145.960175 
	C205.742706,145.325226 206.025879,144.606995 206.579041,143.766937 
z"/>
<path fill="#D7D7D7" opacity="1.000000" stroke="none" 
	d="
M268.782471,108.889847 
	C268.369537,109.298546 267.740784,109.591171 266.752258,109.805771 
	C267.117218,109.409752 267.841919,109.091766 268.782471,108.889847 
z"/>
<path fill="#E7E7E7" opacity="1.000000" stroke="none" 
	d="
M145.904419,108.074341 
	C146.302826,108.137108 146.725693,108.218277 147.148560,108.299446 
	C147.083694,108.567207 147.018845,108.834976 146.953979,109.102737 
	C146.614410,108.946289 146.274841,108.789833 145.867401,108.316940 
	C145.799515,108.000488 145.928879,108.092735 145.904419,108.074341 
z"/>
<path fill="#E0E0E0" opacity="1.000000" stroke="none" 
	d="
M207.106384,154.863663 
	C206.306747,154.771912 205.473007,154.671616 204.699478,154.282013 
	C205.458694,153.950027 206.157684,153.907318 206.856689,153.864624 
	C206.934906,154.036865 207.013138,154.209137 207.141586,154.662964 
	C207.191788,154.944519 207.072266,154.855103 207.106384,154.863663 
z"/>
<path fill="#E7E7E7" opacity="1.000000" stroke="none" 
	d="
M154.127914,99.720261 
	C154.523804,99.979889 154.727676,100.285156 154.931549,100.590416 
	C154.646149,100.618828 154.360764,100.647232 153.796249,100.539169 
	C153.545364,100.117256 153.684937,99.904991 154.127914,99.720261 
z"/>
<path fill="#090909" opacity="1.000000" stroke="none" 
	d="
M283.304138,151.703278 
	C276.020447,151.625031 269.085175,151.233032 262.146057,151.145996 
	C256.234894,151.071838 254.808472,148.973251 256.645721,143.341125 
	C257.748108,139.961792 258.103394,136.338760 258.791809,132.399384 
	C260.451263,128.984726 262.485840,126.137054 263.684601,122.972740 
	C265.315521,118.667580 269.841705,113.994812 273.380249,113.864418 
	C278.618195,113.671417 281.663513,116.597244 282.177948,121.832855 
	C282.515961,125.273026 283.356110,128.663864 283.676788,132.581543 
	C283.561188,134.125671 283.740143,135.165054 283.919128,136.204437 
	C284.595917,138.620270 285.866852,141.054657 285.792206,143.447052 
	C285.707581,146.158264 284.417084,148.831848 283.304138,151.703278 
z"/>
<path fill="#1B1B1B" opacity="1.000000" stroke="none" 
	d="
M240.650238,160.886124 
	C240.828690,158.786469 241.007156,156.686829 241.061554,154.286255 
	C241.230637,153.810562 241.523788,153.635757 242.213242,153.264374 
	C243.621292,153.326660 244.633041,153.585556 245.987671,153.868256 
	C247.213699,153.260239 248.096848,152.628448 248.979980,151.996643 
	C250.638260,153.907089 255.001587,152.988342 254.481689,157.624908 
	C251.862442,160.733948 249.203186,163.436844 246.033051,166.571686 
	C244.304764,167.500519 243.087326,167.997391 241.869904,168.494247 
	C241.881409,167.861572 241.892914,167.228882 241.745972,166.321442 
	C241.397385,165.298660 241.207214,164.550644 240.882782,163.087494 
	C240.715759,161.876938 240.682999,161.381531 240.650238,160.886124 
z"/>
<path fill="#1B1B1B" opacity="1.000000" stroke="none" 
	d="
M255.032623,131.643845 
	C253.004013,134.776321 256.196533,139.636703 250.882446,141.717773 
	C247.179062,143.280273 243.587112,144.090317 243.884979,148.639893 
	C243.889526,148.709167 242.665771,148.858856 242.015244,148.971024 
	C241.038361,144.644623 239.773941,140.874130 243.735870,136.534698 
	C245.918976,134.143570 248.342239,131.944244 250.997528,129.360489 
	C251.398682,129.117615 251.759369,129.021301 251.759369,129.021301 
	C252.798325,129.783798 253.837265,130.546310 255.032623,131.643845 
z"/>
<path fill="#CBCBCB" opacity="1.000000" stroke="none" 
	d="
M241.961304,149.086716 
	C242.665771,148.858856 243.889526,148.709167 243.884979,148.639893 
	C243.587112,144.090317 247.179062,143.280273 250.587097,141.921066 
	C252.333771,144.788940 255.842529,147.489365 251.293274,150.569138 
	C249.916641,149.662018 249.023651,149.071320 247.902252,148.320160 
	C246.774399,148.301865 245.874985,148.444000 244.975555,148.586151 
	C245.271454,149.386566 245.567352,150.186981 245.930008,151.353394 
	C245.879440,152.427750 245.762131,153.136108 245.644806,153.844452 
	C244.633041,153.585556 243.621292,153.326660 242.296097,153.014206 
	C241.962799,152.598877 241.942932,152.237106 242.045441,151.131409 
	C242.110535,150.072266 242.053253,149.757050 241.995987,149.441833 
	C241.995987,149.441833 241.907379,149.202408 241.961304,149.086716 
z"/>
<path fill="#D7D7D7" opacity="1.000000" stroke="none" 
	d="
M289.074463,126.024948 
	C288.597961,126.968697 288.121460,127.912437 287.423798,129.294159 
	C286.538818,127.273064 285.930511,125.883850 285.321381,124.492722 
	C286.808716,122.761963 288.206909,121.134941 289.498718,119.631714 
	C291.114075,120.770172 292.700073,121.887932 294.990448,123.502144 
	C293.965759,124.175926 292.818298,124.930458 291.296631,125.542900 
	C290.599426,125.092453 290.276367,124.784103 289.953339,124.475754 
	C289.660370,124.992149 289.367401,125.508545 289.074463,126.024948 
z"/>
<path fill="#282828" opacity="1.000000" stroke="none" 
	d="
M297.230682,131.388031 
	C297.535950,132.307785 298.349945,133.784912 298.058533,134.050873 
	C296.788452,135.210068 295.196960,136.017136 293.094574,136.725403 
	C293.427124,135.126221 294.387299,133.753723 295.715149,132.329529 
	C296.465424,131.981232 296.848053,131.684631 297.230682,131.388031 
z"/>
<path fill="#E0E0E0" opacity="1.000000" stroke="none" 
	d="
M295.347473,132.381226 
	C294.387299,133.753723 293.427124,135.126221 292.735840,136.772247 
	C293.004700,137.045746 293.011902,136.979797 292.749084,136.673172 
	C291.949432,136.567627 291.412598,136.768707 290.875732,136.969788 
	C290.381866,136.946640 289.888000,136.923492 289.163361,136.548340 
	C288.942719,135.789398 288.952850,135.382477 288.963013,134.975555 
	C288.962982,134.975555 288.992584,134.991150 289.334045,135.056732 
	C290.788910,134.068954 291.902283,133.015579 293.015656,131.962189 
	C293.015656,131.962189 293.018372,132.018463 293.342438,131.914429 
	C293.785278,131.355286 293.904053,130.900177 294.022827,130.445068 
	C294.022827,130.445068 293.977844,130.267227 294.125366,130.148590 
	C294.272888,130.029938 294.555328,129.979309 294.636719,130.395081 
	C294.927856,131.334305 295.137665,131.857758 295.347473,132.381226 
z"/>
<path fill="#868686" opacity="1.000000" stroke="none" 
	d="
M252.134796,128.892288 
	C251.759369,129.021301 251.398682,129.117615 251.216904,129.075211 
	C250.426956,128.565353 249.818787,128.097900 249.210617,127.630447 
	C249.942062,127.069946 250.673492,126.509445 251.838531,126.137970 
	C253.182648,126.234055 254.093140,126.141113 255.003632,126.048172 
	C255.164978,126.805511 255.326324,127.562851 255.487671,128.320190 
	C254.495178,128.467896 253.502701,128.615585 252.134796,128.892288 
z"/>
<path fill="#D7D7D7" opacity="1.000000" stroke="none" 
	d="
M294.555328,129.979309 
	C294.555328,129.979309 294.272888,130.029938 294.131775,130.057083 
	C293.991058,129.903976 293.991486,129.723740 293.987305,129.022186 
	C293.986053,128.333496 293.989410,128.166092 293.992737,127.998680 
	C294.464844,127.695549 294.936951,127.392418 295.881042,127.290588 
	C296.901398,127.662285 297.449829,127.832672 297.998230,128.003052 
	C297.813812,128.550995 297.629364,129.098923 296.808929,129.789703 
	C295.633728,129.948151 295.094513,129.963730 294.555328,129.979309 
z"/>
<path fill="#868686" opacity="1.000000" stroke="none" 
	d="
M292.645081,131.860474 
	C291.902283,133.015579 290.788910,134.068954 289.329742,135.040558 
	C290.080811,133.892105 291.177643,132.825424 292.645081,131.860474 
z"/>
<path fill="#C3C3C3" opacity="1.000000" stroke="none" 
	d="
M254.845551,125.773804 
	C254.093140,126.141113 253.182648,126.234055 252.160400,126.007355 
	C252.928253,125.624954 253.807861,125.562202 254.845551,125.773804 
z"/>
<path fill="#E5E5E5" opacity="1.000000" stroke="none" 
	d="
M283.942810,135.781067 
	C283.740143,135.165054 283.561188,134.125671 283.654907,132.950684 
	C283.940552,133.662613 283.953522,134.510147 283.942810,135.781067 
z"/>
<path fill="#C3C3C3" opacity="1.000000" stroke="none" 
	d="
M289.203949,141.943985 
	C289.919586,141.979172 290.404755,142.151978 290.889954,142.324783 
	C290.674133,142.696228 290.458313,143.067688 290.242493,143.439133 
	C289.819489,142.986618 289.396515,142.534103 289.203949,141.943985 
z"/>
<path fill="#A0A0A0" opacity="1.000000" stroke="none" 
	d="
M294.636719,130.395081 
	C295.094513,129.963730 295.633728,129.948151 296.574890,129.967987 
	C297.063995,130.309982 297.162170,130.612946 297.251038,131.150177 
	C296.848053,131.684631 296.465424,131.981232 295.715149,132.329514 
	C295.137665,131.857758 294.927856,131.334305 294.636719,130.395081 
z"/>
<path fill="#868686" opacity="1.000000" stroke="none" 
	d="
M288.698242,134.775818 
	C288.952850,135.382477 288.942719,135.789398 288.796448,136.491302 
	C288.584717,136.049530 288.509094,135.312805 288.698242,134.775818 
z"/>
<path fill="#E5E5E5" opacity="1.000000" stroke="none" 
	d="
M297.965637,127.714249 
	C297.449829,127.832672 296.901398,127.662285 296.172485,127.262665 
	C296.639008,127.164101 297.286041,127.294769 297.965637,127.714249 
z"/>
<path fill="#E5E5E5" opacity="1.000000" stroke="none" 
	d="
M289.399048,126.014381 
	C289.367401,125.508545 289.660370,124.992149 289.953339,124.475754 
	C290.276367,124.784103 290.599426,125.092453 290.973907,125.690643 
	C290.591461,125.988258 290.157562,125.996040 289.399048,126.014381 
z"/>
<path fill="#C3C3C3" opacity="1.000000" stroke="none" 
	d="
M293.010071,138.930847 
	C293.492126,139.241165 293.974213,139.551483 294.456268,139.861801 
	C293.676819,140.077866 292.897400,140.293930 292.261444,140.117401 
	C292.606659,139.460159 292.808350,139.195496 293.010071,138.930847 
z"/>
<path fill="#282828" opacity="1.000000" stroke="none" 
	d="
M290.860535,137.322891 
	C291.412598,136.768707 291.949432,136.567627 292.780396,136.684509 
	C293.074463,137.002487 292.917694,137.350998 292.619446,137.639572 
	C292.203094,138.082001 292.084991,138.235840 291.966919,138.389679 
	C291.593048,138.151779 291.219177,137.913879 290.860535,137.322891 
z"/>
<path fill="#D7D7D7" opacity="1.000000" stroke="none" 
	d="
M291.945435,138.640884 
	C292.084991,138.235840 292.203094,138.082001 292.594727,137.829041 
	C292.901794,137.929153 292.935364,138.128372 292.989502,138.629211 
	C292.808350,139.195496 292.606659,139.460159 292.165375,139.810577 
	C291.925171,139.561584 291.924561,139.226837 291.945435,138.640884 
z"/>
<path fill="#C3C3C3" opacity="1.000000" stroke="none" 
	d="
M250.259491,124.708267 
	C249.845505,124.743301 249.595657,124.606064 249.345810,124.468826 
	C249.450470,124.348976 249.598480,124.109772 249.652466,124.129379 
	C249.923050,124.227692 250.169022,124.393745 250.259491,124.708267 
z"/>
<path fill="#D7D7D7" opacity="1.000000" stroke="none" 
	d="
M298.365326,139.244278 
	C298.378967,139.014267 298.502716,138.888992 298.626495,138.763718 
	C298.576141,138.958817 298.525787,139.153915 298.365326,139.244278 
z"/>
<path fill="#868686" opacity="1.000000" stroke="none" 
	d="
M241.803955,149.685364 
	C242.053253,149.757050 242.110535,150.072266 242.086746,150.861542 
	C241.874435,150.866684 241.743179,150.397797 241.803955,149.685364 
z"/>
<path fill="#E5E5E5" opacity="1.000000" stroke="none" 
	d="
M293.833893,128.089447 
	C293.989410,128.166092 293.986053,128.333496 293.978394,128.751968 
	C293.814240,128.833511 293.636780,128.675934 293.507904,128.485458 
	C293.478149,128.441513 293.614899,128.284943 293.833893,128.089447 
z"/>
<path fill="#868686" opacity="1.000000" stroke="none" 
	d="
M293.759674,130.657349 
	C293.904053,130.900177 293.785278,131.355286 293.314362,131.916519 
	C293.140289,131.638290 293.318390,131.253952 293.759674,130.657349 
z"/>
<path fill="#CBCBCB" opacity="1.000000" stroke="none" 
	d="
M240.093201,154.151001 
	C239.844482,154.025208 239.652222,153.835419 239.459961,153.645645 
	C239.671585,153.651260 239.883224,153.656876 240.203613,153.848999 
	C240.312378,154.035522 240.149673,154.087021 240.093201,154.151001 
z"/>
<path fill="#D7D7D7" opacity="1.000000" stroke="none" 
	d="
M300.996857,139.995758 
	C300.914734,140.027588 300.835785,140.063644 300.882690,140.053085 
	C301.008514,140.006485 301.000000,140.000000 300.996857,139.995758 
z"/>
<path fill="#090909" opacity="1.000000" stroke="none" 
	d="
M155.531281,112.948761 
	C157.366776,110.426949 159.511429,108.070961 160.972061,105.348061 
	C163.825012,100.029594 168.682327,99.359940 174.233582,99.158302 
	C174.718872,103.588905 175.332748,108.010750 174.784439,112.283455 
	C174.177200,117.015526 172.507278,121.611221 171.382782,126.646454 
	C171.044373,128.448746 170.623322,129.870895 169.942581,131.832062 
	C169.682022,132.952103 169.681152,133.533096 169.680267,134.114105 
	C169.511154,134.529999 169.342041,134.945908 168.953384,135.879822 
	C168.680862,136.966324 168.627884,137.534836 168.574905,138.103348 
	C166.684906,143.467041 164.794907,148.830719 162.868530,154.567505 
	C159.984879,157.173080 157.387756,159.935471 154.197525,161.441376 
	C152.251755,162.359833 149.392944,161.344040 146.513184,160.709732 
	C145.376526,158.813431 144.670914,157.404419 144.053711,155.625214 
	C144.081940,154.503693 144.021790,153.752365 143.961639,153.001022 
	C146.391739,143.267792 148.821823,133.534561 151.251648,123.412506 
	C152.280243,120.813210 153.309128,118.602737 154.641602,115.875610 
	C155.140549,114.555550 155.335922,113.752151 155.531281,112.948761 
z"/>
<path fill="#D7D7D7" opacity="1.000000" stroke="none" 
	d="
M174.996185,149.026535 
	C175.093628,149.339630 175.134964,149.686127 175.298065,149.960159 
	C176.088226,151.287933 176.911041,152.596268 177.722290,153.911469 
	C175.883545,154.223373 173.930099,155.062363 172.239304,154.694412 
	C170.645828,154.347656 170.815796,152.554092 170.467972,150.836609 
	C169.197922,144.565430 176.277496,145.358429 176.267029,140.534821 
	C178.500854,143.264130 178.500854,143.264130 175.043076,147.883102 
	C174.984970,148.668686 174.990585,148.847610 174.996185,149.026535 
z"/>
<path fill="#C3C3C3" opacity="1.000000" stroke="none" 
	d="
M220.674408,128.024384 
	C220.992569,129.696747 221.003586,131.438889 220.944611,133.527618 
	C219.903641,135.151306 218.961777,136.451935 217.954559,137.699783 
	C216.611374,139.363831 215.217377,140.986862 213.707245,142.280243 
	C214.311874,140.238297 214.960358,138.494095 215.819839,136.860947 
	C217.011322,134.596939 218.110641,132.427475 215.267899,130.182159 
	C215.016281,129.799606 215.008102,129.617630 214.998520,129.161224 
	C216.787155,128.622620 218.577194,128.358398 220.674408,128.024384 
z"/>
<path fill="#C7C7C7" opacity="1.000000" stroke="none" 
	d="
M174.970139,138.977051 
	C173.721054,138.883392 172.471970,138.789734 171.222885,138.696075 
	C171.030884,138.174606 170.838898,137.653152 170.646896,137.131683 
	C172.370224,136.255966 174.093552,135.380249 175.816879,134.504517 
	C176.036438,134.826553 176.256012,135.148575 176.475571,135.470612 
	C175.964172,136.434631 175.452774,137.398651 174.970551,138.681274 
	C174.999741,138.999863 174.970139,138.977051 174.970139,138.977051 
z"/>
<path fill="#C3C3C3" opacity="1.000000" stroke="none" 
	d="
M211.658264,147.022339 
	C210.661926,148.135056 209.321182,149.298782 207.904175,150.192322 
	C208.989883,148.972565 210.151871,148.022964 211.658264,147.022339 
z"/>
<path fill="#C3C3C3" opacity="1.000000" stroke="none" 
	d="
M206.845184,153.574738 
	C206.157684,153.907318 205.458694,153.950027 204.408966,153.965683 
	C204.320786,153.485458 204.583298,153.032288 204.976044,152.349640 
	C205.682068,152.508392 206.257874,152.896637 206.845184,153.574738 
z"/>
<path fill="#C7C7C7" opacity="1.000000" stroke="none" 
	d="
M168.823364,138.050735 
	C168.627884,137.534836 168.680862,136.966324 168.973816,136.219299 
	C169.166473,136.693222 169.119141,137.345673 168.823364,138.050735 
z"/>
<path fill="#C7C7C7" opacity="1.000000" stroke="none" 
	d="
M169.921494,134.058151 
	C169.681152,133.533096 169.682022,132.952103 169.939331,132.203949 
	C170.184753,132.691940 170.173721,133.347061 169.921494,134.058151 
z"/>
<path fill="#868686" opacity="1.000000" stroke="none" 
	d="
M175.989075,147.989151 
	C176.215698,147.797318 176.442322,147.605484 176.668945,147.413666 
	C176.625107,147.650497 176.581253,147.887314 176.268921,148.062317 
	C176.000443,148.000473 175.989075,147.989151 175.989075,147.989151 
z"/>
<path fill="#868686" opacity="1.000000" stroke="none" 
	d="
M175.269226,148.969482 
	C174.990585,148.847610 174.984970,148.668686 174.986237,148.219986 
	C175.158752,147.968887 175.324402,147.987595 175.739563,147.997726 
	C175.989075,147.989151 176.000443,148.000473 176.008240,148.008560 
	C175.858124,148.315231 175.700195,148.613831 175.269226,148.969482 
z"/>
<path fill="#D7D7D7" opacity="1.000000" stroke="none" 
	d="
M174.988281,138.985260 
	C175.090210,139.100891 175.203583,139.231125 175.316956,139.361374 
	C175.243210,139.313751 175.169449,139.266129 175.032928,139.097778 
	C174.970139,138.977051 174.999741,138.999863 174.988281,138.985260 
z"/>
<path fill="#DBDBDB" opacity="1.000000" stroke="none" 
	d="
M107.748398,150.113770 
	C108.154045,148.584488 108.710236,147.307571 109.501778,146.198639 
	C109.590118,146.074875 111.620087,146.809555 111.699974,147.312759 
	C111.888741,148.501770 111.444862,149.791214 111.256813,151.040054 
	C110.160591,150.831879 109.064377,150.623718 107.748398,150.113770 
z"/>
<path fill="#DBDBDB" opacity="1.000000" stroke="none" 
	d="
M110.147034,141.899826 
	C110.542740,142.843689 110.836662,143.506271 111.130577,144.168854 
	C109.880737,144.089890 108.630898,144.010910 107.381058,143.931946 
	C107.315010,143.412201 107.248955,142.892456 107.182907,142.372711 
	C108.137016,142.121323 109.091133,141.869934 110.147034,141.899826 
z"/>
<path fill="#DBDBDB" opacity="1.000000" stroke="none" 
	d="
M109.721550,126.141098 
	C109.824516,127.756256 109.743515,129.092789 109.662506,130.429321 
	C109.075920,130.304581 108.489334,130.179840 107.902748,130.055099 
	C108.447693,128.657547 108.992630,127.260002 109.721550,126.141098 
z"/>
<path fill="#DBDBDB" opacity="1.000000" stroke="none" 
	d="
M113.400864,156.418289 
	C112.501762,156.241898 111.849022,155.822678 111.196289,155.403458 
	C111.606293,155.002350 112.016296,154.601242 112.426308,154.200134 
	C112.833282,154.858582 113.240250,155.517014 113.400864,156.418289 
z"/>
<path fill="#D7D7D7" opacity="1.000000" stroke="none" 
	d="
M143.965317,155.995407 
	C144.670914,157.404419 145.376526,158.813431 146.185501,160.546844 
	C143.309540,161.892441 141.138321,161.355698 140.894440,157.319550 
	C141.299179,156.495911 141.307571,156.220215 141.646729,155.964600 
	C142.640106,155.988251 143.302704,155.991821 143.965317,155.995407 
z"/>
<path fill="#EAEAEA" opacity="1.000000" stroke="none" 
	d="
M144.053711,155.625214 
	C143.302704,155.991821 142.640106,155.988251 141.516205,155.615173 
	C141.020981,154.503586 140.987015,153.761475 140.953064,153.019363 
	C141.705307,153.013718 142.457550,153.008072 143.585724,153.001724 
	C144.021790,153.752365 144.081940,154.503693 144.053711,155.625214 
z"/>
<path fill="#D7D7D7" opacity="1.000000" stroke="none" 
	d="
M143.544937,142.032639 
	C142.887238,142.368225 142.229233,142.396790 141.571213,142.425354 
	C141.573212,142.144852 141.575211,141.864349 141.577225,141.583862 
	C142.233017,141.631104 142.888824,141.678360 143.544937,142.032639 
z"/>
<path fill="#EAEAEA" opacity="1.000000" stroke="none" 
	d="
M137.443100,146.631134 
	C137.332825,147.054932 137.064575,147.314911 136.778915,147.554108 
	C136.770859,147.560852 136.577423,147.346252 136.470444,147.234863 
	C136.741180,146.978043 137.011917,146.721207 137.443100,146.631134 
z"/>
<path fill="#868686" opacity="1.000000" stroke="none" 
	d="
M140.595108,153.160400 
	C140.987015,153.761475 141.020981,154.503586 141.185440,155.595123 
	C141.307571,156.220215 141.299179,156.495911 141.139832,157.156830 
	C140.738297,156.128525 140.487717,154.714981 140.595108,153.160400 
z"/>
<path fill="#EAEAEA" opacity="1.000000" stroke="none" 
	d="
M139.370438,150.442444 
	C138.944565,150.331863 138.683746,150.063019 138.443344,149.777023 
	C138.436951,149.769424 138.652466,149.575333 138.764511,149.468216 
	C139.022415,149.739441 139.280319,150.010651 139.370438,150.442444 
z"/>
<path fill="#EAEAEA" opacity="1.000000" stroke="none" 
	d="
M133.690918,142.132416 
	C133.859940,142.391495 133.819244,142.615601 133.778564,142.839706 
	C133.485504,142.765320 133.192429,142.690918 132.899384,142.616516 
	C133.093323,142.443497 133.287277,142.270477 133.690918,142.132416 
z"/>
<path fill="#EAEAEA" opacity="1.000000" stroke="none" 
	d="
M134.473221,153.457764 
	C134.520355,153.431274 134.426086,153.484268 134.473221,153.457764 
z"/>
<path fill="#DBDBDB" opacity="1.000000" stroke="none" 
	d="
M155.204590,113.070976 
	C155.335922,113.752151 155.140549,114.555550 154.688599,115.545547 
	C154.580627,114.885834 154.729248,114.039513 155.204590,113.070976 
z"/>
<path fill="#DBDBDB" opacity="1.000000" stroke="none" 
	d="
M147.994125,116.995567 
	C147.403442,117.314575 146.812744,117.633583 146.222046,117.952591 
	C146.137421,117.729324 146.052795,117.506058 145.968170,117.282799 
	C146.456055,117.187576 146.943954,117.092354 147.715912,116.998573 
	C148.000000,117.000015 147.994125,116.995567 147.994125,116.995567 
z"/>
<path fill="#DBDBDB" opacity="1.000000" stroke="none" 
	d="
M150.041107,120.032654 
	C149.589920,120.150864 149.138748,120.269073 148.687561,120.387283 
	C148.954163,120.253059 149.220749,120.118843 149.744186,119.991249 
	C150.001038,119.997871 150.041107,120.032646 150.041107,120.032654 
z"/>
<path fill="#DBDBDB" opacity="1.000000" stroke="none" 
	d="
M149.983612,119.977875 
	C150.080505,119.940285 150.194839,119.922684 150.175140,119.968857 
	C150.041107,120.032646 150.001038,119.997871 149.983612,119.977875 
z"/>
<path fill="#DBDBDB" opacity="1.000000" stroke="none" 
	d="
M148.002411,117.003082 
	C148.088760,116.967590 148.172714,116.929024 148.125397,116.943016 
	C147.994125,116.995567 148.000000,117.000015 148.002411,117.003082 
z"/>
<path fill="#E0E0E0" opacity="1.000000" stroke="none" 
	d="
M128.388870,184.974060 
	C128.768005,183.991348 129.514206,183.004547 130.628052,182.011017 
	C130.249115,182.992844 129.502518,183.981415 128.388870,184.974060 
z"/>
<path fill="#282828" opacity="1.000000" stroke="none" 
	d="
M257.443481,189.899078 
	C255.402267,188.381592 253.774841,186.948929 251.788879,185.466583 
	C251.774078,184.237778 252.117813,183.058670 252.681366,181.580673 
	C253.896851,180.494370 254.892487,179.706955 256.390961,178.521881 
	C257.446350,179.890305 258.483276,181.234848 259.810364,183.121872 
	C260.617004,184.543091 261.133514,185.421814 261.650055,186.300537 
	C261.610901,186.635269 261.737366,186.886673 262.250122,187.080338 
	C263.031799,187.984344 263.592834,188.862778 264.308838,189.983902 
	C262.015686,189.983902 259.936493,189.983902 257.443481,189.899078 
z"/>
<path fill="#B8B8B8" opacity="1.000000" stroke="none" 
	d="
M242.020508,168.775757 
	C243.087326,167.997391 244.304764,167.500519 245.830017,166.886810 
	C246.545761,168.284698 246.953674,169.799423 247.361572,171.314148 
	C246.910812,171.545731 246.460037,171.777313 246.009262,172.008896 
	C244.729889,171.025024 243.450500,170.041138 242.020508,168.775757 
z"/>
<path fill="#C7C7C7" opacity="1.000000" stroke="none" 
	d="
M246.583099,173.458801 
	C246.635376,173.529938 246.431580,173.549179 246.431580,173.549179 
	C246.431580,173.549179 246.530823,173.387650 246.583099,173.458801 
z"/>
<path fill="#282828" opacity="1.000000" stroke="none" 
	d="
M245.987671,153.868256 
	C245.762131,153.136108 245.879440,152.427750 246.329163,151.162796 
	C247.151260,149.897659 247.640961,149.189133 248.130676,148.480621 
	C249.023651,149.071320 249.916641,149.662018 250.958878,150.630630 
	C250.593094,151.281998 250.078033,151.555466 249.271484,151.912796 
	C248.096848,152.628448 247.213699,153.260239 245.987671,153.868256 
z"/>
<path fill="#F2F2F2" opacity="1.000000" stroke="none" 
	d="
M261.926697,186.105911 
	C261.133514,185.421814 260.617004,184.543091 260.084595,183.326294 
	C260.780212,183.962585 261.491791,184.936935 261.926697,186.105911 
z"/>
<path fill="#B8B8B8" opacity="1.000000" stroke="none" 
	d="
M240.395096,160.921631 
	C240.682999,161.381531 240.715759,161.876938 240.702652,162.742661 
	C240.484497,162.394363 240.312225,161.675751 240.395096,160.921631 
z"/>
<path fill="#868686" opacity="1.000000" stroke="none" 
	d="
M247.902252,148.320160 
	C247.640961,149.189133 247.151260,149.897659 246.262405,150.796783 
	C245.567352,150.186981 245.271454,149.386566 244.975555,148.586151 
	C245.874985,148.444000 246.774399,148.301865 247.902252,148.320160 
z"/>
</svg>