<?xml version="1.0" encoding="UTF-8" standalone="no"?>
<svg
   version="1.1"
   id="Layer_1"
   x="0px"
   y="0px"
   width="53.385548"
   viewBox="0 0 53.385549 32.879555"
   enable-background="new 0 0 427 263"
   xml:space="preserve"
   height="32.879555"
   sodipodi:docname="logo2.svg"
   inkscape:export-filename="logo2.svg"
   inkscape:export-xdpi="12.138117"
   inkscape:export-ydpi="12.138117"
   inkscape:version="1.3.2 (091e20ef0f, 2023-11-25)"
   xmlns:inkscape="http://www.inkscape.org/namespaces/inkscape"
   xmlns:sodipodi="http://sodipodi.sourceforge.net/DTD/sodipodi-0.dtd"
   xmlns="http://www.w3.org/2000/svg"
   xmlns:svg="http://www.w3.org/2000/svg"><sodipodi:namedview
   id="namedview1"
   pagecolor="#ffffff"
   bordercolor="#000000"
   borderopacity="0.25"
   inkscape:showpageshadow="2"
   inkscape:pageopacity="0.0"
   inkscape:pagecheckerboard="0"
   inkscape:deskcolor="#d1d1d1"
   inkscape:zoom="4.4581354"
   inkscape:cx="17.047486"
   inkscape:cy="10.43037"
   inkscape:window-width="2118"
   inkscape:window-height="1237"
   inkscape:window-x="279"
   inkscape:window-y="97"
   inkscape:window-maximized="0"
   inkscape:current-layer="g2" /><defs
   id="defs171" />










































































































































































<g
   id="g2"
   transform="scale(0.125)"><g
     id="g3"><g
       id="g1"><path
         fill="#010101"
         opacity="1"
         stroke="none"
         d="m 422.91759,263 c -140.94508,0 -281.89013,0 -422.9175936589428,0 0,-87.5775 0,-175.155106 0,-262.9999998818655 C 140.60677,1.1813452e-7 281.29615,1.1813452e-7 422.45378,0.46865312 422.92668,66.956741 422.93129,132.97617 422.92891,199.46468 c 0.0114,17.50283 0.0299,34.53659 0.0349,52.02729 -0.0243,4.14063 -0.0353,7.82434 -0.0462,11.50803 M 131.47391,131.80138 c -0.0523,0.39468 -0.10459,0.78936 -0.66102,1.59166 -0.0381,0.60812 -0.0763,1.21626 -0.41361,2.38972 -0.0667,0.41806 -0.13334,0.83614 -0.62991,1.61098 0.0113,0.87483 0.0225,1.74965 -0.20027,3.37353 -0.10475,2.09281 -0.20952,4.18563 -0.74535,6.52263 0.18091,0.73543 0.36182,1.47084 0.74262,2.90437 1.15036,2.26928 2.30072,4.53855 3.33636,7.38425 0.3458,0.47078 0.69159,0.94158 1.08617,2.11693 2.95706,3.73411 6.76135,5.16379 11.56778,5.46535 7.53909,0.47303 12.0735,-4.02684 16.84599,-8.5824 1.28032,-1.22212 3.0136,-1.96968 4.53114,-2.20572 6.27538,8.8517 14.96779,10.60112 25.63828,8.53108 0.84119,-0.60838 1.68239,-1.21678 3.23508,-1.79918 1.36,-0.80832 2.71998,-1.61665 4.66291,-2.46463 0.56051,-0.51275 1.12099,-1.02551 2.39329,-1.73681 1.06489,-1.0103 2.1298,-2.0206 3.12648,-3.04804 0,0 0.11952,0.0894 0.88255,0.12427 2.34068,-2.34433 4.68136,-4.68866 7.55333,-7.20116 0.37423,-0.61332 0.74847,-1.22665 1.64874,-2.24719 0.69019,-1.3589 1.38036,-2.71782 2.61778,-4.49766 0.84033,-2.36634 1.68068,-4.73266 2.99311,-7.54545 0.12564,-0.4093 0.25128,-0.81858 0.98001,-1.60914 0.48687,-2.98607 0.97375,-5.97213 1.73732,-9.65434 1.41743,-6.5415 2.09471,-13.04066 -0.85695,-19.83933 -0.23505,-0.45019 -0.47009,-0.90037 -0.93741,-2.05671 -0.69542,-1.652311 -1.33717,-3.329801 -2.09773,-4.951567 -1.46422,-3.122177 -1.90187,-7.108764 -6.47202,-8.314331 -0.41676,-0.336219 -0.83352,-0.672432 -1.63104,-1.57492 -5.12709,-7.507561 -12.87582,-11.560837 -21.1447,-16.191429 -2.15071,-0.626328 -4.30144,-1.252655 -6.81761,-2.28637 -0.5345,-0.02606 -1.069,-0.05212 -2.1034,-0.397941 -1.71298,-0.583779 -3.42597,-1.167549 -5.41712,-2.241608 -1.19365,0.115837 -2.38732,0.231674 -4.39402,0.213585 -2.20259,0.131981 -4.40516,0.263954 -7.19468,0.258324 -1.34305,0.281875 -2.68612,0.563743 -4.75652,0.839675 -1.87872,0.492699 -3.75743,0.985398 -6.36751,1.548607 -1.90481,0.862168 -3.80964,1.724335 -6.61249,3.216378 -0.39338,2.615944 0.79384,2.479621 2.87555,2.029129 7.80326,-1.688652 15.6596,-3.132042 23.79854,-4.372879 0.55037,-0.02765 1.10073,-0.0553 2.36952,0.263641 1.56945,0.400383 3.12543,0.86734 4.71106,1.187592 3.52808,0.712562 7.071,1.351715 11.35822,1.989105 0.80565,0.538284 1.74913,0.947166 2.39519,1.635284 5.27787,5.621514 10.50023,11.295143 15.47307,17.6586 -0.0902,1.375427 -0.18038,2.750847 0.11619,4.747299 0.86557,3.9142 2.81769,7.975406 2.31319,11.704226 -0.58962,4.35772 1.26999,7.85612 1.22793,12.32018 -0.007,0.49187 -0.0138,0.98373 -0.50016,2.06602 -0.83544,3.78488 -1.67087,7.56976 -2.91008,11.6698 -0.0777,0.3231 -0.15534,0.64619 -0.81556,1.37515 -1.28802,2.76761 -2.57605,5.53523 -4.23939,8.50087 0,0 -0.006,0.42433 -0.54614,0.66794 -0.28316,0.71824 -0.56633,1.43648 -1.31041,2.35119 -0.0389,0.16245 -0.0778,0.32488 -0.72965,0.70623 -0.64085,1.36255 -1.28171,2.72509 -2.4807,4.403 -0.25035,0.34155 -0.50068,0.6831 -1.37677,1.08104 -0.78555,0.86319 -1.5711,1.72636 -2.57823,3.08947 -0.24839,0.2656 -0.49679,0.53121 -1.36413,1.1803 -0.50029,1.09561 -1.00058,2.19121 -2.33493,3.42891 -3.29808,1.0072 -6.62154,3.36722 -9.98163,0.47087 -1.43373,-1.23585 -2.40256,-3.01106 -3.54692,-5.4241 0.0237,-1.1501 -0.12116,-2.33344 0.0981,-3.44498 1.63002,-8.26536 3.33229,-16.51646 5.38408,-25.03753 0,0 0.0242,-0.45655 0.62442,-0.77524 0.55943,-2.00025 1.11886,-4.00049 2.16911,-6.31011 0.0462,-0.18782 0.0923,-0.37562 0.76734,-0.88405 1.38108,-4.56713 2.84454,-9.11171 4.10455,-13.712 0.53738,-1.9619 1.56857,-4.72737 0.70674,-5.879449 -0.93112,-1.244743 -3.79762,-1.24797 -5.84651,-1.380012 -1.43753,-0.09264 -3.07948,0.198349 -4.34985,0.857895 -3.00817,1.561776 -5.63546,1.236244 -8.5156,-1.399971 -0.93385,-0.39515 -1.86769,-0.790299 -3.38684,-1.459854 -2.82019,-1.405259 -5.66342,-3.518898 -8.83519,0.178718 -0.1747,0.02326 -0.34938,0.04653 -0.81361,-0.222763 -3.67586,-0.534882 -6.40575,0.930786 -8.77648,4.059593 -0.25094,0.139084 -0.39052,0.351353 -0.40697,0.795543 0,0 -0.0909,-0.13071 -0.60731,-0.0247 -0.3513,0.37783 -0.70261,0.75566 -1.76309,1.26586 -1.75952,2.08443 -3.51905,4.16888 -5.22963,6.29012 0,0 -0.12936,-0.0923 -0.91155,0.11579 -0.53264,0.88952 -1.06527,1.77904 -1.90066,2.97377 -0.0975,0.2714 -0.13652,0.55092 -0.58435,1.12095 -0.22013,0.48593 -0.44023,0.97186 -1.2154,1.67813 -0.30372,0.69964 -0.60745,1.39927 -1.44854,2.58879 -1.41411,3.01925 -2.82822,6.03851 -4.77387,9.38485 -0.13386,0.76055 -0.26774,1.52109 -0.73424,2.78593 -0.16503,0.36601 -0.33007,0.73203 -1.07719,1.29982 -0.16095,0.73735 -0.32188,1.4747 -0.72675,2.76061 m -19.4829,-12.24062 c -0.003,-0.56548 -0.006,-1.13097 0.33033,-2.37282 0.3325,-1.21313 0.665,-2.42627 1.49923,-4.07731 0.0672,-1.08361 0.13436,-2.16722 0.61065,-3.85142 0.29993,-0.9027 0.59986,-1.8054 1.364,-3.08477 0.17321,-0.76829 0.34642,-1.53658 1.03374,-2.80906 0.6727,-1.5275 1.34539,-3.05499 2.58021,-4.733239 0.30249,-0.889191 0.60497,-1.778381 1.40854,-3.151482 0.009,-0.232017 0.0181,-0.464042 0.31754,-1.005355 0.14425,-0.326294 0.2885,-0.652581 0.43276,-0.978867 -0.15199,-0.03456 -0.30397,-0.06911 0.27313,-0.428902 6.16454,-10.768837 18.00076,-14.545456 27.02911,-22.286483 -2.69396,-0.290146 -5.4141,-0.213791 -7.30921,1.075378 -5.08464,3.458862 -9.86102,7.380516 -14.67929,11.219452 -12.43298,9.90596 -19.40598,23.052648 -23.02348,38.695058 -0.0165,0.74908 -0.033,1.49816 -0.20744,3.0782 -0.16951,6.76446 -0.59306,13.53688 -0.38119,20.28936 0.0826,2.63248 1.59574,5.22007 2.20441,8.3385 0.2455,0.47483 0.49101,0.94964 0.69515,2.1431 0.14834,0.44818 0.29668,0.89638 0.28329,2.00452 0.58949,1.42409 1.17898,2.84817 1.69252,5.0672 0.33281,1.83226 -0.70669,4.57075 3.09166,4.89207 0.51296,0.9455 1.02591,1.89098 1.64404,3.35205 0.27283,0.20598 0.54566,0.41196 0.82911,1.25527 1.01858,1.28886 2.03717,2.57771 3.41761,4.4223 1.63607,1.67812 3.27214,3.35625 5.18859,5.60802 1.22281,0.80925 2.44561,1.6185 4.16842,3.12298 0.93846,-0.0374 1.87691,-0.0747 3.06812,0.40445 1.12573,0.39882 2.25148,0.79764 3.3425,1.95906 0.48053,0.79625 0.7978,2.09264 1.46696,2.31108 6.4084,2.09208 12.76682,4.58297 19.3535,5.82402 9.19713,1.7329 18.5857,2.363 27.71968,-0.83001 5.25589,-1.8373 11.21892,-2.39727 15.03606,-8.42017 10.22624,-2.68823 16.08218,-10.83575 22.21915,-18.36345 2.83892,-3.4823 4.47895,-7.98543 6.37362,-12.15693 0.3727,-0.82056 -0.58047,-2.24332 -0.92218,-3.38834 -0.89694,0.73051 -2.06299,1.29202 -2.64575,2.21986 -3.04718,4.85152 -5.40124,10.25095 -9.02908,14.59793 -5.01856,6.01334 -10.95732,11.25872 -17.11827,16.38619 -2.75136,1.35834 -5.47455,2.77766 -8.25916,4.06404 -9.94208,4.59288 -20.74028,6.38229 -30.92163,3.25833 -9.04173,-2.77432 -17.13202,-8.6495 -25.9498,-13.70128 -1.58151,-1.82217 -3.16304,-3.64433 -4.70513,-5.96907 -0.87716,-0.82278 -1.75431,-1.64557 -2.79566,-3.02342 -0.14452,-0.12784 -0.28903,-0.25568 -0.29676,-0.90109 -0.52072,-0.47344 -1.04144,-0.94687 -1.88529,-1.80143 0,0 -0.48204,-0.13154 -0.36784,-0.75308 -0.17703,-0.35377 -0.35406,-0.70756 -0.24586,-1.48776 -1.55315,-4.03056 -3.10631,-8.06114 -4.67517,-12.81607 -0.38439,-0.87624 -0.76877,-1.75246 -1.04709,-3.39348 -0.65754,-2.6142 -1.31508,-5.22838 -1.92446,-8.37923 -0.12918,-0.33035 -0.25835,-0.66069 -0.14793,-1.52948 -0.34275,-1.83262 -0.6855,-3.66525 -0.72949,-6.11537 -0.0936,-0.67312 -0.18723,-1.34623 0.17602,-2.19273 0.15327,-0.72499 0.30653,-1.44998 0.61865,-2.71289 -0.12534,-0.13872 -0.25068,-0.27745 -0.49765,-1.26627 -0.19621,-1.67885 -0.39241,-3.3577 -0.19487,-5.68775 0.0269,-0.50242 0.0538,-1.00483 0.49138,-1.91941 m 123.67633,44.81348 c 0.37742,0.60601 0.75485,1.21203 1.36467,2.48648 0.75177,1.73753 1.50352,3.47505 1.78694,5.58455 0.30015,0.95927 0.60029,1.91856 1.20913,3.2704 0,0 0.47844,0.14319 0.67205,0.76518 0.41055,0.82632 0.82112,1.65266 1.77105,2.90794 1.98787,2.1668 3.97574,4.33358 6.12902,7.10306 2.45596,1.77017 4.91192,3.54033 7.89554,5.84297 8.95559,6.69725 31.54293,0.69776 41.00693,-9.55757 0.43366,-0.93852 0.86728,-1.87706 1.68851,-3.14804 0.22919,-0.25082 0.4584,-0.50165 1.24768,-1.06175 0.88385,-2.57065 1.7677,-5.14128 3.13846,-8.19257 0.20599,-0.64419 0.41202,-1.28837 1.08258,-2.15802 -0.15512,-0.8881 -0.31021,-1.77621 -0.38547,-3.29191 -0.042,-0.62523 -0.0839,-1.25048 0.24304,-2.3201 -0.48471,-0.95358 -0.96945,-1.90715 -1.97659,-3.44446 -4.21692,-0.47432 -5.57751,1.1104 -5.26907,5.50656 0.28116,4.00752 0.17941,8.04192 -0.3219,12.59345 -3.01947,5.3974 -7.22017,9.42269 -13.68052,11.16053 -2.98905,0.71366 -5.97812,1.42731 -9.21064,1.98267 -0.20959,-0.0533 -0.38803,-8.4e-4 -1.05371,-0.29097 -2.0646,-0.95274 -4.12918,-1.90547 -6.42224,-3.36481 -0.44787,-0.31143 -0.89578,-0.62288 -1.55444,-1.63693 -2.16767,-4.3949 -4.33533,-8.78979 -5.89633,-13.68718 -0.0698,-0.47501 -0.13953,-0.95003 -0.26929,-2.05296 -0.56665,-0.60787 -1.13327,-1.21573 -1.55048,-2.23477 0.0113,-0.30233 -0.0669,-0.57943 0.33289,-1.12618 -0.32831,-2.31352 -0.65662,-4.62706 -1.01675,-7.64332 -0.0829,-0.45884 -0.16575,-0.91768 0.20306,-1.87581 0.22925,-0.8696 0.45853,-1.73922 1.56949,-2.64394 7.85388,-0.0916 15.70776,-0.1832 24.38785,0.10529 6.03491,-0.392 12.06986,-0.784 18.81275,-1.25862 3.30139,-8.31406 1.67468,-16.33269 -1.36017,-24.93059 -1.15457,-1.90429 -2.30914,-3.80858 -3.58487,-6.38457 -0.92648,-1.33746 -1.85293,-2.67491 -3.06097,-4.40506 0,0 -0.47934,-0.0611 -0.71128,-0.58962 -0.6676,-0.35054 -1.33524,-0.70109 -2.30649,-1.57897 -0.52201,-0.28159 -1.04398,-0.56317 -1.7855,-1.37383 -0.63745,-0.35776 -1.27487,-0.71552 -2.26492,-1.49602 -0.35379,-0.0572 -0.70755,-0.11431 -1.31897,-0.60878 -0.77936,-0.15493 -1.55871,-0.30986 -2.94586,-0.7888 -1.54056,-0.30773 -3.08115,-0.61545 -5.0292,-1.34966 -1.13788,-0.5026 -2.27573,-1.00521 -4.20902,-1.85499 -1.70279,0.22446 -3.40561,0.44893 -5.5401,0.44126 -0.7247,0.31799 -1.4494,0.63597 -2.89883,0.95021 -0.87214,0.38861 -1.74427,0.77721 -3.15268,1.0224 -0.60031,0.37527 -1.2006,0.75054 -2.5073,1.18926 -5.91943,3.57252 -12.17306,6.76412 -15.80734,13.93019 -0.50897,1.40935 -1.01793,2.8187 -2.09522,4.49939 -0.41104,0.45911 -0.82209,0.91823 -1.90148,1.63741 -0.14301,1.36359 -0.28602,2.72716 -0.85425,4.79001 -0.0476,1.08548 -0.0953,2.17097 -0.57463,3.73538 -0.1691,0.82483 -0.33818,1.64964 -0.9746,3.11226 -0.14065,1.81258 -0.28131,3.62517 -0.91977,6.04901 -0.20129,2.12407 -0.40258,4.24815 -1.11317,6.89824 0.49402,2.81583 0.98805,5.63167 0.98241,8.7867 z"
         id="path1" /></g><path
       fill="#121315"
       opacity="1"
       stroke="none"
       d="M 422.9359,198.9956 C 422.9309,132.97617 422.9269,66.956741 422.9199,0.46865312 424.24808,1.1813451e-7 425.57856,1.1813451e-7 426.91331,1.1813451e-7 426.91731,66.020897 426.91731,132.04179 426.51917,198.53134 c -1.46005,0.46721 -2.52163,0.46575 -3.58322,0.46426 z"
       id="path2" /><path
       fill="#0f1012"
       opacity="1"
       stroke="none"
       d="m 422.92891,199.46469 c 1.06858,-0.4676 2.13016,-0.46614 3.59021,-0.46469 0.39847,17.02089 0.39847,34.04179 0.003,51.53256 -1.44513,0.48075 -2.49524,0.49161 -3.54532,0.50247 -0.0184,-17.03376 -0.0368,-34.06752 -0.0483,-51.57034 z"
       id="path3" /><path
       fill="#1b1b1b"
       opacity="1"
       stroke="none"
       d="m 422.96379,251.49197 c 1.06348,-0.4678 2.11359,-0.47866 3.55872,-0.49075 0.39508,3.16545 0.0438,6.38297 0.49267,9.48465 0.45981,3.17746 -1.4432,2.46606 -3.59759,2.51413 -0.48904,-3.68369 -0.47812,-7.3674 -0.4538,-11.50803 z"
       id="path4" /><path
       fill="#eaeaea"
       opacity="1"
       stroke="none"
       d="m 296.77767,122.04994 c 1.15457,1.9043 2.30914,3.80859 3.33075,6.48638 -0.14942,4.00573 -0.16587,7.23794 -0.30814,10.51676 -0.0469,0.0106 0.032,-0.0255 0.47894,0.006 0.78156,0.88675 1.58191,1.72486 1.54288,2.52184 -0.18311,3.7379 -0.59705,7.46446 -0.92856,11.19508 -6.03488,0.392 -12.06983,0.784 -18.51154,0.64974 -0.44022,-1.19785 -0.47364,-1.86944 -0.16028,-2.72249 1.11294,-2.87143 2.40344,-5.54502 2.48807,-8.25623 0.0746,-2.39239 -1.19629,-4.82678 -1.8494,-7.66598 0.0107,-1.27092 -0.002,-2.11846 0.007,-3.33513 -0.59338,-3.78208 -1.43353,-7.17291 -1.77154,-10.61309 -0.51444,-5.23561 -3.55975,-8.16143 -8.7977,-7.96843 -3.53855,0.13039 -8.06473,4.80316 -9.69565,9.10832 -1.19876,3.16431 -3.23334,6.01199 -5.25552,8.99146 -1.3201,-0.001 -2.28009,0.007 -3.39646,-0.32036 -1.19536,-1.09753 -2.2343,-1.86004 -2.89782,-2.75155 1.3679,-0.27671 2.36038,-0.42439 3.35287,-0.5721 -0.16135,-0.75734 -0.32269,-1.51468 -0.64212,-2.54639 -1.03769,-0.2116 -1.9173,-0.14885 -3.11874,0.0445 -1.05332,0.69112 -1.78475,1.25162 -2.51619,1.81212 0.60817,0.46745 1.21634,0.9349 1.60513,1.68763 -2.47351,2.62616 -4.89677,4.82549 -7.07988,7.21662 -3.96193,4.33943 -2.69751,8.10992 -1.77457,12.55202 -0.0539,0.11569 0.0347,0.35511 -0.15735,0.59864 -0.0608,0.71244 0.0705,1.18132 0.16042,1.92011 -0.0214,0.63164 -0.002,0.99341 -0.0646,1.60534 -0.37602,0.42495 -0.66917,0.59975 -1.11777,0.79755 -0.15544,0.023 -0.46966,0.0272 -0.57843,-0.15936 -0.32039,-0.19212 -0.53203,-0.19774 -0.74365,-0.20336 0.19226,0.18978 0.38452,0.37957 0.3804,0.7602 -0.71872,0.33218 -1.24104,0.47352 -1.78168,0.22572 -0.23898,-2.11059 -0.45967,-3.83206 -0.68035,-5.55353 0.14065,-1.81257 0.28131,-3.62516 0.91561,-5.86917 0.63335,-1.34086 0.77303,-2.25032 0.91271,-3.15976 0.0476,-1.08548 0.0952,-2.17097 0.65143,-3.7698 0.67705,-1.85447 0.84555,-3.19561 1.01404,-4.53673 0.41104,-0.45911 0.82209,-0.91823 1.83067,-1.63793 1.05096,-1.74154 1.50438,-3.22251 1.95779,-4.70346 3.17417,-6.70141 9.4278,-9.89301 15.9776,-13.44831 1.22464,-0.34289 1.81891,-0.70297 2.41321,-1.06305 0.87213,-0.38862 1.74426,-0.77722 3.3385,-1.08593 1.35089,-0.21272 1.97965,-0.50534 2.60843,-0.79798 1.70279,-0.22446 3.40561,-0.44893 5.67355,-0.1344 1.72721,0.94015 2.88929,1.34132 4.05137,1.74248 1.54055,0.30773 3.08114,0.61545 5.16433,1.369 1.24872,0.55731 1.95478,0.6688 2.66086,0.78028 0.35379,0.0572 0.70755,0.11432 1.29959,0.67908 0.90753,0.84423 1.57688,1.18086 2.24619,1.51749 0.522,0.28159 1.04397,0.56317 1.78012,1.41574 0.91754,0.89283 1.62092,1.21467 2.32429,1.53651 0,0 0.47934,0.0611 0.66803,0.58619 1.12363,1.86728 2.05853,3.20947 2.99344,4.55166 m -5.93614,15.84215 c 6.1e-4,0.33475 10e-4,0.66949 0.194,1.6179 0.77946,-0.21606 1.55888,-0.43212 2.33833,-0.64819 -0.48206,-0.31032 -0.96414,-0.62064 -1.48737,-1.53421 -0.0335,-0.19922 -0.0671,-0.39844 -0.0512,-0.97659 0,0 0.15677,-0.34851 0.0942,-0.3712 0,0 -0.007,0.0659 0.7103,-0.0277 1.47476,-0.93495 3.06625,-1.74202 4.33633,-2.90122 0.29141,-0.26596 -0.52258,-1.74309 -0.78714,-3.13855 -0.10922,-0.29937 -0.2074,-0.60234 0.17356,-1.26545 0.18441,-0.54795 0.36886,-1.09588 0.48812,-2.22142 -0.64703,-0.13068 -1.29406,-0.26135 -2.52401,-0.33616 -0.47211,0.30313 -0.94422,0.60626 -1.73401,1.09092 -0.0602,0.10473 -0.1969,0.2613 -0.16715,0.30525 0.12888,0.19047 0.30634,0.34805 0.48398,1.05803 -3.9e-4,0.18025 -8.2e-4,0.36049 -0.014,0.72374 0,0 0.045,0.17784 -0.48135,0.60238 -0.1781,0.38434 -0.3562,0.76868 -0.47812,1.14885 0,0 -0.003,-0.0563 -0.74391,-0.25973 -1.09683,1.06669 -2.19366,2.13337 -3.28189,3.23242 0,0 -0.0296,-0.0156 -0.55911,-0.41507 0.0756,0.73672 0.15125,1.47345 0.96066,2.32428 0.49387,0.0231 0.98774,0.0463 1.45118,0.77563 0.37387,0.23789 0.74774,0.47579 1.07864,1.2161 M 290.58839,124.685 c 1.14749,-0.75454 2.29496,-1.50907 3.31965,-2.18286 -2.29039,-1.61421 -3.87638,-2.73197 -5.49174,-3.87043 -1.29181,1.50323 -2.69,3.13025 -4.17734,4.86101 0.60913,1.39113 1.21744,2.78034 2.10242,4.80144 0.69766,-1.38172 1.17416,-2.32546 2.29986,-3.29034 0.4339,-0.008 0.8678,-0.0156 1.94715,-0.31882 m -2.6973,16.39659 c 0.42301,0.45251 0.84598,0.90503 1.26898,1.35754 0.21582,-0.37144 0.43164,-0.7429 0.64746,-1.11435 -0.48519,-0.1728 -0.97036,-0.34561 -1.91644,-0.24319 M 249.34122,123.536 c -0.25462,-0.14226 -0.50059,-0.30831 -0.77117,-0.40662 -0.054,-0.0196 -0.202,0.2196 -0.30666,0.33945 0.24985,0.13723 0.49969,0.27447 1.07783,0.0672 m 48.0518,14.81301 c 0.0504,-0.1951 0.10071,-0.39019 0.15106,-0.58529 -0.12377,0.12527 -0.24752,0.25055 -0.15106,0.58529 z"
       id="path5" /><path
       fill="#f2f2f2"
       opacity="1"
       stroke="none"
       d="m 205.76664,142.64514 c 0,0 0.006,-0.42433 0.52937,-0.58386 1.78174,-3.0221 3.04022,-5.88464 4.29869,-8.74719 0.0777,-0.32311 0.15534,-0.6462 0.74018,-1.18665 1.20715,-1.1935 1.90715,-2.16968 2.8506,-2.94528 2.84274,2.24531 1.74342,4.41478 0.55194,6.67879 -0.85948,1.63314 -1.50797,3.37735 -2.50285,5.29911 -0.60631,1.75516 -0.96032,3.28321 -1.65873,4.86228 -1.50639,1.00062 -2.66838,1.95022 -4.13922,2.95541 -1.01016,0.75121 -1.71147,1.44681 -2.543,2.37189 -0.39274,0.68265 -0.65525,1.13582 -0.62729,1.90533 1.12426,0.41665 1.958,0.51694 2.79174,0.61725 -1.0649,1.01032 -2.12981,2.02062 -3.86875,3.10788 -1.21675,0.61782 -1.75946,1.15866 -2.30217,1.69951 -1.36,0.80832 -2.71998,1.61665 -4.79104,2.39974 -1.53772,0.58035 -2.36438,1.18592 -3.19106,1.7915 -10.00345,2.10295 -18.69586,0.35353 -25.22159,-9.08829 -1.81149,-0.34073 -3.37261,-0.0913 -4.89735,-0.21506 1.92638,-5.73678 3.81638,-11.10046 5.95483,-16.51677 0.29578,-0.70506 0.34311,-1.35751 0.37,-2.34944 0.14868,-0.75538 0.31779,-1.17129 0.72812,-1.64314 0.25224,-0.71109 0.26327,-1.36621 0.27754,-2.39323 0.4243,-1.79403 0.84535,-3.21617 1.56975,-4.56594 1.72853,-0.69091 4.47296,-1.77243 4.37733,-2.16884 -1.10496,-4.58064 2.46889,-5.20658 5.16075,-6.51338 2.43581,-1.18248 4.9614,-2.18004 7.71294,-3.37442 0,1.40724 0,2.70463 0,4.00203 -0.0462,0.18781 -0.0923,0.37561 -0.72581,0.80025 -1.1189,2.28854 -1.65044,4.34026 -2.18198,6.39198 -2e-5,0 -0.0242,0.45655 -0.55496,0.67534 -2.53373,8.7954 -4.60213,17.358 -6.4437,25.96912 -0.19537,0.91356 0.93907,2.11151 1.45661,3.17752 1.18008,1.53012 2.14891,3.30533 3.58264,4.54118 3.36009,2.89635 6.68355,0.53633 10.76127,-0.52975 1.24451,-1.29042 1.70937,-2.52198 2.17424,-3.75353 0.24839,-0.26559 0.49679,-0.5312 1.16805,-1.08987 1.20895,-1.1463 1.99504,-1.99954 2.78111,-2.85279 0.25034,-0.34155 0.50067,-0.6831 1.357,-1.25579 1.23323,-1.61769 1.86049,-3.00425 2.48774,-4.3908 0.0389,-0.16241 0.0778,-0.32484 0.65483,-0.66882 0.79622,-0.92543 1.05422,-1.66936 1.31223,-2.41327 m -30.31166,4.47901 c 0.0439,-0.23684 0.0877,-0.47365 0.13154,-0.71048 -0.22662,0.19181 -0.45324,0.38365 -1.1789,0.59263 -0.16564,-0.0187 -0.33129,-0.0374 -0.38326,-0.72987 3.39407,-4.0123 3.39407,-4.0123 1.16025,-6.74161 0.0105,4.82361 -7.06911,4.03061 -5.79906,10.30179 0.34783,1.71748 0.17786,3.51105 1.77133,3.8578 1.6908,0.36795 3.64424,-0.47104 5.48299,-0.78293 -0.81125,-1.31521 -1.63406,-2.62355 -2.42423,-3.95132 -0.1631,-0.27403 -0.20443,-0.62053 0.24419,-1.04773 0.15794,-0.2986 0.31587,-0.5972 0.99515,-0.78828 m -1.4417,-8.90564 c 0.0738,0.0476 0.14751,0.0952 0.22126,0.14286 -0.11338,-0.13025 -0.22675,-0.26048 -0.3756,-0.9987 0.51141,-0.96402 1.02281,-1.92804 1.53421,-2.89206 -0.21956,-0.32204 -0.43913,-0.64406 -0.65869,-0.96609 -1.72333,0.87573 -3.44666,1.75145 -5.16998,2.62716 0.192,0.52147 0.38398,1.04293 0.57598,1.56439 1.24909,0.0937 2.49817,0.18732 3.87282,0.52244 z"
       id="path6" /><path
       fill="#e7e7e7"
       opacity="1"
       stroke="none"
       d="m 113.31883,113.54854 c -0.33249,1.21313 -0.66499,2.42627 -1.39489,4.10412 -0.69281,1.0908 -0.9882,1.71689 -1.56326,2.38135 -0.31928,1.02823 -0.35889,2.01808 -0.40084,3.37259 0.61722,1.78025 1.23676,3.19584 1.8563,4.61142 0.12533,0.13872 0.25067,0.27745 0.0154,0.88676 -0.4787,1.11896 -0.59681,1.76731 -0.71491,2.41567 0.0936,0.67313 0.18722,1.34624 -0.15364,2.51915 0.0185,2.38452 0.47143,4.26927 0.92438,6.15402 0.12917,0.33035 0.25834,0.66069 0.25962,1.66864 0.5635,3.27387 1.25489,5.87015 1.94629,8.46642 0.38439,0.87623 0.76877,1.75245 1.04246,3.3925 0.0867,2.69319 0.28403,4.62257 0.52031,6.93243 -1.54827,-0.72439 -2.83565,-1.32673 -4.4506,-2.08233 0.62915,2.9232 1.13747,5.28494 1.44592,7.75195 -0.45028,0.28543 -0.6457,0.51286 -1.00905,0.79666 -0.22296,0.009 -0.66648,0.0586 -0.66648,0.0586 -3.53753,0.28405 -2.49803,-2.45444 -2.60198,-4.90081 -0.43397,-2.11375 -1.09681,-3.6134 -1.75965,-5.11305 -0.14834,-0.44818 -0.29668,-0.89638 -0.24886,-1.84146 -0.082,-1.05014 -0.36023,-1.60338 -0.63844,-2.1566 -0.86154,-2.60803 -2.37469,-5.19562 -2.45728,-7.8281 -0.21187,-6.75248 0.21168,-13.5249 0.74798,-20.93502 0.33018,-1.3375 0.29358,-2.02931 0.25698,-2.72113 3.20117,-15.35382 10.17417,-28.500508 22.60715,-38.406468 4.81827,-3.838936 9.59465,-7.76059 14.67929,-11.219452 1.89511,-1.289169 4.61525,-1.365524 7.30921,-1.075378 -9.02835,7.741027 -20.86457,11.517646 -27.49618,22.596328 -0.4878,0.675637 -0.50853,1.041428 -0.52926,1.407219 -0.009,0.232018 -0.0181,0.464043 -0.55332,1.030052 -0.8323,1.212075 -1.13837,2.090165 -1.44445,2.968247 -0.67269,1.527492 -1.34538,3.054982 -2.58705,4.957492 -0.68898,1.18692 -0.80898,1.99881 -0.92897,2.81072 -0.29994,0.9027 -0.59987,1.8054 -1.37489,3.213 -0.52916,1.59808 -0.58323,2.69125 -0.6373,3.78443 m -6.4331,35.867 c 1.09623,0.20818 2.19244,0.41634 3.28866,0.62451 0.18805,-1.24884 0.63193,-2.53828 0.44316,-3.72729 -0.0799,-0.50321 -2.10985,-1.23789 -2.19819,-1.11412 -0.79154,1.10893 -1.34774,2.38585 -1.53363,4.2169 m 2.0771,-8.79699 c -0.95412,0.25138 -1.90823,0.50277 -2.86234,0.75416 0.066,0.51975 0.1321,1.03949 0.19815,1.55924 1.24984,0.079 2.49968,0.15794 3.74952,0.2369 -0.29392,-0.66258 -0.58784,-1.32516 -1.08533,-2.5503 m -0.50767,-15.75608 c -0.54495,1.39753 -1.08989,2.79508 -1.63483,4.19263 0.58658,0.12474 1.17317,0.24948 1.75976,0.37422 0.081,-1.33653 0.16201,-2.67306 -0.12493,-4.56685 m 4.10964,30.31299 c -0.40697,-0.65845 -0.81394,-1.31688 -1.22091,-1.97533 -0.41001,0.40111 -0.82002,0.80222 -1.23002,1.20333 0.65273,0.41922 1.30547,0.83844 2.45093,0.772 z"
       id="path7" /><path
       fill="#e7e7e7"
       opacity="1"
       stroke="none"
       d="m 161.7497,153.9406 c 1.56115,-0.24939 3.12227,-0.49877 4.93765,-0.52272 -1.27108,1.19084 -3.00436,1.9384 -4.28468,3.16052 -4.77249,4.55556 -9.3069,9.05543 -16.84599,8.5824 -4.80643,-0.30156 -8.61072,-1.73124 -11.37937,-5.9892 -0.26101,-1.07242 -0.71043,-1.62096 -1.15986,-2.16951 -1.15036,-2.26927 -2.30072,-4.53854 -3.38436,-7.44894 -0.0816,-1.26323 -0.22993,-1.88535 -0.37826,-2.50745 0.10475,-2.0928 0.20952,-4.18562 0.69199,-6.79585 0.33595,-1.41591 0.2942,-2.3144 0.25245,-3.21289 0.0667,-0.41806 0.13335,-0.83614 0.61257,-1.64319 0.71984,-1.07512 1.02716,-1.76123 1.61369,-2.48757 0.29188,-0.69186 0.30456,-1.34347 0.3736,-2.23973 0.13349,-0.39311 0.21064,-0.54161 0.6537,-0.68477 1.69961,-1.04182 3.03332,-2.08902 4.64081,-3.35115 1.25216,-0.22941 4.45028,-0.21712 4.6291,-0.94577 1.11012,-4.52376 4.46494,-3.53902 7.44649,-3.27227 -2.42983,10.12205 -4.85991,19.85528 -7.66593,29.58921 -1.12817,0.006 -1.88041,0.012 -2.99061,0.15868 -0.10739,1.55458 0.14319,2.96812 0.14836,4.54437 0.39485,3.65093 2.56607,4.18767 5.87308,3.32935 2.77639,0.30992 5.6352,1.32571 7.58098,0.40726 3.19023,-1.50591 5.78735,-4.2683 8.63459,-6.50078 m -19.2875,-13.21498 c -0.6558,-0.0473 -1.3116,-0.0945 -1.9674,-0.14177 -0.002,0.2805 -0.004,0.561 -0.006,0.8415 0.65802,-0.0286 1.31603,-0.0571 1.97341,-0.69973 m -6.26197,4.73875 c -0.27073,0.25684 -0.54147,0.51367 -0.81221,0.77049 0.10698,0.11139 0.30042,0.32599 0.30847,0.31925 0.28566,-0.2392 0.55392,-0.49918 0.50374,-1.08974 m 2.25557,3.81751 c -0.2579,-0.27123 -0.51581,-0.54244 -0.77371,-0.81366 -0.11204,0.10711 -0.32756,0.3012 -0.32117,0.3088 0.24041,0.286 0.50122,0.55484 1.09488,0.50486 m -6.05699,-8.18442 c -0.19395,0.17302 -0.38791,0.34604 -0.58186,0.51906 0.29306,0.0744 0.58613,0.1488 0.87919,0.22319 0.0407,-0.22411 0.0814,-0.44822 -0.29733,-0.74225 m 0.94486,11.38681 c 0,0 0.0943,-0.053 0,0 z"
       id="path8" /><path
       fill="#d7d7d7"
       opacity="1"
       stroke="none"
       d="m 188.25181,117.88406 c -0.31444,-1.13709 -0.31444,-2.43448 -0.31444,-3.84172 -2.75154,1.19438 -5.27713,2.19194 -7.71294,3.37442 -2.69186,1.3068 -6.26571,1.93274 -5.16075,6.51338 0.0956,0.39641 -2.6488,1.47793 -4.45997,1.78869 0.82115,-5.10761 2.49107,-9.7033 3.09831,-14.43537 0.54831,-4.27271 -0.0656,-8.69456 0.12862,-13.242994 0.58975,-0.554939 0.88395,-0.917511 1.17816,-1.28009 2.53692,2.086052 5.16421,2.411584 8.17238,0.849808 1.27037,-0.659546 2.91232,-0.950539 4.34985,-0.857895 2.04889,0.132042 4.91539,0.135269 5.84651,1.380012 0.86183,1.152079 -0.16936,3.917549 -0.70674,5.879449 -1.26001,4.60029 -2.72347,9.14487 -4.41899,13.87231 z"
       id="path9" /><path
       fill="#f2f2f2"
       opacity="1"
       stroke="none"
       d="m 174.8372,96.485298 c -0.12261,0.637657 -0.41681,1.000229 -1.39049,1.480644 -5.8468,0.393998 -10.70412,1.063648 -13.55707,6.382118 -1.46063,2.7229 -3.60528,5.07889 -5.76747,7.72292 -0.47534,0.96853 -0.62396,1.81485 -0.81958,2.99123 -1.07588,2.54053 -2.10477,4.751 -3.13365,6.96147 -2.98126,0.12208 -6.33608,-0.86266 -7.4462,3.6611 -0.17882,0.72865 -3.37694,0.71636 -4.6291,0.94577 -1.60749,1.26213 -2.9412,2.30933 -4.67809,3.05643 -0.4797,-0.4827 -0.55624,-0.66533 -0.6328,-0.84798 0.16503,-0.36602 0.33007,-0.73204 0.95352,-1.48155 0.57473,-1.16551 0.69106,-1.94751 0.80738,-2.72951 1.41409,-3.01926 2.8282,-6.03852 4.82332,-9.36674 0.86154,-1.03936 1.14207,-1.76976 1.42259,-2.50015 0.22011,-0.48594 0.44021,-0.97187 1.37158,-1.32679 1.42717,0.25583 2.14311,0.38066 3.20071,0.4563 1.48095,-1.06726 2.76256,-1.96743 3.72629,-3.13092 1.46713,-1.77122 2.71408,-3.72483 4.35733,-5.76417 3.02655,-2.77432 5.75028,-5.385462 8.47402,-7.996599 0.17468,-0.02326 0.34936,-0.04653 1.08398,0.06464 3.3268,0.0767 6.09369,0.01898 8.86057,-0.03874 0.93385,0.395149 1.86769,0.790298 2.97316,1.460533 m -26.43229,22.499336 c -0.26658,0.13421 -0.53317,0.26843 -0.79977,0.40265 0.45119,-0.11821 0.90236,-0.23642 1.62161,-0.48221 -0.11433,0.0176 -0.22867,0.0352 -0.82184,0.0796 m -2.05549,-2.9875 c -0.48789,0.0952 -0.97579,0.19045 -1.46367,0.28567 0.0846,0.22326 0.16925,0.44652 0.25388,0.66979 0.59069,-0.31901 1.18139,-0.63801 2.03462,-1.06212 -0.084,0.0386 -0.16791,0.0771 -0.82483,0.10666 z"
       id="path10" /><path
       fill="#e5e5e5"
       opacity="1"
       stroke="none"
       d="m 196.05701,187.26195 c -3.40289,5.35389 -9.36592,5.91386 -14.62181,7.75116 -9.13398,3.19301 -18.52255,2.56291 -27.71968,0.83001 -6.58668,-1.24105 -12.9451,-3.73194 -19.3535,-5.82402 -0.66916,-0.21844 -0.98643,-1.51483 -1.57423,-2.96045 -1.23418,-1.04168 -2.36107,-1.43397 -3.48798,-1.82626 -0.93846,0.0374 -1.87691,0.0747 -2.81949,-0.39319 0.15028,-0.62388 0.30468,-0.74248 0.82613,-0.86514 1.11365,-0.99265 1.86024,-1.98122 2.77205,-3.1994 0.25918,-0.39308 0.35318,-0.55657 0.44719,-0.72005 8.51025,4.50646 16.60054,10.38164 25.64227,13.15596 10.18135,3.12396 20.97955,1.33455 30.92163,-3.25833 2.78461,-1.28638 5.5078,-2.7057 8.53542,-3.60346 0.27627,0.46058 0.432,0.91317 0.432,0.91317 z"
       id="path11" /><path
       fill="#f2f2f2"
       opacity="1"
       stroke="none"
       d="m 210.31007,93.963531 c 0.0902,-1.375419 0.18039,-2.750839 0.45675,-4.808761 0.79796,-1.821968 1.40972,-2.961449 2.02147,-4.100929 0.41677,0.336219 0.83353,0.672432 1.25707,1.641624 -0.178,1.741592 -0.36275,2.850205 -0.6337,4.476013 1.47594,-0.604431 2.54033,-1.040329 4.74234,-1.942093 -0.25925,3.202774 -0.45751,5.652031 -0.6156,7.605332 1.4807,0.893593 3.39145,2.046715 5.3022,3.199833 0.23505,0.45018 0.47009,0.90036 0.26939,1.6934 -1.75461,1.46346 -3.07347,2.58408 -4.39233,3.7047 0.21808,0.29972 0.43614,0.59944 0.6542,0.89917 1.3283,-0.37827 2.65659,-0.75655 4.85494,-1.38259 -2.80582,4.19993 -5.06564,7.58259 -7.32547,10.96525 1.7327,0.46886 2.59263,0.0852 3.49158,-0.14793 3.19303,-0.82818 5.04354,-0.30942 3.58479,3.59368 -0.27657,0.73997 -0.16498,1.62502 -0.34012,2.80572 -0.64131,2.21374 -1.17499,4.06489 -1.73491,5.61103 -0.68535,-0.47746 -1.34445,-0.64992 -2.3107,-0.75258 -2.0972,0.334 -3.88723,0.59822 -5.61476,0.4926 0.12169,-2.72402 0.18085,-5.07823 0.24001,-7.43243 0.007,-0.49187 0.0138,-0.98373 0.56057,-1.89643 0.20229,-6.06728 0.21416,-11.76694 -0.63429,-17.33555 -0.37094,-2.434514 -2.50178,-4.600904 -3.83343,-6.889059 z"
       id="path12" /><path
       fill="#eaeaea"
       opacity="1"
       stroke="none"
       d="m 256.3798,156.98997 c 0.0829,0.45884 0.16574,0.91768 0.0451,2.01294 0.0819,2.85822 0.36744,5.07999 0.65293,7.30178 0.16757,0.25187 0.24572,0.52897 0.0683,1.39485 0.48144,1.14207 1.12905,1.72061 1.77664,2.29915 0.0698,0.475 0.13952,0.95002 -0.41373,1.75027 -4.19493,1.18355 -7.7668,2.04184 -11.56633,2.95485 -1.38618,3.9231 1.85184,4.66705 4.65627,5.87685 -0.56356,1.47801 -0.90729,2.65712 -1.42118,4.10342 -0.69443,0.57984 -1.2187,0.89246 -1.74298,1.20508 -1.98787,-2.16679 -3.97574,-4.33357 -6.21026,-7.03648 -0.73713,-1.35535 -1.22757,-2.17458 -1.71801,-2.99382 0,0 -0.47844,-0.14319 -0.57177,-0.6782 -0.27805,-1.39247 -0.46274,-2.24992 -0.64745,-3.10737 -0.75177,-1.73752 -1.50352,-3.47504 -2.28055,-5.84801 0.0157,-0.84119 0.0566,-1.04694 0.52258,-1.24039 1.2753,0.0288 2.12554,0.0453 3.13422,0.33655 0.14694,0.90744 0.13544,1.54013 0.27454,2.45432 1.42999,1.26538 2.70938,2.24926 3.98875,3.23314 0.45078,-0.23159 0.90155,-0.46317 1.35231,-0.69475 -0.4079,-1.51473 -0.81581,-3.02945 -1.02067,-4.8593 2.86229,-3.01801 5.52154,-5.7209 8.46132,-8.40251 0.8421,0.0194 1.40368,0.0175 2.14633,0.0622 0.18112,0.0465 0.51367,-0.12453 0.51367,-0.12453 m -10.9314,15.39768 c 0,0 -0.0992,0.16153 -0.0992,0.16153 0,0 0.2038,-0.0192 0.0992,-0.16153 z"
       id="path13" /><path
       fill="#cbcbcb"
       opacity="1"
       stroke="none"
       d="m 196.26414,186.92744 c -0.20713,0.33451 -0.36286,-0.11808 -0.331,-0.35527 5.57656,-5.81144 11.51532,-11.05682 16.53388,-17.07016 3.62784,-4.34698 5.9819,-9.74641 9.02908,-14.59793 0.58276,-0.92784 1.74881,-1.48935 2.64575,-2.21986 0.34171,1.14502 1.29488,2.56778 0.92218,3.38834 -1.89467,4.1715 -3.5347,8.67463 -6.37362,12.15693 -6.13697,7.5277 -11.99291,15.67522 -22.42627,18.69795 z"
       id="path14" /><path
       fill="#d7d7d7"
       opacity="1"
       stroke="none"
       d="m 255.68504,157.06802 c -0.56156,0.002 -1.12314,0.004 -2.00524,-0.42184 0.23937,-4.65784 -4.12396,-3.73909 -5.49074,-5.7334 0.80655,-0.35731 1.32161,-0.63078 2.17105,-0.96573 4.4,-3.45769 0.89124,-6.15811 -0.19625,-9.25714 4.95025,-2.05321 1.75773,-6.91359 3.94273,-9.71103 0.95998,-0.008 1.91997,-0.016 3.24269,0.4112 -0.32831,3.94868 -0.68359,7.57171 -1.78598,10.95104 -1.83725,5.63213 -0.41083,7.73072 5.50034,7.80488 6.93911,0.087 13.87439,0.47903 20.81134,0.73877 0.0334,0.67156 0.0668,1.34315 0.0939,2.35095 -7.86017,0.42782 -15.71405,0.51942 -24.32297,0.73034 -1.15698,1.11353 -1.55893,2.10775 -1.96087,3.10196 z"
       id="path15" /><path
       fill="#f2f2f2"
       opacity="1"
       stroke="none"
       d="m 296.8976,182.95366 c -8.85893,10.07892 -31.44627,16.07841 -40.66313,8.74086 -0.26989,-1.38696 -0.27856,-2.13361 0.12659,-2.79544 2.49301,0.0848 4.57221,0.0848 6.86536,0.0848 -0.71601,-1.12112 -1.27704,-1.99956 -1.35602,-2.91186 1.44427,-0.10875 2.40649,-0.18364 3.36874,-0.25853 0.44788,0.31144 0.89579,0.62289 1.44815,1.52339 0.1045,1.71747 0.1045,2.84585 0.1045,3.74277 2.22363,-0.17135 4.47766,-0.34502 6.73165,-0.5187 0.14728,-0.1582 0.32572,-0.21064 1.0557,0.0742 3.40097,-0.51343 6.28155,-1.2584 9.16211,-2.00338 5.98849,-1.94867 10.18919,-5.97396 13.5752,-11.12039 0.42682,0.94341 0.4871,1.63584 0.40281,2.63785 -0.37024,1.14121 -0.59595,1.97282 -0.82166,2.80443 z"
       id="path16" /><path
       fill="#e7e7e7"
       opacity="1"
       stroke="none"
       d="m 165.92294,63.979736 c 2.20259,-0.131973 4.40516,-0.263946 7.49186,-0.237732 1.85208,0.144959 2.82009,0.13173 3.78807,0.118508 1.71299,0.583771 3.42598,1.167541 5.4767,2.109794 0.93552,0.387932 1.53333,0.417397 2.13112,0.446854 2.15071,0.626328 4.30144,1.252655 6.6901,2.373138 0.31237,0.924363 0.38681,1.354569 0.46124,1.784768 -3.53687,-0.669075 -7.07979,-1.308228 -10.60787,-2.02079 -1.58563,-0.320252 -3.14161,-0.787209 -5.20329,-1.575501 -1.05475,-0.315338 -1.61728,-0.242775 -2.17979,-0.170212 -7.83644,1.535317 -15.69278,2.978707 -23.49604,4.667359 -2.08171,0.450492 -3.26893,0.586815 -2.02826,-2.30037 2.73037,-1.186042 4.61347,-2.100837 6.49656,-3.01564 1.87872,-0.492706 3.75743,-0.985405 6.40731,-1.367493 2.03821,-0.197151 3.30524,-0.504921 4.57229,-0.812683 z"
       id="path17" /><path
       fill="#cbcbcb"
       opacity="1"
       stroke="none"
       d="m 192.3372,70.559219 c -0.4496,-0.414352 -0.52404,-0.844558 -0.56693,-1.49266 7.76145,3.860176 15.51018,7.913452 20.82764,15.704147 -0.42137,1.422615 -1.03313,2.562096 -1.69788,4.031235 -5.29223,-5.328133 -10.51459,-11.001762 -15.79246,-16.623276 -0.64606,-0.688118 -1.58954,-1.097 -2.77037,-1.619446 z"
       id="path18" /><path
       fill="#c7c7c7"
       opacity="1"
       stroke="none"
       d="m 265.13377,185.4622 c -0.85688,0.4262 -1.8191,0.50109 -3.48401,0.58428 -0.99481,-0.15981 -1.12128,-0.41121 -0.80548,-0.94057 -0.43491,-1.16898 -1.14649,-2.14333 -2.13227,-3.3221 -1.31115,-1.54896 -2.34808,-2.89351 -3.40347,-4.26193 -1.49847,1.18507 -2.49411,1.97249 -3.48978,2.75989 -3.02424,-0.91091 -6.26226,-1.65486 -4.87608,-5.57796 3.79953,-0.91301 7.3714,-1.7713 11.26299,-2.7036 2.48736,4.3209 4.65502,8.71579 6.9281,13.46199 z"
       id="path19" /><path
       fill="#e5e5e5"
       opacity="1"
       stroke="none"
       d="m 297.86382,179.83963 c -0.0603,-0.69241 -0.12055,-1.38484 -0.26322,-2.59273 -0.14938,-4.53802 -0.0476,-8.57242 -0.32879,-12.57994 -0.30844,-4.39616 1.05215,-5.98088 5.49783,-4.8407 0.61215,1.51824 0.99554,2.37062 1.37897,3.22299 0.0419,0.62523 0.0839,1.25048 -0.009,2.66834 -0.0714,1.43666 -0.008,2.0807 0.0562,2.72473 -0.20599,0.6442 -0.41202,1.28838 -1.15469,2.3205 -1.41175,2.96327 -2.28678,5.5386 -3.16181,8.11392 -0.22925,0.25082 -0.45846,0.50165 -1.11316,0.86337 -0.4255,0.11089 -0.90182,0.0995 -0.90185,0.0995 z"
       id="path20" /><path
       fill="#cbcbcb"
       opacity="1"
       stroke="none"
       d="m 223.74522,121.80336 c 0.0675,-0.81811 -0.0441,-1.70316 0.23248,-2.44313 1.45875,-3.9031 -0.39176,-4.42186 -3.58479,-3.59368 -0.89895,0.23315 -1.75888,0.61679 -3.49158,0.14793 2.25983,-3.38266 4.51965,-6.76532 7.32547,-10.96525 -2.19835,0.62604 -3.52664,1.00432 -4.85494,1.38259 -0.21806,-0.29973 -0.43612,-0.59945 -0.6542,-0.89917 1.31886,-1.12062 2.63772,-2.24124 4.2684,-3.44409 3.51134,6.19521 2.83406,12.69437 1.18028,19.56376 -0.23634,0.32789 -0.42111,0.25104 -0.42112,0.25104 z"
       id="path21" /><path
       fill="#b8b8b8"
       opacity="1"
       stroke="none"
       d="m 112.85124,166.01797 c -0.50831,-2.36175 -1.01663,-4.72349 -1.64578,-7.64669 1.61495,0.7556 2.90233,1.35794 4.4506,2.08233 -0.23628,-2.30986 -0.43364,-4.23924 -0.51246,-6.57025 1.67171,3.62894 3.22487,7.65952 4.4044,12.05489 -0.43012,1.5885 -0.4866,2.81221 -0.60577,4.3733 -1.38924,0.12535 -2.7158,-0.0867 -4.03255,-0.65039 -0.67961,-1.4488 -1.36902,-2.54599 -2.05844,-3.64319 z"
       id="path22" /><path
       fill="#e0e0e0"
       opacity="1"
       stroke="none"
       d="m 204.02384,151.12016 c 0.70131,-0.6956 1.40262,-1.3912 2.48905,-1.87224 1.72587,-0.94914 3.06662,-2.11286 4.40736,-3.27659 0.354,-1.52806 0.70801,-3.05611 1.45229,-4.46399 1.76242,-1.52048 3.15641,-3.14351 4.4996,-4.80756 1.00722,-1.24785 1.94908,-2.54847 2.97516,-3.77052 0.0551,0.0551 0.16551,0.16499 0.0924,0.53465 -0.64696,2.57657 -1.22084,4.78348 -1.79471,6.99039 -0.69018,1.3589 -1.38035,2.71782 -2.62752,4.32254 -0.91232,0.88705 -1.2677,1.52829 -1.62307,2.16954 -2.34066,2.34433 -4.68134,4.68866 -7.45374,6.73401 -0.50996,-0.47125 -0.58819,-0.64353 -0.67792,-1.10565 -0.58731,-0.6781 -1.16311,-1.06635 -1.73892,-1.45458 z"
       id="path23" /><path
       fill="#d7d7d7"
       opacity="1"
       stroke="none"
       d="m 179.50538,154.61713 c -0.53539,-0.62456 -1.66983,-1.82251 -1.47446,-2.73607 1.84157,-8.61112 3.90997,-17.17372 6.2576,-25.83637 -1.33493,8.16953 -3.0372,16.42063 -4.66722,24.68599 -0.21921,1.11154 -0.0743,2.29488 -0.11592,3.88645 z"
       id="path24" /><path
       fill="#d7d7d7"
       opacity="1"
       stroke="none"
       d="m 301.24755,152.73471 c -0.0225,-3.6893 0.39144,-7.41586 0.57455,-11.15376 0.039,-0.79698 -0.76132,-1.63509 -1.53976,-2.5176 -0.36475,-0.0634 -0.35624,-0.0569 -0.3562,-0.0569 0.0164,-3.23222 0.0329,-6.46443 0.13516,-10.13548 3.21493,7.48972 4.84164,15.50835 1.18625,23.86371 z"
       id="path25" /><path
       fill="#e0e0e0"
       opacity="1"
       stroke="none"
       d="m 210.50346,94.274048 c 1.13826,1.977638 3.2691,4.144028 3.64004,6.578542 0.84845,5.56861 0.83658,11.26827 0.88925,17.05953 -0.75274,-3.76721 -2.61235,-7.26561 -2.02273,-11.62333 0.5045,-3.72882 -1.44762,-7.790026 -2.50656,-12.014742 z"
       id="path26" /><path
       fill="#f2f2f2"
       opacity="1"
       stroke="none"
       d="m 240.50512,165.04668 c -0.85025,-0.0165 -1.70049,-0.033 -3.08827,-0.26699 -0.65985,-0.54881 -0.89728,-0.72455 -1.24984,-0.74466 -0.49403,-2.81582 -0.98806,-5.63166 -0.94728,-8.70669 0.94814,-0.60867 1.36147,-0.95818 1.77481,-1.30765 0.52236,-0.14133 1.04468,-0.28267 1.81986,-0.67883 0.25285,-0.25484 0.41556,-0.30634 0.41556,-0.30634 0,0 0.31422,-0.004 0.59373,0.27374 0.10105,2.37757 -0.0774,4.47721 -0.51101,6.61237 -0.0829,0.75412 0.0894,1.47273 0.44181,2.53616 0.3703,1.09285 0.56048,1.84087 0.75063,2.58889 z"
       id="path27" /><path
       fill="#cbcbcb"
       opacity="1"
       stroke="none"
       d="m 161.77471,94.852592 c -2.57896,2.757416 -5.30269,5.368558 -8.4079,8.086408 -0.38147,0.1067 -0.53115,-0.0162 -0.53042,-0.45992 -0.15976,-1.31193 -0.32027,-2.18014 -0.48076,-3.04834 0,0 0.0909,0.13071 0.36409,0.18781 0.55862,0.0287 0.84401,2.8e-4 1.12941,-0.0281 -0.20387,-0.30526 -0.40775,-0.610531 -0.6116,-0.915798 1.98666,-3.037522 4.71655,-4.50319 8.53718,-3.82203 z"
       id="path28" /><path
       fill="#cbcbcb"
       opacity="1"
       stroke="none"
       d="m 153.064,103.10217 c -1.26178,1.93264 -2.50873,3.88625 -3.97586,5.65747 -0.96373,1.16349 -2.24534,2.06366 -3.66354,2.82775 -1.21515,-0.73943 -2.15137,-1.22486 -3.0876,-1.7103 0.53264,-0.88952 1.06527,-1.77904 2.05688,-2.45613 0.79854,0.36887 1.13811,0.52533 1.47768,0.68178 0.0649,-0.26776 0.12971,-0.53553 0.19458,-0.80329 -0.42287,-0.0812 -0.84573,-0.16234 -1.2686,-0.24351 1.7595,-2.08444 3.51903,-4.16889 5.57446,-6.00174 -0.24576,1.15343 -0.78744,2.05528 -1.67694,3.53623 1.85411,-0.74674 2.99736,-1.20717 4.1406,-1.66761 0,-1e-5 0.14968,0.12288 0.22834,0.17935 z"
       id="path29" /><path
       fill="#e5e5e5"
       opacity="1"
       stroke="none"
       d="m 114.89988,170.01277 c 1.32655,0.21207 2.65311,0.42413 4.27983,0.0782 0.49131,-1.17475 0.68245,-1.79149 0.87358,-2.40822 -1e-5,0 0.48203,0.13154 0.60317,0.60977 0.6232,0.93242 1.12528,1.3866 1.62735,1.84078 0.14453,0.12783 0.28904,0.25567 0.4992,0.97138 0.46191,1.30886 0.85818,2.02982 1.22433,2.78708 -0.0301,0.0363 -0.0904,0.10884 -0.47288,0.12116 -2.5113,0.68985 -4.6401,1.36737 -6.76889,2.04489 -1.01858,-1.28888 -2.03717,-2.57773 -2.92227,-4.48767 0.44119,-0.93318 0.74888,-1.24527 1.05658,-1.55736 z"
       id="path30" /><path
       fill="#cbcbcb"
       opacity="1"
       stroke="none"
       d="m 222.72446,99.68147 c -1.79461,-0.800038 -3.70536,-1.95316 -5.18606,-2.846753 0.15809,-1.953301 0.35635,-4.402558 0.6156,-7.605332 -2.20201,0.901764 -3.2664,1.337662 -4.74234,1.942093 0.27095,-1.625808 0.4557,-2.734421 0.68762,-4.213348 4.50945,0.309929 4.9471,4.296516 6.41132,7.418693 0.76056,1.621766 1.40231,3.299256 2.21386,5.304647 z"
       id="path31" /><path
       fill="#e0e0e0"
       opacity="1"
       stroke="none"
       d="m 116.9465,176.33566 c 1.94786,-0.95538 4.07666,-1.6329 6.59585,-1.93106 1.00916,3.01312 2.14719,5.79042 -1.50671,7.24327 -1.63607,-1.67811 -3.27214,-3.35624 -5.08914,-5.31221 z"
       id="path32" /><path
       fill="#e5e5e5"
       opacity="1"
       stroke="none"
       d="m 122.17584,181.93469 c 3.5137,-1.73967 2.37567,-4.51697 1.74903,-7.54242 -0.008,-0.39168 0.0524,-0.46423 0.43619,-0.41551 0.62675,0.0545 0.86965,0.0603 1.11255,0.066 1.58151,1.82217 3.16304,3.64433 4.89832,5.73916 0.0598,0.43614 -0.0343,0.59963 -0.66111,0.99945 -1.27903,1.22315 -2.02524,2.20995 -2.77142,3.19675 -0.1544,0.11857 -0.3088,0.23717 -0.70908,0.51343 -1.46869,-0.65155 -2.69149,-1.4608 -4.05448,-2.55689 z"
       id="path33" /><path
       fill="#c7c7c7"
       opacity="1"
       stroke="none"
       d="m 255.94727,188.81425 c 0.009,0.74666 0.0173,1.49331 0.0234,2.61403 -2.45856,-1.3961 -4.91452,-3.16626 -7.45319,-5.23777 0.44158,-0.61397 0.96585,-0.92659 2.01883,-1.45672 2.1561,1.21514 3.78353,2.6478 5.41095,4.08046 z"
       id="path34" /><path
       fill="#d7d7d7"
       opacity="1"
       stroke="none"
       d="m 171.57139,94.887558 c -2.47423,0.194931 -5.24112,0.252647 -8.30759,0.221893 2.35152,-3.87799 5.19475,-1.764351 8.30759,-0.221893 z"
       id="path35" /><path
       fill="#e0e0e0"
       opacity="1"
       stroke="none"
       d="m 213.9775,120.37978 c 0.18056,2.05899 0.1214,4.4132 0.001,7.41163 -0.0529,0.82622 -0.0448,1.0082 -0.0366,1.19019 -0.69999,0.97616 -1.39999,1.95234 -2.40527,2.98828 0.53017,-3.72513 1.3656,-7.51001 2.44075,-11.5901 z"
       id="path36" /><path
       fill="#c7c7c7"
       opacity="1"
       stroke="none"
       d="m 273.26426,190.33681 c -1.99481,0.39784 -4.24884,0.57151 -6.47247,0.74286 0,-0.89692 0,-2.0253 0.01,-3.48948 2.07434,0.61698 4.13892,1.56971 6.46274,2.74662 z"
       id="path37" /><path
       fill="#c7c7c7"
       opacity="1"
       stroke="none"
       d="m 283.50532,188.52637 c -2.64463,0.85038 -5.52521,1.59535 -8.80442,2.18792 2.59037,-0.86604 5.57944,-1.57969 8.80442,-2.18792 z"
       id="path38" /><path
       fill="#b8b8b8"
       opacity="1"
       stroke="none"
       d="m 300.15886,178.72211 c 0.595,-2.42069 1.47003,-4.99602 2.63834,-7.71897 -0.59064,2.42304 -1.47449,4.99367 -2.63834,7.71897 z"
       id="path39" /><path
       fill="#e0e0e0"
       opacity="1"
       stroke="none"
       d="m 210.30344,133.51701 c -0.96721,2.65963 -2.22569,5.52217 -3.81976,8.44524 0.95242,-2.70708 2.24045,-5.4747 3.81976,-8.44524 z"
       id="path40" /><path
       fill="#c3c3c3"
       opacity="1"
       stroke="none"
       d="m 223.6376,122.16595 c 0.10763,-0.36259 0.2924,-0.28574 0.39039,-0.26556 -0.38887,3.00625 -0.87575,5.99231 -1.72618,8.77454 -0.36667,-1.00022 -0.36978,-1.79659 -0.37291,-2.59295 0.53369,-1.85114 1.06737,-3.70229 1.7087,-5.91603 z"
       id="path41" /><path
       fill="#b8b8b8"
       opacity="1"
       stroke="none"
       d="m 114.14633,149.74628 c -0.74444,-2.21387 -1.43583,-4.81015 -2.02341,-7.81569 0.76136,2.20492 1.4189,4.8191 2.02341,7.81569 z"
       id="path42" /><path
       fill="#c7c7c7"
       opacity="1"
       stroke="none"
       d="m 257.36149,166.15726 c -0.56915,-2.07436 -0.85465,-4.29613 -0.92069,-6.80298 0.54773,2.02847 0.87604,4.34201 0.92069,6.80298 z"
       id="path43" /><path
       fill="#cbcbcb"
       opacity="1"
       stroke="none"
       d="m 236.97626,153.63156 c -0.39506,0.7386 -0.80839,1.08811 -1.50189,1.43378 -0.0789,-2.12789 0.12244,-4.25197 0.57263,-6.68167 0.46959,1.41583 0.69028,3.1373 0.92926,5.24789 z"
       id="path44" /><path
       fill="#c3c3c3"
       opacity="1"
       stroke="none"
       d="m 218.41863,140.24383 c 0.30025,-1.99644 0.87413,-4.20335 1.71791,-6.83279 0.26992,-0.42252 0.66877,-0.51733 0.66877,-0.51733 0,0 0.40797,0.0407 0.40797,0.0407 -0.84035,2.36633 -1.6807,4.73265 -2.79465,7.30946 z"
       id="path45" /><path
       fill="#d7d7d7"
       opacity="1"
       stroke="none"
       d="m 185.32969,125.07725 c 0.23143,-1.89237 0.76297,-3.94409 1.63644,-6.07794 -0.21747,1.91811 -0.7769,3.91835 -1.63644,6.07794 z"
       id="path46" /><path
       fill="#b8b8b8"
       opacity="1"
       stroke="none"
       d="m 112.00717,139.7244 c -0.57274,-1.61553 -1.02568,-3.50028 -1.19354,-5.57605 0.62784,1.64158 0.97059,3.47421 1.19354,5.57605 z"
       id="path47" /><path
       fill="#cbcbcb"
       opacity="1"
       stroke="none"
       d="m 154.57766,66.19516 c -1.51741,0.879555 -3.40051,1.79435 -5.68187,2.665451 1.50655,-0.905861 3.41138,-1.768028 5.68187,-2.665451 z"
       id="path48" /><path
       fill="#e0e0e0"
       opacity="1"
       stroke="none"
       d="m 129.42619,185.49068 c 1.00053,0.134 2.12742,0.52629 3.37896,1.18667 -1.00111,-0.13075 -2.12686,-0.52957 -3.37896,-1.18667 z"
       id="path49" /><path
       fill="#e0e0e0"
       opacity="1"
       stroke="none"
       d="m 221.44932,132.71115 c -0.23604,0.22322 -0.64401,0.18256 -0.64401,0.18256 0,0 -0.39885,0.0948 -0.59568,0.14767 -0.19682,0.0529 -0.30723,-0.0571 -0.29234,-0.45871 0.004,-2.14378 -0.007,-3.88592 -0.0182,-5.62806 0.6591,0.17245 1.3182,0.34491 2.00354,0.82237 0.0294,1.10136 0.0325,1.89773 0.0976,3.08856 -0.0636,0.80379 -0.18928,1.21307 -0.55096,1.84561 z"
       id="path50" /><path
       fill="#d7d7d7"
       opacity="1"
       stroke="none"
       d="m 296.71709,121.7141 c -0.87433,-1.00635 -1.80923,-2.34854 -2.79205,-4.01947 0.87854,1.00871 1.80499,2.34616 2.79205,4.01947 z"
       id="path51" /><path
       fill="#e7e7e7"
       opacity="1"
       stroke="none"
       d="m 152.83639,102.47909 c -1.14397,0.90417 -2.28722,1.3646 -4.14133,2.11134 0.8895,-1.48095 1.43118,-2.3828 2.03154,-3.60242 0.40997,-0.69559 0.76128,-1.07342 1.3708,-1.50426 0.41872,0.81519 0.57923,1.6834 0.73899,2.99534 z"
       id="path52" /><path
       fill="#dbdbdb"
       opacity="1"
       stroke="none"
       d="m 106.53336,157.29465 c 0.7437,1.16966 1.40654,2.66931 1.87848,4.38559 -0.78037,-1.20745 -1.36986,-2.63153 -1.87848,-4.38559 z"
       id="path53" /><path
       fill="#e0e0e0"
       opacity="1"
       stroke="none"
       d="m 114.90968,169.66116 c -0.3175,0.6637 -0.62519,0.97579 -1.07169,1.5903 -0.41162,0.0964 -0.68445,-0.10954 -0.98354,-0.94195 -0.34722,-1.55054 -0.6682,-2.47462 -0.98917,-3.39873 0.1404,-0.27469 0.33582,-0.50212 0.7861,-0.78755 0.88928,0.99194 1.57869,2.08913 2.2583,3.53793 z"
       id="path54" /><path
       fill="#b8b8b8"
       opacity="1"
       stroke="none"
       d="m 111.75532,127.59297 c -0.55872,-0.99053 -1.17826,-2.40612 -1.63518,-4.27675 0.43701,-0.69832 0.71137,-0.94159 0.98573,-1.18486 0.19622,1.67886 0.39242,3.35771 0.64945,5.46161 z"
       id="path55" /><path
       fill="#e0e0e0"
       opacity="1"
       stroke="none"
       d="m 195.6962,155.50824 c -0.15539,1.03979 -0.62025,2.27135 -1.44772,3.49072 0.13767,-1.10777 0.63796,-2.20337 1.44772,-3.49072 z"
       id="path56" /><path
       fill="#cbcbcb"
       opacity="1"
       stroke="none"
       d="m 239.45551,130.8726 c 0.1657,1.21109 -0.003,2.55223 -0.46722,4.05707 -0.15296,-1.19987 -0.01,-2.56344 0.46722,-4.05707 z"
       id="path57" /><path
       fill="#cbcbcb"
       opacity="1"
       stroke="none"
       d="m 243.34811,124.63351 c -0.22336,1.24862 -0.67678,2.72959 -1.44356,4.33545 0.19557,-1.28442 0.70453,-2.69377 1.44356,-4.33545 z"
       id="path58" /><path
       fill="#e0e0e0"
       opacity="1"
       stroke="none"
       d="m 203.49308,145.8367 c -0.32075,1.27708 -0.94801,2.66364 -1.90216,4.12366 0.31393,-1.2891 0.95479,-2.65164 1.90216,-4.12366 z"
       id="path59" /><path
       fill="#dbdbdb"
       opacity="1"
       stroke="none"
       d="m 111.30275,121.80576 c -0.47124,0.56887 -0.7456,0.81214 -1.18028,1.14579 -0.12068,-0.89946 -0.0811,-1.88931 0.47497,-2.87693 0.51641,0.002 0.98286,-0.1017 0.98286,-0.1017 -0.0269,0.50242 -0.0538,1.00483 -0.27755,1.83284 z"
       id="path60" /><path
       fill="#cbcbcb"
       opacity="1"
       stroke="none"
       d="m 165.62946,63.910934 c -0.97357,0.376564 -2.2406,0.684334 -3.91513,0.884461 0.93556,-0.389519 2.27863,-0.671387 3.91513,-0.884461 z"
       id="path61" /><path
       fill="#d7d7d7"
       opacity="1"
       stroke="none"
       d="m 277.43705,109.40075 c -0.95831,-0.18792 -2.12039,-0.58909 -3.44989,-1.35564 0.97043,0.13719 2.10828,0.6398 3.44989,1.35564 z"
       id="path62" /><path
       fill="#b8b8b8"
       opacity="1"
       stroke="none"
       d="m 125.49332,173.7915 c -0.26261,0.24552 -0.50551,0.23975 -1.10214,0.14897 -0.74999,-0.80598 -1.14626,-1.52694 -1.52607,-2.55827 0.89361,0.51245 1.77076,1.33524 2.62821,2.4093 z"
       id="path63" /><path
       fill="#e0e0e0"
       opacity="1"
       stroke="none"
       d="m 199.64198,151.40201 c -0.47321,0.82506 -1.2593,1.6783 -2.35746,2.57464 0.47347,-0.82008 1.25902,-1.68325 2.35746,-2.57464 z"
       id="path64" /><path
       fill="#cbcbcb"
       opacity="1"
       stroke="none"
       d="m 177.06379,63.615372 c -0.8289,0.258362 -1.79691,0.271591 -3.24246,0.193588 0.71606,-0.207062 1.90973,-0.322899 3.24246,-0.193588 z"
       id="path65" /><path
       fill="#b8b8b8"
       opacity="1"
       stroke="none"
       d="m 304.33303,162.82706 c -0.56785,-0.63018 -0.95124,-1.48256 -1.30219,-2.70893 0.51718,0.57958 1.00192,1.53315 1.30219,2.70893 z"
       id="path66" /><path
       fill="#c7c7c7"
       opacity="1"
       stroke="none"
       d="m 255.86613,157.11449 c 0.22085,-1.04068 0.6228,-2.0349 1.33893,-3.13088 0.0849,0.76785 -0.14435,1.63747 -0.59943,2.75672 -0.22583,0.24964 -0.55838,0.42062 -0.7395,0.37416 z"
       id="path67" /><path
       fill="#e0e0e0"
       opacity="1"
       stroke="none"
       d="m 192.23856,162.8873 c 0.49317,-0.62203 1.31983,-1.2276 2.5018,-1.82096 -0.48588,0.62064 -1.32708,1.22904 -2.5018,1.82096 z"
       id="path68" /><path
       fill="#e0e0e0"
       opacity="1"
       stroke="none"
       d="m 120.11039,167.37198 c -0.24823,0.92749 -0.43937,1.54423 -0.86798,2.38156 -0.18101,-1.00308 -0.12453,-2.22679 0.16296,-3.60208 0.40805,0.20218 0.58508,0.55597 0.70502,1.22052 z"
       id="path69" /><path
       fill="#a0a0a0"
       opacity="1"
       stroke="none"
       d="m 129.98432,137.21535 c 0.2567,0.7201 0.29845,1.61859 0.0795,2.65999 -0.27194,-0.73195 -0.2832,-1.60677 -0.0795,-2.65999 z"
       id="path70" /><path
       fill="#b8b8b8"
       opacity="1"
       stroke="none"
       d="m 240.60332,176.16986 c 0.39364,0.50824 0.88408,1.32747 1.35151,2.46834 -0.43358,-0.50469 -0.84415,-1.33103 -1.35151,-2.46834 z"
       id="path71" /><path
       fill="#b8b8b8"
       opacity="1"
       stroke="none"
       d="m 239.05314,172.25928 c 0.41887,0.67146 0.60356,1.52891 0.72726,2.72509 -0.36116,-0.62054 -0.6613,-1.57983 -0.72726,-2.72509 z"
       id="path72" /><path
       fill="#f2f2f2"
       opacity="1"
       stroke="none"
       d="m 132.74277,130.9111 c -0.0127,0.65163 -0.0254,1.30324 -0.52955,1.90192 -0.49152,-0.0529 -0.89621,0.17241 -0.89621,0.17241 0.0523,-0.39469 0.1046,-0.78937 0.468,-1.43637 0.50145,-0.42316 0.717,-0.5517 0.95776,-0.63796 z"
       id="path73" /><path
       fill="#b8b8b8"
       opacity="1"
       stroke="none"
       d="m 113.5697,113.32959 c -0.1968,-0.87423 -0.14273,-1.9674 0.18188,-3.26518 0.20335,0.879 0.13618,1.96261 -0.18188,3.26518 z"
       id="path74" /><path
       fill="#cbcbcb"
       opacity="1"
       stroke="none"
       d="m 237.90835,139.28857 c 0.0762,0.66997 -0.0635,1.57943 -0.46317,2.6014 -0.0909,-0.7123 0.0782,-1.53711 0.46317,-2.6014 z"
       id="path75" /><path
       fill="#b8b8b8"
       opacity="1"
       stroke="none"
       d="m 297.71929,180.14923 c 0.14456,-0.3096 0.62088,-0.29823 0.8526,-0.24289 -0.20194,0.99385 -0.63556,1.93239 -1.37177,2.95911 -0.0768,-0.7434 0.1489,-1.57501 0.51917,-2.71622 z"
       id="path76" /><path
       fill="#dbdbdb"
       opacity="1"
       stroke="none"
       d="m 119.12811,98.70752 c 0.025,-0.802704 0.33108,-1.680794 0.91284,-2.65091 -0.0268,0.79715 -0.32929,1.68634 -0.91284,2.65091 z"
       id="path77" /><path
       fill="#e7e7e7"
       opacity="1"
       stroke="none"
       d="m 142.18562,110.02969 c 1.08761,0.33284 2.02383,0.81827 2.89732,1.60688 -0.77869,0.17835 -1.49463,0.0535 -2.68822,-0.3435 -0.49699,-0.55985 -0.45793,-0.83937 -0.2091,-1.26338 z"
       id="path78" /><path
       fill="#dbdbdb"
       opacity="1"
       stroke="none"
       d="m 111.64233,166.91989 c 0.54392,0.915 0.8649,1.83908 1.15954,3.13184 -0.53929,-0.57686 -1.05224,-1.52234 -1.69561,-2.77053 -0.13041,-0.30268 0.31311,-0.35218 0.53607,-0.36131 z"
       id="path79" /><path
       fill="#c7c7c7"
       opacity="1"
       stroke="none"
       d="m 258.89274,169.68472 c -0.61759,-0.26457 -1.2652,-0.84311 -1.82135,-1.7796 0.65808,0.24991 1.2247,0.85777 1.82135,1.7796 z"
       id="path80" /><path
       fill="#b8b8b8"
       opacity="1"
       stroke="none"
       d="m 122.35221,169.8745 c -0.57047,-0.19539 -1.07255,-0.64957 -1.53419,-1.39144 0.56115,0.18578 1.08187,0.65921 1.53419,1.39144 z"
       id="path81" /><path
       fill="#eaeaea"
       opacity="1"
       stroke="none"
       d="m 132.96009,157.29031 c 0.50679,0.26033 0.95621,0.80887 1.19284,1.529 -0.55861,-0.29921 -0.9044,-0.77001 -1.19284,-1.529 z"
       id="path82" /><path
       fill="#e0e0e0"
       opacity="1"
       stroke="none"
       d="m 200.17863,158.65979 c 0.25123,-0.52103 0.79394,-1.06187 1.65478,-1.58041 -0.24234,0.53506 -0.80282,1.04782 -1.65478,1.58041 z"
       id="path83" /><path
       fill="#b8b8b8"
       opacity="1"
       stroke="none"
       d="m 304.4276,168.32959 c -0.29608,-0.5313 -0.35989,-1.17534 -0.32837,-2.2982 0.25046,0.40927 0.40555,1.29738 0.32837,2.2982 z"
       id="path84" /><path
       fill="#dbdbdb"
       opacity="1"
       stroke="none"
       d="m 174.12232,66.955803 c 0.41127,-0.219803 0.9738,-0.292366 1.66934,-0.150322 -0.41735,0.242264 -0.96771,0.269913 -1.66934,0.150322 z"
       id="path85" /><path
       fill="#b8b8b8"
       opacity="1"
       stroke="none"
       d="m 235.91718,164.20464 c 0.60239,-0.1495 0.83982,0.0262 1.07462,0.56277 0.0716,0.41093 0.0306,0.61668 -0.10123,1.12364 -0.46838,-0.30478 -0.84581,-0.9108 -0.97339,-1.68641 z"
       id="path86" /><path
       fill="#dbdbdb"
       opacity="1"
       stroke="none"
       d="m 120.99003,94.629951 c -0.12449,-0.211143 -0.10376,-0.576934 0.0195,-1.089958 0.25451,-0.112671 0.40649,-0.07812 0.55848,-0.04356 -0.14426,0.326286 -0.28851,0.652573 -0.57798,1.133514 z"
       id="path87" /><path
       fill="#cbcbcb"
       opacity="1"
       stroke="none"
       d="m 184.62797,66.21347 c -0.41507,0.174233 -1.01288,0.144768 -1.69846,-0.08328 0.44672,-0.172539 0.98122,-0.146477 1.69846,0.08328 z"
       id="path88" /><path
       fill="#dbdbdb"
       opacity="1"
       stroke="none"
       d="m 105.60049,153.2218 c 0.40464,0.29802 0.68284,0.85126 0.78556,1.54207 -0.42099,-0.33723 -0.6665,-0.81204 -0.78556,-1.54207 z"
       id="path89" /><path
       fill="#d7d7d7"
       opacity="1"
       stroke="none"
       d="m 261.70084,109.8181 c -0.32617,0.4318 -0.92044,0.79188 -1.7919,1.10304 0.32315,-0.42421 0.92344,-0.79948 1.7919,-1.10304 z"
       id="path90" /><path
       fill="#a0a0a0"
       opacity="1"
       stroke="none"
       d="m 131.06495,133.18924 c 0.25206,-0.20381 0.65675,-0.42915 0.86906,-0.33597 -0.095,0.77927 -0.40233,1.46538 -0.97258,2.25781 -0.2248,-0.50178 -0.18667,-1.10992 0.10352,-1.92184 z"
       id="path91" /><path
       fill="#d7d7d7"
       opacity="1"
       stroke="none"
       d="m 285.3372,111.54462 c -0.57727,0.10717 -1.28333,-0.004 -2.22815,-0.39963 0.54062,-0.12888 1.31997,0.026 2.22815,0.39963 z"
       id="path92" /><path
       fill="#a0a0a0"
       opacity="1"
       stroke="none"
       d="m 132.79913,130.66647 c -0.29712,0.33089 -0.51267,0.45943 -0.89217,0.60831 -0.0282,-0.75931 0.13275,-1.49666 0.58475,-2.3349 0.3676,0.0818 0.44414,0.2644 0.55795,0.74174 -0.0399,0.44324 -0.11704,0.59174 -0.25053,0.98485 z"
       id="path93" /><path
       fill="#b8b8b8"
       opacity="1"
       stroke="none"
       d="m 111.34507,131.23376 c -0.11033,-0.56167 0.008,-1.21002 0.40705,-2.06002 0.12791,0.52336 -0.0254,1.24835 -0.40705,2.06002 z"
       id="path94" /><path
       fill="#d7d7d7"
       opacity="1"
       stroke="none"
       d="m 288.90202,113.69531 c -0.55954,-0.0721 -1.22889,-0.40873 -1.96015,-1.04159 0.57553,0.0615 1.21295,0.41929 1.96015,1.04159 z"
       id="path95" /><path
       fill="#cbcbcb"
       opacity="1"
       stroke="none"
       d="m 140.51203,112.87122 c -0.003,0.62022 -0.28352,1.35062 -0.87637,2.14505 -0.009,-0.63562 0.29512,-1.33525 0.87637,-2.14505 z"
       id="path96" /><path
       fill="#a0a0a0"
       opacity="1"
       stroke="none"
       d="m 134.27787,124.79148 c 0.14946,0.61846 0.0331,1.40046 -0.37531,2.31382 -0.15821,-0.62919 -0.0243,-1.38973 0.37531,-2.31382 z"
       id="path97" /><path
       fill="#a0a0a0"
       opacity="1"
       stroke="none"
       d="m 104.06644,121.62665 c 0.24476,0.54752 0.28136,1.23933 0.0302,2.16134 -0.27131,-0.51889 -0.25482,-1.26797 -0.0302,-2.16134 z"
       id="path98" /><path
       fill="#b8b8b8"
       opacity="1"
       stroke="none"
       d="m 111.78565,119.76685 c -0.20535,0.20607 -0.6718,0.31 -0.90855,0.26939 0.0586,-0.66669 0.35403,-1.29278 0.87749,-2.0454 0.23085,0.43895 0.23363,1.00444 0.0311,1.77601 z"
       id="path99" /><path
       fill="#d7d7d7"
       opacity="1"
       stroke="none"
       d="m 293.00023,116.64783 c -0.5874,-0.0576 -1.29078,-0.37942 -2.05647,-1.00858 0.60526,0.0432 1.2729,0.39378 2.05647,1.00858 z"
       id="path100" /><path
       fill="#b8b8b8"
       opacity="1"
       stroke="none"
       d="m 115.56312,106.36278 c -0.11211,-0.62358 0.008,-1.43547 0.43981,-2.37029 0.13871,0.64537 -0.0345,1.41366 -0.43981,2.37029 z"
       id="path101" /><path
       fill="#a0a0a0"
       opacity="1"
       stroke="none"
       d="m 129.03928,147.1678 c 0.36388,0.5 0.5122,1.12212 0.49387,2.0363 -0.34758,-0.44336 -0.52849,-1.17877 -0.49387,-2.0363 z"
       id="path102" /><path
       fill="#c3c3c3"
       opacity="1"
       stroke="none"
       d="m 214.16007,146.8623 c 0.0897,-0.55717 0.4451,-1.19841 1.09442,-1.88186 -0.0803,0.57112 -0.45453,1.18445 -1.09442,1.88186 z"
       id="path103" /><path
       fill="#e0e0e0"
       opacity="1"
       stroke="none"
       d="m 205.49662,142.76694 c 0.012,0.62211 -0.24599,1.36604 -0.81174,2.19323 -0.0246,-0.63494 0.25858,-1.35318 0.81174,-2.19323 z"
       id="path104" /><path
       fill="#d7d7d7"
       opacity="1"
       stroke="none"
       d="m 267.70005,107.88985 c -0.41293,0.4087 -1.04169,0.70132 -2.03021,0.91592 0.36496,-0.39602 1.08966,-0.714 2.03021,-0.91592 z"
       id="path105" /><path
       fill="#e7e7e7"
       opacity="1"
       stroke="none"
       d="m 144.822,107.07434 c 0.39841,0.0628 0.82127,0.14394 1.24414,0.22511 -0.0649,0.26776 -0.12972,0.53553 -0.19458,0.80329 -0.33957,-0.15645 -0.67914,-0.31291 -1.08658,-0.7858 -0.0679,-0.31645 0.0615,-0.2242 0.037,-0.2426 z"
       id="path106" /><path
       fill="#e0e0e0"
       opacity="1"
       stroke="none"
       d="m 206.02396,153.86366 c -0.79963,-0.0918 -1.63337,-0.19204 -2.4069,-0.58165 0.75921,-0.33198 1.4582,-0.37469 2.15721,-0.41739 0.0782,0.17224 0.15645,0.34452 0.2849,0.79834 0.0502,0.28156 -0.0693,0.19214 -0.0352,0.2007 z"
       id="path107" /><path
       fill="#e7e7e7"
       opacity="1"
       stroke="none"
       d="m 153.04549,98.720261 c 0.39589,0.259628 0.59977,0.564899 0.80364,0.870159 -0.2854,0.0284 -0.57079,0.0568 -1.1353,-0.0512 -0.25089,-0.42191 -0.11131,-0.634179 0.33166,-0.818909 z"
       id="path108" /><path
       fill="#090909"
       opacity="1"
       stroke="none"
       d="m 282.22172,150.70328 c -7.28369,-0.0782 -14.21897,-0.47025 -21.15808,-0.55728 -5.91117,-0.0742 -7.33759,-2.17275 -5.50034,-7.80488 1.10239,-3.37933 1.45767,-7.00236 2.14609,-10.94174 1.65945,-3.41465 3.69403,-6.26233 4.89279,-9.42664 1.63092,-4.30516 6.1571,-8.97793 9.69565,-9.10832 5.23795,-0.193 8.28326,2.73282 8.7977,7.96843 0.33801,3.44018 1.17816,6.83101 1.49884,10.74869 -0.1156,1.54413 0.0634,2.58351 0.24234,3.6229 0.67679,2.41583 1.94772,4.85022 1.87308,7.24261 -0.0846,2.71121 -1.37513,5.3848 -2.48807,8.25623 z"
       id="path109" /><path
       fill="#1b1b1b"
       opacity="1"
       stroke="none"
       d="m 239.56782,159.88612 c 0.17845,-2.09965 0.35692,-4.19929 0.41131,-6.59987 0.16909,-0.47569 0.46224,-0.65049 1.15169,-1.02188 1.40805,0.0623 2.4198,0.32119 3.77443,0.60389 1.22603,-0.60802 2.10918,-1.23981 2.99231,-1.87162 1.65828,1.91045 6.02161,0.9917 5.50171,5.62827 -2.61925,3.10904 -5.2785,5.81193 -8.44864,8.94678 -1.72829,0.92883 -2.94572,1.4257 -4.16315,1.92256 0.0115,-0.63268 0.023,-1.26537 -0.12393,-2.17281 -0.34858,-1.02278 -0.53876,-1.7708 -0.86319,-3.23395 -0.16702,-1.21055 -0.19978,-1.70596 -0.23254,-2.20137 z"
       id="path110" /><path
       fill="#1b1b1b"
       opacity="1"
       stroke="none"
       d="m 253.9502,130.64384 c -2.02861,3.13248 1.16391,7.99286 -4.15017,10.07393 -3.70339,1.5625 -7.29534,2.37255 -6.99747,6.92212 0.005,0.0693 -1.21921,0.21897 -1.86974,0.33113 -0.97688,-4.3264 -2.2413,-8.09689 1.72063,-12.43632 2.18311,-2.39113 4.60637,-4.59046 7.26166,-7.17421 0.40115,-0.24288 0.76184,-0.33919 0.76184,-0.33919 1.03895,0.7625 2.07789,1.52501 3.27325,2.62254 z"
       id="path111" /><path
       fill="#cbcbcb"
       opacity="1"
       stroke="none"
       d="m 240.87888,148.08672 c 0.70447,-0.22786 1.92823,-0.37755 1.92368,-0.44683 -0.29787,-4.54957 3.29408,-5.35962 6.70212,-6.71882 1.74667,2.86787 5.25543,5.56829 0.70617,8.64807 -1.37663,-0.90712 -2.26962,-1.49782 -3.39102,-2.24898 -1.12785,-0.0183 -2.02727,0.12384 -2.92669,0.26599 0.29589,0.80042 0.59179,1.60083 0.95445,2.76724 -0.0506,1.07436 -0.16788,1.78272 -0.2852,2.49106 -1.01177,-0.25889 -2.02352,-0.51779 -3.34871,-0.83024 -0.3333,-0.41533 -0.35317,-0.7771 -0.25066,-1.8828 0.0651,-1.05914 0.008,-1.37436 -0.0495,-1.68958 0,0 -0.0886,-0.23942 -0.0347,-0.35511 z"
       id="path112" /><path
       fill="#d7d7d7"
       opacity="1"
       stroke="none"
       d="m 287.99204,125.02495 c -0.4765,0.94375 -0.953,1.88749 -1.65066,3.26921 -0.88498,-2.0211 -1.49329,-3.41031 -2.10242,-4.80144 1.48734,-1.73076 2.88553,-3.35778 4.17734,-4.86101 1.61536,1.13846 3.20135,2.25622 5.49174,3.87043 -1.02469,0.67379 -2.17216,1.42832 -3.69383,2.04076 -0.6972,-0.45045 -1.02026,-0.7588 -1.34329,-1.06715 -0.29297,0.5164 -0.58594,1.03279 -0.87888,1.5492 z"
       id="path113" /><path
       fill="#282828"
       opacity="1"
       stroke="none"
       d="m 296.14827,130.38803 c 0.30527,0.91975 1.11926,2.39688 0.82785,2.66284 -1.27008,1.1592 -2.86157,1.96627 -4.96396,2.67453 0.33255,-1.59918 1.29273,-2.97168 2.62058,-4.39587 0.75027,-0.3483 1.1329,-0.6449 1.51553,-0.9415 z"
       id="path114" /><path
       fill="#e0e0e0"
       opacity="1"
       stroke="none"
       d="m 294.26506,131.38123 c -0.96017,1.37249 -1.92035,2.74499 -2.61164,4.39102 0.26887,0.2735 0.27607,0.20755 0.0132,-0.0991 -0.79965,-0.10554 -1.33648,0.0955 -1.87335,0.29662 -0.49386,-0.0231 -0.98773,-0.0463 -1.71237,-0.42145 -0.22064,-0.75894 -0.21051,-1.16586 -0.20035,-1.57278 -3e-5,0 0.0296,0.0156 0.37103,0.0812 1.45487,-0.98778 2.56824,-2.04115 3.68163,-3.09454 0,0 0.003,0.0563 0.32678,-0.0478 0.44284,-0.55914 0.56161,-1.01425 0.68039,-1.46936 0,0 -0.045,-0.17784 0.10254,-0.29648 0.14752,-0.11865 0.42996,-0.16928 0.51135,0.24649 0.29114,0.93922 0.50095,1.46268 0.71075,1.98615 z"
       id="path115" /><path
       fill="#868686"
       opacity="1"
       stroke="none"
       d="m 251.05238,127.89229 c -0.37543,0.12901 -0.73612,0.22532 -0.9179,0.18292 -0.78994,-0.50986 -1.39811,-0.97731 -2.00628,-1.44476 0.73144,-0.5605 1.46287,-1.121 2.62791,-1.49248 1.34412,0.0961 2.25461,0.003 3.1651,-0.0898 0.16135,0.75734 0.32269,1.51468 0.48404,2.27202 -0.99249,0.14771 -1.98497,0.29539 -3.35287,0.5721 z"
       id="path116" /><path
       fill="#d7d7d7"
       opacity="1"
       stroke="none"
       d="m 293.47292,128.97931 c 0,0 -0.28244,0.0506 -0.42356,0.0778 -0.14071,-0.1531 -0.14028,-0.33334 -0.14447,-1.03489 -0.001,-0.68869 0.002,-0.8561 0.005,-1.02351 0.4721,-0.30313 0.94421,-0.60626 1.8883,-0.70809 1.02036,0.37169 1.56879,0.54208 2.11719,0.71246 -0.18442,0.54794 -0.36887,1.09587 -1.1893,1.78665 -1.1752,0.15845 -1.71442,0.17403 -2.2536,0.18961 z"
       id="path117" /><path
       fill="#868686"
       opacity="1"
       stroke="none"
       d="m 291.56266,130.86047 c -0.7428,1.15511 -1.85617,2.20848 -3.31534,3.18009 0.75107,-1.14846 1.8479,-2.21514 3.31534,-3.18009 z"
       id="path118" /><path
       fill="#c3c3c3"
       opacity="1"
       stroke="none"
       d="m 253.76313,124.7738 c -0.75241,0.36731 -1.6629,0.46025 -2.68515,0.23356 0.76785,-0.38241 1.64746,-0.44516 2.68515,-0.23356 z"
       id="path119" /><path
       fill="#e5e5e5"
       opacity="1"
       stroke="none"
       d="m 282.86039,134.78107 c -0.20267,-0.61602 -0.38162,-1.6554 -0.2879,-2.83039 0.28564,0.71193 0.29861,1.55947 0.2879,2.83039 z"
       id="path120" /><path
       fill="#c3c3c3"
       opacity="1"
       stroke="none"
       d="m 288.12153,140.94398 c 0.71564,0.0352 1.20081,0.208 1.686,0.3808 -0.21582,0.37145 -0.43164,0.74291 -0.64746,1.11435 -0.423,-0.45251 -0.84597,-0.90503 -1.03854,-1.49515 z"
       id="path121" /><path
       fill="#a0a0a0"
       opacity="1"
       stroke="none"
       d="m 293.55431,129.39508 c 0.45779,-0.43135 0.99701,-0.44693 1.93817,-0.42709 0.4891,0.34199 0.58728,0.64496 0.67615,1.18219 -0.40299,0.53445 -0.78562,0.83105 -1.53589,1.17933 -0.57748,-0.47175 -0.78729,-0.99521 -1.07843,-1.93443 z"
       id="path122" /><path
       fill="#868686"
       opacity="1"
       stroke="none"
       d="m 287.61582,133.77582 c 0.25461,0.60666 0.24448,1.01358 0.0982,1.71548 -0.21173,-0.44177 -0.28736,-1.1785 -0.0982,-1.71548 z"
       id="path123" /><path
       fill="#e5e5e5"
       opacity="1"
       stroke="none"
       d="m 296.88323,126.71425 c -0.51581,0.11842 -1.06424,-0.052 -1.79316,-0.45159 0.46653,-0.0986 1.11356,0.0321 1.79316,0.45159 z"
       id="path124" /><path
       fill="#e5e5e5"
       opacity="1"
       stroke="none"
       d="m 288.31663,125.01438 c -0.0317,-0.50584 0.26132,-1.02223 0.55429,-1.53863 0.32303,0.30835 0.64609,0.6167 1.02057,1.21489 -0.38245,0.29762 -0.81635,0.3054 -1.57486,0.32374 z"
       id="path125" /><path
       fill="#c3c3c3"
       opacity="1"
       stroke="none"
       d="m 291.92766,137.93085 c 0.48206,0.31031 0.96414,0.62063 1.4462,0.93095 -0.77945,0.21607 -1.55887,0.43213 -2.19484,0.2556 0.34522,-0.65724 0.54691,-0.9219 0.74864,-1.18655 z"
       id="path126" /><path
       fill="#282828"
       opacity="1"
       stroke="none"
       d="m 289.77812,136.32289 c 0.55206,-0.55418 1.08889,-0.75526 1.91986,-0.63838 0.29407,0.31798 0.1373,0.66649 -0.16095,0.95506 -0.41636,0.44243 -0.53446,0.59627 -0.65253,0.75011 -0.37387,-0.2379 -0.74774,-0.4758 -1.10638,-1.06679 z"
       id="path127" /><path
       fill="#d7d7d7"
       opacity="1"
       stroke="none"
       d="m 290.86301,137.64088 c 0.13956,-0.40504 0.25766,-0.55888 0.6493,-0.81184 0.30707,0.10011 0.34064,0.29933 0.39478,0.80017 -0.18116,0.56629 -0.38285,0.83095 -0.82414,1.18137 -0.2402,-0.249 -0.24081,-0.58374 -0.21994,-1.1697 z"
       id="path128" /><path
       fill="#c3c3c3"
       opacity="1"
       stroke="none"
       d="m 249.17707,123.70827 c -0.41399,0.035 -0.66383,-0.10221 -0.91368,-0.23944 0.10466,-0.11985 0.25267,-0.35906 0.30666,-0.33945 0.27058,0.0983 0.51655,0.26436 0.60702,0.57889 z"
       id="path129" /><path
       fill="#d7d7d7"
       opacity="1"
       stroke="none"
       d="m 297.28292,138.24428 c 0.0136,-0.23001 0.13739,-0.35529 0.26116,-0.48056 -0.0503,0.1951 -0.1007,0.39019 -0.26116,0.48056 z"
       id="path130" /><path
       fill="#868686"
       opacity="1"
       stroke="none"
       d="m 240.72153,148.68536 c 0.2493,0.0717 0.30658,0.38691 0.2828,1.17618 -0.21232,0.005 -0.34357,-0.46374 -0.2828,-1.17618 z"
       id="path131" /><path
       fill="#e5e5e5"
       opacity="1"
       stroke="none"
       d="m 292.75148,127.08945 c 0.15552,0.0766 0.15216,0.24405 0.1445,0.66252 -0.16415,0.0815 -0.34161,-0.076 -0.47049,-0.26651 -0.0297,-0.0439 0.107,-0.20052 0.32599,-0.39601 z"
       id="path132" /><path
       fill="#868686"
       opacity="1"
       stroke="none"
       d="m 292.67726,129.65735 c 0.14438,0.24283 0.0256,0.69794 -0.44531,1.25917 -0.17407,-0.27823 0.004,-0.66257 0.44531,-1.25917 z"
       id="path133" /><path
       fill="#cbcbcb"
       opacity="1"
       stroke="none"
       d="m 239.01078,153.151 c -0.24872,-0.12579 -0.44098,-0.31558 -0.63324,-0.50536 0.21162,0.006 0.42326,0.0112 0.74365,0.20336 0.10877,0.18652 -0.0539,0.23802 -0.11041,0.302 z"
       id="path134" /><path
       fill="#d7d7d7"
       opacity="1"
       stroke="none"
       d="m 299.91445,138.99576 c -0.0821,0.0318 -0.16108,0.0679 -0.11417,0.0573 0.12582,-0.0466 0.11731,-0.0531 0.11417,-0.0573 z"
       id="path135" /><path
       fill="#090909"
       opacity="1"
       stroke="none"
       d="m 154.44886,111.94876 c 1.8355,-2.52181 3.98015,-4.8778 5.44078,-7.6007 2.85295,-5.31847 7.71027,-5.98812 13.26152,-6.189758 0.48529,4.430598 1.09917,8.852448 0.55086,13.125158 -0.60724,4.73207 -2.27716,9.32776 -3.40166,14.36299 -0.33841,1.8023 -0.75946,3.22444 -1.4402,5.18561 -0.26056,1.12004 -0.26143,1.70104 -0.26231,2.28204 -0.16912,0.4159 -0.33823,0.83181 -0.72689,1.76572 -0.27252,1.0865 -0.3255,1.65502 -0.37848,2.22353 -1.88999,5.36369 -3.77999,10.72737 -5.70637,16.46415 -2.88365,2.60558 -5.48077,5.36797 -8.671,6.87388 -1.94578,0.91845 -4.80459,-0.0973 -7.68435,-0.73165 -1.13665,-1.8963 -1.84227,-3.30531 -2.45947,-5.08452 0.0282,-1.12152 -0.0319,-1.87285 -0.0921,-2.62419 2.4301,-9.73323 4.86018,-19.46646 7.29001,-29.58851 1.02859,-2.5993 2.05748,-4.80977 3.38995,-7.5369 0.49895,-1.32006 0.69432,-2.12346 0.88968,-2.92685 z"
       id="path136" /><path
       fill="#d7d7d7"
       opacity="1"
       stroke="none"
       d="m 173.91376,148.02653 c 0.0974,0.3131 0.13878,0.6596 0.30188,0.93363 0.79017,1.32777 1.61298,2.63611 2.42423,3.95131 -1.83875,0.3119 -3.79219,1.15089 -5.48299,0.78294 -1.59347,-0.34675 -1.4235,-2.14032 -1.77133,-3.8578 -1.27005,-6.27118 5.80953,-5.47818 5.79906,-10.30179 2.23382,2.72931 2.23382,2.72931 -1.22395,7.34828 -0.0581,0.78559 -0.0525,0.96451 -0.0469,1.14343 z"
       id="path137" /><path
       fill="#c3c3c3"
       opacity="1"
       stroke="none"
       d="m 219.59199,127.02438 c 0.31816,1.67237 0.32918,3.41451 0.2702,5.50324 -1.04097,1.62369 -1.98283,2.92431 -2.99005,4.17216 -1.34319,1.66405 -2.73718,3.28708 -4.24732,4.58046 0.60463,-2.04194 1.25312,-3.78615 2.1126,-5.41929 1.19148,-2.26401 2.2908,-4.43348 -0.55194,-6.67879 -0.25162,-0.38255 -0.2598,-0.56453 -0.26938,-1.02094 1.78864,-0.5386 3.57867,-0.80282 5.67589,-1.13684 z"
       id="path138" /><path
       fill="#c7c7c7"
       opacity="1"
       stroke="none"
       d="m 173.88772,137.97705 c -1.24909,-0.0937 -2.49817,-0.18732 -3.74726,-0.28098 -0.192,-0.52146 -0.38398,-1.04292 -0.57598,-1.56439 1.72332,-0.87571 3.44665,-1.75143 5.16998,-2.62716 0.21956,0.32203 0.43913,0.64405 0.65869,0.96609 -0.5114,0.96402 -1.0228,1.92804 -1.50502,3.21066 0.0292,0.31859 -4.1e-4,0.29578 -4.1e-4,0.29578 z"
       id="path139" /><path
       fill="#c3c3c3"
       opacity="1"
       stroke="none"
       d="m 210.57584,146.02234 c -0.99633,1.11272 -2.33708,2.27644 -3.75409,3.16998 1.08571,-1.21976 2.2477,-2.16936 3.75409,-3.16998 z"
       id="path140" /><path
       fill="#c3c3c3"
       opacity="1"
       stroke="none"
       d="m 205.76276,152.57474 c -0.6875,0.33258 -1.38649,0.37529 -2.43621,0.39094 -0.0882,-0.48022 0.17433,-0.93339 0.56707,-1.61604 0.70603,0.15875 1.28183,0.547 1.86914,1.2251 z"
       id="path141" /><path
       fill="#c7c7c7"
       opacity="1"
       stroke="none"
       d="m 167.74094,137.05073 c -0.19548,-0.51589 -0.1425,-1.08441 0.15046,-1.83143 0.19265,0.47392 0.14532,1.12637 -0.15046,1.83143 z"
       id="path142" /><path
       fill="#c7c7c7"
       opacity="1"
       stroke="none"
       d="m 168.83907,133.05815 c -0.24034,-0.52505 -0.23947,-1.10605 0.0178,-1.8542 0.24542,0.48799 0.23439,1.14311 -0.0178,1.8542 z"
       id="path143" /><path
       fill="#868686"
       opacity="1"
       stroke="none"
       d="m 174.90666,146.98915 c 0.22662,-0.19183 0.45324,-0.38367 0.67986,-0.57548 -0.0438,0.23683 -0.0877,0.47364 -0.40002,0.64865 -0.26848,-0.0618 -0.27984,-0.0732 -0.27984,-0.0732 z"
       id="path144" /><path
       fill="#868686"
       opacity="1"
       stroke="none"
       d="m 174.18681,147.96948 c -0.27865,-0.12187 -0.28426,-0.30079 -0.28299,-0.74949 0.17251,-0.2511 0.33816,-0.2324 0.75332,-0.22226 0.24952,-0.009 0.26088,0.003 0.26868,0.0108 -0.15012,0.30667 -0.30805,0.60527 -0.73901,0.96092 z"
       id="path145" /><path
       fill="#d7d7d7"
       opacity="1"
       stroke="none"
       d="m 173.90586,137.98526 c 0.10193,0.11563 0.2153,0.24586 0.32868,0.37611 -0.0737,-0.0476 -0.14751,-0.0952 -0.28403,-0.26359 -0.0628,-0.12073 -0.0332,-0.0979 -0.0446,-0.11252 z"
       id="path146" /><path
       fill="#dbdbdb"
       opacity="1"
       stroke="none"
       d="m 106.66598,149.11377 c 0.40564,-1.52928 0.96184,-2.8062 1.75338,-3.91513 0.0883,-0.12377 2.11831,0.61091 2.19819,1.11412 0.18877,1.18901 -0.25511,2.47845 -0.44316,3.72729 -1.09622,-0.20817 -2.19243,-0.41633 -3.50841,-0.92628 z"
       id="path147" /><path
       fill="#dbdbdb"
       opacity="1"
       stroke="none"
       d="m 109.06461,140.89983 c 0.39571,0.94386 0.68963,1.60644 0.98355,2.26902 -1.24984,-0.079 -2.49968,-0.15794 -3.74952,-0.2369 -0.0661,-0.51975 -0.13211,-1.03949 -0.19815,-1.55924 0.95411,-0.25139 1.90822,-0.50278 2.96412,-0.47288 z"
       id="path148" /><path
       fill="#dbdbdb"
       opacity="1"
       stroke="none"
       d="m 108.63913,125.1411 c 0.10297,1.61516 0.022,2.95169 -0.059,4.28822 -0.58659,-0.12474 -1.17318,-0.24948 -1.75976,-0.37422 0.54494,-1.39755 1.08988,-2.7951 1.8188,-3.914 z"
       id="path149" /><path
       fill="#dbdbdb"
       opacity="1"
       stroke="none"
       d="m 112.31844,155.41829 c -0.8991,-0.17639 -1.55184,-0.59561 -2.20457,-1.01483 0.41,-0.40111 0.82001,-0.80222 1.23002,-1.20333 0.40697,0.65845 0.81394,1.31688 0.97455,2.21816 z"
       id="path150" /><path
       fill="#d7d7d7"
       opacity="1"
       stroke="none"
       d="m 142.8829,154.99541 c 0.70559,1.40901 1.41121,2.81802 2.22018,4.55143 -2.87596,1.3456 -5.04718,0.80886 -5.29106,-3.22729 0.40474,-0.82364 0.41313,-1.09934 0.75229,-1.35495 0.99338,0.0237 1.65597,0.0272 2.31859,0.0308 z"
       id="path151" /><path
       fill="#eaeaea"
       opacity="1"
       stroke="none"
       d="m 142.97129,154.62521 c -0.75101,0.36661 -1.4136,0.36304 -2.5375,-0.01 -0.49523,-1.11158 -0.52919,-1.8537 -0.56315,-2.59581 0.75225,-0.006 1.50449,-0.0113 2.63266,-0.0176 0.43607,0.75064 0.49622,1.50197 0.46799,2.62349 z"
       id="path152" /><path
       fill="#d7d7d7"
       opacity="1"
       stroke="none"
       d="m 142.46252,141.03264 c -0.6577,0.33558 -1.31571,0.36415 -1.97373,0.39271 0.002,-0.2805 0.004,-0.561 0.006,-0.84149 0.6558,0.0472 1.3116,0.0945 1.96772,0.44878 z"
       id="path153" /><path
       fill="#eaeaea"
       opacity="1"
       stroke="none"
       d="m 136.36068,145.63113 c -0.11027,0.4238 -0.37853,0.68378 -0.66419,0.92298 -0.008,0.007 -0.20149,-0.20786 -0.30847,-0.31925 0.27074,-0.25682 0.54148,-0.51365 0.97266,-0.60373 z"
       id="path154" /><path
       fill="#868686"
       opacity="1"
       stroke="none"
       d="m 139.51269,152.1604 c 0.39191,0.60107 0.42587,1.34319 0.59033,2.43472 0.12213,0.62509 0.11374,0.90079 -0.0456,1.56171 -0.40153,-1.02831 -0.65211,-2.44185 -0.54472,-3.99643 z"
       id="path155" /><path
       fill="#eaeaea"
       opacity="1"
       stroke="none"
       d="m 138.28802,149.44244 c -0.42588,-0.11058 -0.68669,-0.37942 -0.9271,-0.66542 -0.006,-0.008 0.20913,-0.20169 0.32117,-0.3088 0.2579,0.27122 0.51581,0.54243 0.60593,0.97422 z"
       id="path156" /><path
       fill="#eaeaea"
       opacity="1"
       stroke="none"
       d="m 132.6085,141.13242 c 0.16902,0.25907 0.12832,0.48318 0.0876,0.70729 -0.29306,-0.0744 -0.58613,-0.14879 -0.87918,-0.22319 0.19394,-0.17302 0.3879,-0.34604 0.79154,-0.4841 z"
       id="path157" /><path
       fill="#eaeaea"
       opacity="1"
       stroke="none"
       d="m 133.3908,152.45776 c 0.0471,-0.0265 -0.0471,0.0265 0,0 z"
       id="path158" /><path
       fill="#dbdbdb"
       opacity="1"
       stroke="none"
       d="m 154.12217,112.07098 c 0.13133,0.68117 -0.064,1.48457 -0.51599,2.47457 -0.10797,-0.65972 0.0406,-1.50604 0.51599,-2.47457 z"
       id="path159" /><path
       fill="#dbdbdb"
       opacity="1"
       stroke="none"
       d="m 146.9117,115.99557 c -0.59068,0.31901 -1.18138,0.63801 -1.77207,0.95702 -0.0846,-0.22327 -0.16926,-0.44653 -0.25388,-0.66979 0.48788,-0.0952 0.97578,-0.19045 1.74774,-0.28423 0.28409,0.001 0.27821,-0.003 0.27821,-0.003 z"
       id="path160" /><path
       fill="#dbdbdb"
       opacity="1"
       stroke="none"
       d="m 148.95869,119.03265 c -0.45119,0.11821 -0.90236,0.23642 -1.35355,0.35463 0.2666,-0.13422 0.53319,-0.26844 1.05663,-0.39603 0.25685,0.007 0.29692,0.0414 0.29692,0.0414 z"
       id="path161" /><path
       fill="#dbdbdb"
       opacity="1"
       stroke="none"
       d="m 148.90119,118.97787 c 0.0969,-0.0376 0.21123,-0.0552 0.19153,-0.009 -0.13403,0.0638 -0.1741,0.029 -0.19153,0.009 z"
       id="path162" /><path
       fill="#dbdbdb"
       opacity="1"
       stroke="none"
       d="m 146.91999,116.00308 c 0.0864,-0.0355 0.1703,-0.0741 0.12299,-0.0601 -0.13128,0.0525 -0.1254,0.057 -0.12299,0.0601 z"
       id="path163" /><path
       fill="#e0e0e0"
       opacity="1"
       stroke="none"
       d="m 127.30645,183.97406 c 0.37913,-0.98271 1.12534,-1.96951 2.23918,-2.96304 -0.37894,0.98182 -1.12553,1.97039 -2.23918,2.96304 z"
       id="path164" /><path
       fill="#282828"
       opacity="1"
       stroke="none"
       d="m 256.36106,188.89908 c -2.04121,-1.51749 -3.66864,-2.95015 -5.6546,-4.4325 -0.0148,-1.2288 0.32893,-2.40791 0.89249,-3.88591 1.21548,-1.0863 2.21112,-1.87372 3.70959,-3.05879 1.05539,1.36842 2.09232,2.71297 3.4194,4.59999 0.80664,1.42122 1.32315,2.29994 1.83969,3.17867 -0.0392,0.33473 0.0873,0.58613 0.60007,0.7798 0.78168,0.904 1.34271,1.78244 2.05872,2.90356 -2.29315,0 -4.37235,0 -6.86536,-0.0848 z"
       id="path165" /><path
       fill="#b8b8b8"
       opacity="1"
       stroke="none"
       d="m 240.93809,167.77576 c 1.06682,-0.77837 2.28425,-1.27524 3.80951,-1.88895 0.71574,1.39789 1.12365,2.91261 1.53155,4.42734 -0.45076,0.23158 -0.90153,0.46316 -1.35231,0.69475 -1.27937,-0.98388 -2.55876,-1.96776 -3.98875,-3.23314 z"
       id="path166" /><path
       fill="#c7c7c7"
       opacity="1"
       stroke="none"
       d="m 245.50068,172.4588 c 0.0523,0.0711 -0.15152,0.0904 -0.15152,0.0904 0,0 0.0992,-0.16153 0.15152,-0.0904 z"
       id="path167" /><path
       fill="#282828"
       opacity="1"
       stroke="none"
       d="m 244.90525,152.86826 c -0.22554,-0.73215 -0.10823,-1.44051 0.34149,-2.70546 0.8221,-1.26514 1.3118,-1.97367 1.80152,-2.68218 0.89297,0.5907 1.78596,1.1814 2.8282,2.15001 -0.36579,0.65137 -0.88085,0.92484 -1.6874,1.28217 -1.17463,0.71565 -2.05778,1.34744 -3.28381,1.95546 z"
       id="path168" /><path
       fill="#f2f2f2"
       opacity="1"
       stroke="none"
       d="m 260.84428,185.10591 c -0.79319,-0.6841 -1.3097,-1.56282 -1.84211,-2.77962 0.69562,0.63629 1.4072,1.61064 1.84211,2.77962 z"
       id="path169" /><path
       fill="#b8b8b8"
       opacity="1"
       stroke="none"
       d="m 239.31268,159.92163 c 0.2879,0.4599 0.32066,0.95531 0.30755,1.82103 -0.21815,-0.3483 -0.39043,-1.06691 -0.30755,-1.82103 z"
       id="path170" /><path
       fill="#868686"
       opacity="1"
       stroke="none"
       d="m 246.81983,147.32016 c -0.26129,0.86897 -0.75099,1.5775 -1.63985,2.47662 -0.69505,-0.6098 -0.99095,-1.41021 -1.28684,-2.21063 0.89942,-0.14215 1.79884,-0.28429 2.92669,-0.26599 z"
       id="path171" /></g></g>
</svg>
